<?xml version="1.0" encoding="us-ascii" standalone="no"?><svg xmlns="http://www.w3.org/2000/svg" xmlns:xlink="http://www.w3.org/1999/xlink" contentStyleType="text/css" height="452px" preserveAspectRatio="none" style="width:309px;height:452px;background:#FFFFFF;" version="1.1" viewBox="0 0 309 452" width="309px" zoomAndPan="magnify"><defs/><g><!--cluster BridgePattern--><g id="cluster_BridgePattern"><path d="M8.5,6 L123.5,6 A3.75,3.75 0 0 1 126,8.5 L133,28.2969 L299.5,28.2969 A2.5,2.5 0 0 1 302,30.7969 L302,442.5 A2.5,2.5 0 0 1 299.5,445 L8.5,445 A2.5,2.5 0 0 1 6,442.5 L6,8.5 A2.5,2.5 0 0 1 8.5,6 " fill="none" style="stroke:#000000;stroke-width:1.5;"/><line style="stroke:#000000;stroke-width:1.5;" x1="6" x2="133" y1="28.2969" y2="28.2969"/><text fill="#000000" font-family="sans-serif" font-size="14" font-weight="bold" lengthAdjust="spacing" textLength="114" x="10" y="20.9951">BridgePattern</text></g><!--class Circle--><g id="elem_Circle"><rect codeLine="14" fill="#F1F1F1" height="32" id="Circle" rx="2.5" ry="2.5" style="stroke:#181818;stroke-width:0.5;" width="73" x="138.5" y="173"/><ellipse cx="153.5" cy="189" fill="#ADD1B2" rx="11" ry="11" style="stroke:#181818;stroke-width:1.0;"/><path d="M155.8438,184.6719 C154.9063,184.2344 154.3125,184.0938 153.4375,184.0938 C150.8125,184.0938 148.8125,186.1719 148.8125,188.8906 L148.8125,190.0156 C148.8125,192.5938 150.9219,194.4844 153.8125,194.4844 C155.0313,194.4844 156.1875,194.1875 156.9375,193.6406 C157.5156,193.2344 157.8438,192.7813 157.8438,192.3906 C157.8438,191.9375 157.4531,191.5469 156.9844,191.5469 C156.7656,191.5469 156.5625,191.625 156.375,191.8125 C155.9219,192.2969 155.9219,192.2969 155.7344,192.3906 C155.3125,192.6563 154.625,192.7813 153.8594,192.7813 C151.8125,192.7813 150.5156,191.6875 150.5156,189.9844 L150.5156,188.8906 C150.5156,187.1094 151.7656,185.7969 153.5,185.7969 C154.0781,185.7969 154.6875,185.9531 155.1563,186.2031 C155.6406,186.4844 155.8125,186.7031 155.9063,187.1094 C155.9688,187.5156 156,187.6406 156.1406,187.7656 C156.2813,187.9063 156.5156,188.0156 156.7344,188.0156 C157,188.0156 157.2656,187.875 157.4375,187.6563 C157.5469,187.5 157.5781,187.3125 157.5781,186.8906 L157.5781,185.4688 C157.5781,185.0313 157.5625,184.9063 157.4688,184.75 C157.3125,184.4844 157.0313,184.3438 156.7344,184.3438 C156.4375,184.3438 156.2344,184.4375 156.0156,184.75 L155.8438,184.6719 Z " fill="#000000"/><text fill="#000000" font-family="sans-serif" font-size="14" lengthAdjust="spacing" textLength="41" x="167.5" y="193.8467">Circle</text></g><!--class DetailedView--><g id="elem_DetailedView"><rect codeLine="15" fill="#F1F1F1" height="32" id="DetailedView" rx="2.5" ry="2.5" style="stroke:#181818;stroke-width:0.5;" width="127" x="22.5" y="397"/><ellipse cx="37.5" cy="413" fill="#ADD1B2" rx="11" ry="11" style="stroke:#181818;stroke-width:1.0;"/><path d="M39.8438,408.6719 C38.9063,408.2344 38.3125,408.0938 37.4375,408.0938 C34.8125,408.0938 32.8125,410.1719 32.8125,412.8906 L32.8125,414.0156 C32.8125,416.5938 34.9219,418.4844 37.8125,418.4844 C39.0313,418.4844 40.1875,418.1875 40.9375,417.6406 C41.5156,417.2344 41.8438,416.7813 41.8438,416.3906 C41.8438,415.9375 41.4531,415.5469 40.9844,415.5469 C40.7656,415.5469 40.5625,415.625 40.375,415.8125 C39.9219,416.2969 39.9219,416.2969 39.7344,416.3906 C39.3125,416.6563 38.625,416.7813 37.8594,416.7813 C35.8125,416.7813 34.5156,415.6875 34.5156,413.9844 L34.5156,412.8906 C34.5156,411.1094 35.7656,409.7969 37.5,409.7969 C38.0781,409.7969 38.6875,409.9531 39.1563,410.2031 C39.6406,410.4844 39.8125,410.7031 39.9063,411.1094 C39.9688,411.5156 40,411.6406 40.1406,411.7656 C40.2813,411.9063 40.5156,412.0156 40.7344,412.0156 C41,412.0156 41.2656,411.875 41.4375,411.6563 C41.5469,411.5 41.5781,411.3125 41.5781,410.8906 L41.5781,409.4688 C41.5781,409.0313 41.5625,408.9063 41.4688,408.75 C41.3125,408.4844 41.0313,408.3438 40.7344,408.3438 C40.4375,408.3438 40.2344,408.4375 40.0156,408.75 L39.8438,408.6719 Z " fill="#000000"/><text fill="#000000" font-family="sans-serif" font-size="14" lengthAdjust="spacing" textLength="95" x="51.5" y="417.8467">DetailedView</text></g><!--class BriefView--><g id="elem_BriefView"><rect codeLine="16" fill="#F1F1F1" height="32" id="BriefView" rx="2.5" ry="2.5" style="stroke:#181818;stroke-width:0.5;" width="101" x="184.5" y="397"/><ellipse cx="199.5" cy="413" fill="#ADD1B2" rx="11" ry="11" style="stroke:#181818;stroke-width:1.0;"/><path d="M201.8438,408.6719 C200.9063,408.2344 200.3125,408.0938 199.4375,408.0938 C196.8125,408.0938 194.8125,410.1719 194.8125,412.8906 L194.8125,414.0156 C194.8125,416.5938 196.9219,418.4844 199.8125,418.4844 C201.0313,418.4844 202.1875,418.1875 202.9375,417.6406 C203.5156,417.2344 203.8438,416.7813 203.8438,416.3906 C203.8438,415.9375 203.4531,415.5469 202.9844,415.5469 C202.7656,415.5469 202.5625,415.625 202.375,415.8125 C201.9219,416.2969 201.9219,416.2969 201.7344,416.3906 C201.3125,416.6563 200.625,416.7813 199.8594,416.7813 C197.8125,416.7813 196.5156,415.6875 196.5156,413.9844 L196.5156,412.8906 C196.5156,411.1094 197.7656,409.7969 199.5,409.7969 C200.0781,409.7969 200.6875,409.9531 201.1563,410.2031 C201.6406,410.4844 201.8125,410.7031 201.9063,411.1094 C201.9688,411.5156 202,411.6406 202.1406,411.7656 C202.2813,411.9063 202.5156,412.0156 202.7344,412.0156 C203,412.0156 203.2656,411.875 203.4375,411.6563 C203.5469,411.5 203.5781,411.3125 203.5781,410.8906 L203.5781,409.4688 C203.5781,409.0313 203.5625,408.9063 203.4688,408.75 C203.3125,408.4844 203.0313,408.3438 202.7344,408.3438 C202.4375,408.3438 202.2344,408.4375 202.0156,408.75 L201.8438,408.6719 Z " fill="#000000"/><text fill="#000000" font-family="sans-serif" font-size="14" lengthAdjust="spacing" textLength="69" x="213.5" y="417.8467">BriefView</text></g><!--class Shapes--><g id="elem_Shapes"><rect codeLine="9" fill="#F1F1F1" height="32" id="Shapes" rx="2.5" ry="2.5" style="stroke:#181818;stroke-width:0.5;" width="84" x="133" y="61"/><ellipse cx="148" cy="77" fill="#ADD1B2" rx="11" ry="11" style="stroke:#181818;stroke-width:1.0;"/><path d="M150.3438,72.6719 C149.4063,72.2344 148.8125,72.0938 147.9375,72.0938 C145.3125,72.0938 143.3125,74.1719 143.3125,76.8906 L143.3125,78.0156 C143.3125,80.5938 145.4219,82.4844 148.3125,82.4844 C149.5313,82.4844 150.6875,82.1875 151.4375,81.6406 C152.0156,81.2344 152.3438,80.7813 152.3438,80.3906 C152.3438,79.9375 151.9531,79.5469 151.4844,79.5469 C151.2656,79.5469 151.0625,79.625 150.875,79.8125 C150.4219,80.2969 150.4219,80.2969 150.2344,80.3906 C149.8125,80.6563 149.125,80.7813 148.3594,80.7813 C146.3125,80.7813 145.0156,79.6875 145.0156,77.9844 L145.0156,76.8906 C145.0156,75.1094 146.2656,73.7969 148,73.7969 C148.5781,73.7969 149.1875,73.9531 149.6563,74.2031 C150.1406,74.4844 150.3125,74.7031 150.4063,75.1094 C150.4688,75.5156 150.5,75.6406 150.6406,75.7656 C150.7813,75.9063 151.0156,76.0156 151.2344,76.0156 C151.5,76.0156 151.7656,75.875 151.9375,75.6563 C152.0469,75.5 152.0781,75.3125 152.0781,74.8906 L152.0781,73.4688 C152.0781,73.0313 152.0625,72.9063 151.9688,72.75 C151.8125,72.4844 151.5313,72.3438 151.2344,72.3438 C150.9375,72.3438 150.7344,72.4375 150.5156,72.75 L150.3438,72.6719 Z " fill="#000000"/><text fill="#000000" font-family="sans-serif" font-size="14" lengthAdjust="spacing" textLength="52" x="162" y="81.8467">Shapes</text></g><polygon fill="none" points="168.5135,93,167.4866,114.1647,154.5122,108.9048" style="stroke:#181818;stroke-width:1.0;"/><line style="stroke:#181818;stroke-width:1.0;" x1="160.9994" x2="160" y1="111.5348" y2="114"/><line style="stroke:#181818;stroke-width:1.0;" x1="186.4175" x2="200.74" y1="93" y2="113.071"/><!--class Square--><g id="elem_Square"><rect codeLine="20" fill="#F1F1F1" height="32" id="Square" rx="2.5" ry="2.5" style="stroke:#181818;stroke-width:0.5;" width="81" x="22.5" y="173"/><ellipse cx="37.5" cy="189" fill="#ADD1B2" rx="11" ry="11" style="stroke:#181818;stroke-width:1.0;"/><path d="M39.8438,184.6719 C38.9063,184.2344 38.3125,184.0938 37.4375,184.0938 C34.8125,184.0938 32.8125,186.1719 32.8125,188.8906 L32.8125,190.0156 C32.8125,192.5938 34.9219,194.4844 37.8125,194.4844 C39.0313,194.4844 40.1875,194.1875 40.9375,193.6406 C41.5156,193.2344 41.8438,192.7813 41.8438,192.3906 C41.8438,191.9375 41.4531,191.5469 40.9844,191.5469 C40.7656,191.5469 40.5625,191.625 40.375,191.8125 C39.9219,192.2969 39.9219,192.2969 39.7344,192.3906 C39.3125,192.6563 38.625,192.7813 37.8594,192.7813 C35.8125,192.7813 34.5156,191.6875 34.5156,189.9844 L34.5156,188.8906 C34.5156,187.1094 35.7656,185.7969 37.5,185.7969 C38.0781,185.7969 38.6875,185.9531 39.1563,186.2031 C39.6406,186.4844 39.8125,186.7031 39.9063,187.1094 C39.9688,187.5156 40,187.6406 40.1406,187.7656 C40.2813,187.9063 40.5156,188.0156 40.7344,188.0156 C41,188.0156 41.2656,187.875 41.4375,187.6563 C41.5469,187.5 41.5781,187.3125 41.5781,186.8906 L41.5781,185.4688 C41.5781,185.0313 41.5625,184.9063 41.4688,184.75 C41.3125,184.4844 41.0313,184.3438 40.7344,184.3438 C40.4375,184.3438 40.2344,184.4375 40.0156,184.75 L39.8438,184.6719 Z " fill="#000000"/><text fill="#000000" font-family="sans-serif" font-size="14" lengthAdjust="spacing" textLength="49" x="51.5" y="193.8467">Square</text></g><!--class IDrawingView--><g id="elem_IDrawingView"><rect codeLine="11" fill="#F1F1F1" height="32" id="IDrawingView" rx="2.5" ry="2.5" style="stroke:#181818;stroke-width:0.5;" width="129" x="136.5" y="285"/><ellipse cx="151.5" cy="301" fill="#B4A7E5" rx="11" ry="11" style="stroke:#181818;stroke-width:1.0;"/><path d="M152.4531,297.7813 L154.1719,297.7813 C154.5625,297.7813 154.75,297.75 154.875,297.6719 C155.1406,297.5156 155.2813,297.2344 155.2813,296.9375 C155.2813,296.6719 155.1719,296.4063 154.9375,296.2344 C154.7656,296.125 154.625,296.0938 154.1719,296.0938 L149.0313,296.0938 C148.5938,296.0938 148.4688,296.1094 148.3125,296.2031 C148.0625,296.3594 147.9063,296.6563 147.9063,296.9375 C147.9063,297.2188 148.0469,297.4688 148.2656,297.6406 C148.4219,297.75 148.6094,297.7813 149.0313,297.7813 L150.75,297.7813 L150.75,304.2969 L149.0313,304.2969 C148.5938,304.2969 148.4688,304.3125 148.3125,304.4219 C148.0625,304.5781 147.9063,304.8594 147.9063,305.1563 C147.9063,305.4063 148.0469,305.6719 148.2656,305.8281 C148.4219,305.9531 148.625,306 149.0313,306 L154.1719,306 C154.9219,306 155.2813,305.7188 155.2813,305.1563 C155.2813,304.875 155.1719,304.625 154.9375,304.4531 C154.7656,304.3281 154.625,304.2969 154.1719,304.2969 L152.4531,304.2969 L152.4531,297.7813 Z " fill="#000000"/><text fill="#000000" font-family="sans-serif" font-size="14" font-style="italic" lengthAdjust="spacing" textLength="97" x="165.5" y="305.8467">IDrawingView</text></g><polygon fill="none" points="197.1081,317,199.1827,338.0878,185.5794,334.7789" style="stroke:#181818;stroke-width:1.0;"/><line style="stroke:#181818;stroke-width:1.0;" x1="192.3811" x2="192" y1="336.4334" y2="338"/><line style="stroke:#181818;stroke-width:1.0;" x1="197.3083" x2="191.326" y1="285" y2="259.0729"/><line style="stroke:#181818;stroke-width:1.0;" x1="208.2651" x2="219.9866" y1="285" y2="259.1856"/><line style="stroke:#181818;stroke-width:1.0;" x1="181.4324" x2="152.3931" y1="285" y2="261.2552"/><!--link Circle to IDrawingView--><g id="link_Circle_IDrawingView"><path codeLine="12" d="M178.615,205.295 C182.243,220.644 186.579,238.9869 191.326,259.0729 " fill="none" id="Circle-to-IDrawingView" style="stroke:#181818;stroke-width:1.0;"/><polygon fill="#181818" points="192.706,264.912,194.5288,255.2333,191.556,260.046,186.7433,257.0733,192.706,264.912" style="stroke:#181818;stroke-width:1.0;"/></g><!--reverse link Circle to DetailedView--><g id="link_Circle_DetailedView"><path codeLine="13" d="M142.8497,212.4776 C124.9977,225.9236 110.768,240.011 99,265 C78.1516,309.272 81.1764,369.3101 84.0565,396.9443 " fill="none" id="Circle-backto-DetailedView" style="stroke:#181818;stroke-width:1.0;"/><polygon fill="none" points="152.435,205.258,145.2358,205.6727,142.8497,212.4776,150.0489,212.0629,152.435,205.258" style="stroke:#181818;stroke-width:1.0;"/></g><!--reverse link Shapes to Circle--><g id="link_Shapes_Circle"><path d="M160,114 C160,114 167.498,150.992 171.892,172.667 " fill="none" id="Shapes-backto-Circle" style="stroke:#181818;stroke-width:1.0;"/></g><!--reverse link IDrawingView to DetailedView--><g id="link_IDrawingView_DetailedView"><path d="M192,338 C192,338 138.718,375.1968 107.706,396.8464 " fill="none" id="IDrawingView-backto-DetailedView" style="stroke:#181818;stroke-width:1.0;"/></g><!--reverse link IDrawingView to BriefView--><g id="link_IDrawingView_BriefView"><path d="M192,338 C192,338 213.495,374.9921 226.09,396.6672 " fill="none" id="IDrawingView-backto-BriefView" style="stroke:#181818;stroke-width:1.0;"/></g><!--link Shapes to IDrawingView--><g id="link_Shapes_IDrawingView"><path codeLine="17" d="M200.74,113.071 C211.761,130.224 223.376,151.724 229,173 C237.136,203.778 230.0026,233.5916 219.9866,259.1856 " fill="none" id="Shapes-to-IDrawingView" style="stroke:#181818;stroke-width:1.0;"/><polygon fill="#181818" points="217.8,264.773,224.8048,257.8496,219.6221,260.1168,217.3549,254.9342,217.8,264.773" style="stroke:#181818;stroke-width:1.0;"/></g><!--link Square to IDrawingView--><g id="link_Square_IDrawingView"><path codeLine="18" d="M81.899,205.064 C101.165,220.422 127.0471,241.0522 152.3931,261.2552 " fill="none" id="Square-to-IDrawingView" style="stroke:#181818;stroke-width:1.0;"/><polygon fill="#181818" points="157.085,264.995,152.5404,256.2573,153.1751,261.8785,147.554,262.5132,157.085,264.995" style="stroke:#181818;stroke-width:1.0;"/></g><!--reverse link Square to DetailedView--><g id="link_Square_DetailedView"><path codeLine="19" d="M63.27,217.0879 C63.6242,243.7899 64.9352,289.076 71,337 C73.6507,357.946 78.7951,381.805 82.313,396.8784 " fill="none" id="Square-backto-DetailedView" style="stroke:#181818;stroke-width:1.0;"/><polygon fill="none" points="63.1108,205.089,59.1907,211.1415,63.27,217.0879,67.19,211.0354,63.1108,205.089" style="stroke:#181818;stroke-width:1.0;"/></g><!--reverse link Shapes to Square--><g id="link_Shapes_Square"><path d="M160,114 C160,114 111.51,150.992 83.0985,172.667 " fill="none" id="Shapes-backto-Square" style="stroke:#181818;stroke-width:1.0;"/></g><!--SRC=[dP71Ri8m44JlV8L_81pw0PLekEI6LAdt9HcS5V7Qh8tIgkBV6rGkRHr3Uboz7U_CkESE1Ywa3-FWzj2uYaUMG4hEMFNdq4WFvKJImZpzXXjh5POIU_aBQ- -2Zto3xK0ncXVbpc97AK5bNREs0pulMRX58XxGlJ76cPLfmg70NtiAY7FmT2Qz7cUPvWDD-NukD5kbaSLU3wooparLFIyN-QgGjD2JmNk2TFcGToiqxC801qcnPBbOyuDlP0qkxEhxT_udMbxmJLWg-0i0]--></g></svg>