<?xml version="1.0" encoding="us-ascii" standalone="no"?><svg xmlns="http://www.w3.org/2000/svg" xmlns:xlink="http://www.w3.org/1999/xlink" contentStyleType="text/css" height="347px" preserveAspectRatio="none" style="width:1472px;height:347px;background:#FFFFFF;" version="1.1" viewBox="0 0 1472 347" width="1472px" zoomAndPan="magnify"><defs/><g><!--cluster AnalyzerTests--><g id="cluster_AnalyzerTests"><path d="M8.5,6 L125.5,6 A3.75,3.75 0 0 1 128,8.5 L135,28.2969 L1242.5,28.2969 A2.5,2.5 0 0 1 1245,30.7969 L1245,337.5 A2.5,2.5 0 0 1 1242.5,340 L8.5,340 A2.5,2.5 0 0 1 6,337.5 L6,8.5 A2.5,2.5 0 0 1 8.5,6 " fill="none" style="stroke:#000000;stroke-width:1.5;"/><line style="stroke:#000000;stroke-width:1.5;" x1="6" x2="135" y1="28.2969" y2="28.2969"/><text fill="#000000" font-family="sans-serif" font-size="14" font-weight="bold" lengthAdjust="spacing" textLength="116" x="10" y="20.9951">AnalyzerTests</text></g><!--cluster Pipeline--><g id="cluster_Pipeline"><path d="M251.5,49 L315.5,49 A3.75,3.75 0 0 1 318,51.5 L325,71.2969 L1218.5,71.2969 A2.5,2.5 0 0 1 1221,73.7969 L1221,313.5 A2.5,2.5 0 0 1 1218.5,316 L251.5,316 A2.5,2.5 0 0 1 249,313.5 L249,51.5 A2.5,2.5 0 0 1 251.5,49 " fill="none" style="stroke:#000000;stroke-width:1.5;"/><line style="stroke:#000000;stroke-width:1.5;" x1="249" x2="325" y1="71.2969" y2="71.2969"/><text fill="#000000" font-family="sans-serif" font-size="14" font-weight="bold" lengthAdjust="spacing" textLength="63" x="253" y="63.9951">Pipeline</text></g><!--class TestUnusedPrivateFields--><g id="elem_TestUnusedPrivateFields"><rect codeLine="7" fill="#F1F1F1" height="32" id="TestUnusedPrivateFields" rx="2.5" ry="2.5" style="stroke:#181818;stroke-width:0.5;" width="207" x="22.5" y="84"/><ellipse cx="37.5" cy="100" fill="#ADD1B2" rx="11" ry="11" style="stroke:#181818;stroke-width:1.0;"/><path d="M39.8438,95.6719 C38.9063,95.2344 38.3125,95.0938 37.4375,95.0938 C34.8125,95.0938 32.8125,97.1719 32.8125,99.8906 L32.8125,101.0156 C32.8125,103.5938 34.9219,105.4844 37.8125,105.4844 C39.0313,105.4844 40.1875,105.1875 40.9375,104.6406 C41.5156,104.2344 41.8438,103.7813 41.8438,103.3906 C41.8438,102.9375 41.4531,102.5469 40.9844,102.5469 C40.7656,102.5469 40.5625,102.625 40.375,102.8125 C39.9219,103.2969 39.9219,103.2969 39.7344,103.3906 C39.3125,103.6563 38.625,103.7813 37.8594,103.7813 C35.8125,103.7813 34.5156,102.6875 34.5156,100.9844 L34.5156,99.8906 C34.5156,98.1094 35.7656,96.7969 37.5,96.7969 C38.0781,96.7969 38.6875,96.9531 39.1563,97.2031 C39.6406,97.4844 39.8125,97.7031 39.9063,98.1094 C39.9688,98.5156 40,98.6406 40.1406,98.7656 C40.2813,98.9063 40.5156,99.0156 40.7344,99.0156 C41,99.0156 41.2656,98.875 41.4375,98.6563 C41.5469,98.5 41.5781,98.3125 41.5781,97.8906 L41.5781,96.4688 C41.5781,96.0313 41.5625,95.9063 41.4688,95.75 C41.3125,95.4844 41.0313,95.3438 40.7344,95.3438 C40.4375,95.3438 40.2344,95.4375 40.0156,95.75 L39.8438,95.6719 Z " fill="#000000"/><text fill="#000000" font-family="sans-serif" font-size="14" lengthAdjust="spacing" textLength="175" x="51.5" y="104.8467">TestUnusedPrivateFields</text></g><!--class TestArrayFieldsShouldNotBeReadOnly--><g id="elem_TestArrayFieldsShouldNotBeReadOnly"><rect codeLine="8" fill="#F1F1F1" height="32" id="TestArrayFieldsShouldNotBeReadOnly" rx="2.5" ry="2.5" style="stroke:#181818;stroke-width:0.5;" width="304" x="265" y="84"/><ellipse cx="280" cy="100" fill="#ADD1B2" rx="11" ry="11" style="stroke:#181818;stroke-width:1.0;"/><path d="M282.3438,95.6719 C281.4063,95.2344 280.8125,95.0938 279.9375,95.0938 C277.3125,95.0938 275.3125,97.1719 275.3125,99.8906 L275.3125,101.0156 C275.3125,103.5938 277.4219,105.4844 280.3125,105.4844 C281.5313,105.4844 282.6875,105.1875 283.4375,104.6406 C284.0156,104.2344 284.3438,103.7813 284.3438,103.3906 C284.3438,102.9375 283.9531,102.5469 283.4844,102.5469 C283.2656,102.5469 283.0625,102.625 282.875,102.8125 C282.4219,103.2969 282.4219,103.2969 282.2344,103.3906 C281.8125,103.6563 281.125,103.7813 280.3594,103.7813 C278.3125,103.7813 277.0156,102.6875 277.0156,100.9844 L277.0156,99.8906 C277.0156,98.1094 278.2656,96.7969 280,96.7969 C280.5781,96.7969 281.1875,96.9531 281.6563,97.2031 C282.1406,97.4844 282.3125,97.7031 282.4063,98.1094 C282.4688,98.5156 282.5,98.6406 282.6406,98.7656 C282.7813,98.9063 283.0156,99.0156 283.2344,99.0156 C283.5,99.0156 283.7656,98.875 283.9375,98.6563 C284.0469,98.5 284.0781,98.3125 284.0781,97.8906 L284.0781,96.4688 C284.0781,96.0313 284.0625,95.9063 283.9688,95.75 C283.8125,95.4844 283.5313,95.3438 283.2344,95.3438 C282.9375,95.3438 282.7344,95.4375 282.5156,95.75 L282.3438,95.6719 Z " fill="#000000"/><text fill="#000000" font-family="sans-serif" font-size="14" lengthAdjust="spacing" textLength="272" x="294" y="104.8467">TestArrayFieldsShouldNotBeReadOnly</text></g><!--class TestAvoidConstructorsInStaticTypesRule--><g id="elem_TestAvoidConstructorsInStaticTypesRule"><rect codeLine="9" fill="#F1F1F1" height="32" id="TestAvoidConstructorsInStaticTypesRule" rx="2.5" ry="2.5" style="stroke:#181818;stroke-width:0.5;" width="327" x="604.5" y="84"/><ellipse cx="619.5" cy="100" fill="#ADD1B2" rx="11" ry="11" style="stroke:#181818;stroke-width:1.0;"/><path d="M621.8438,95.6719 C620.9063,95.2344 620.3125,95.0938 619.4375,95.0938 C616.8125,95.0938 614.8125,97.1719 614.8125,99.8906 L614.8125,101.0156 C614.8125,103.5938 616.9219,105.4844 619.8125,105.4844 C621.0313,105.4844 622.1875,105.1875 622.9375,104.6406 C623.5156,104.2344 623.8438,103.7813 623.8438,103.3906 C623.8438,102.9375 623.4531,102.5469 622.9844,102.5469 C622.7656,102.5469 622.5625,102.625 622.375,102.8125 C621.9219,103.2969 621.9219,103.2969 621.7344,103.3906 C621.3125,103.6563 620.625,103.7813 619.8594,103.7813 C617.8125,103.7813 616.5156,102.6875 616.5156,100.9844 L616.5156,99.8906 C616.5156,98.1094 617.7656,96.7969 619.5,96.7969 C620.0781,96.7969 620.6875,96.9531 621.1563,97.2031 C621.6406,97.4844 621.8125,97.7031 621.9063,98.1094 C621.9688,98.5156 622,98.6406 622.1406,98.7656 C622.2813,98.9063 622.5156,99.0156 622.7344,99.0156 C623,99.0156 623.2656,98.875 623.4375,98.6563 C623.5469,98.5 623.5781,98.3125 623.5781,97.8906 L623.5781,96.4688 C623.5781,96.0313 623.5625,95.9063 623.4688,95.75 C623.3125,95.4844 623.0313,95.3438 622.7344,95.3438 C622.4375,95.3438 622.2344,95.4375 622.0156,95.75 L621.8438,95.6719 Z " fill="#000000"/><text fill="#000000" font-family="sans-serif" font-size="14" lengthAdjust="spacing" textLength="295" x="633.5" y="104.8467">TestAvoidConstructorsInStaticTypesRule</text></g><!--class TestAvoidSwitchStatements--><g id="elem_TestAvoidSwitchStatements"><rect codeLine="10" fill="#F1F1F1" height="32" id="TestAvoidSwitchStatements" rx="2.5" ry="2.5" style="stroke:#181818;stroke-width:0.5;" width="238" x="967" y="84"/><ellipse cx="982" cy="100" fill="#ADD1B2" rx="11" ry="11" style="stroke:#181818;stroke-width:1.0;"/><path d="M984.3438,95.6719 C983.4063,95.2344 982.8125,95.0938 981.9375,95.0938 C979.3125,95.0938 977.3125,97.1719 977.3125,99.8906 L977.3125,101.0156 C977.3125,103.5938 979.4219,105.4844 982.3125,105.4844 C983.5313,105.4844 984.6875,105.1875 985.4375,104.6406 C986.0156,104.2344 986.3438,103.7813 986.3438,103.3906 C986.3438,102.9375 985.9531,102.5469 985.4844,102.5469 C985.2656,102.5469 985.0625,102.625 984.875,102.8125 C984.4219,103.2969 984.4219,103.2969 984.2344,103.3906 C983.8125,103.6563 983.125,103.7813 982.3594,103.7813 C980.3125,103.7813 979.0156,102.6875 979.0156,100.9844 L979.0156,99.8906 C979.0156,98.1094 980.2656,96.7969 982,96.7969 C982.5781,96.7969 983.1875,96.9531 983.6563,97.2031 C984.1406,97.4844 984.3125,97.7031 984.4063,98.1094 C984.4688,98.5156 984.5,98.6406 984.6406,98.7656 C984.7813,98.9063 985.0156,99.0156 985.2344,99.0156 C985.5,99.0156 985.7656,98.875 985.9375,98.6563 C986.0469,98.5 986.0781,98.3125 986.0781,97.8906 L986.0781,96.4688 C986.0781,96.0313 986.0625,95.9063 985.9688,95.75 C985.8125,95.4844 985.5313,95.3438 985.2344,95.3438 C984.9375,95.3438 984.7344,95.4375 984.5156,95.75 L984.3438,95.6719 Z " fill="#000000"/><text fill="#000000" font-family="sans-serif" font-size="14" lengthAdjust="spacing" textLength="206" x="996" y="104.8467">TestAvoidSwitchStatements</text></g><!--class TestClassDiagram--><g id="elem_TestClassDiagram"><rect codeLine="11" fill="#F1F1F1" height="32" id="TestClassDiagram" rx="2.5" ry="2.5" style="stroke:#181818;stroke-width:0.5;" width="160" x="337" y="176"/><ellipse cx="352" cy="192" fill="#ADD1B2" rx="11" ry="11" style="stroke:#181818;stroke-width:1.0;"/><path d="M354.3438,187.6719 C353.4063,187.2344 352.8125,187.0938 351.9375,187.0938 C349.3125,187.0938 347.3125,189.1719 347.3125,191.8906 L347.3125,193.0156 C347.3125,195.5938 349.4219,197.4844 352.3125,197.4844 C353.5313,197.4844 354.6875,197.1875 355.4375,196.6406 C356.0156,196.2344 356.3438,195.7813 356.3438,195.3906 C356.3438,194.9375 355.9531,194.5469 355.4844,194.5469 C355.2656,194.5469 355.0625,194.625 354.875,194.8125 C354.4219,195.2969 354.4219,195.2969 354.2344,195.3906 C353.8125,195.6563 353.125,195.7813 352.3594,195.7813 C350.3125,195.7813 349.0156,194.6875 349.0156,192.9844 L349.0156,191.8906 C349.0156,190.1094 350.2656,188.7969 352,188.7969 C352.5781,188.7969 353.1875,188.9531 353.6563,189.2031 C354.1406,189.4844 354.3125,189.7031 354.4063,190.1094 C354.4688,190.5156 354.5,190.6406 354.6406,190.7656 C354.7813,190.9063 355.0156,191.0156 355.2344,191.0156 C355.5,191.0156 355.7656,190.875 355.9375,190.6563 C356.0469,190.5 356.0781,190.3125 356.0781,189.8906 L356.0781,188.4688 C356.0781,188.0313 356.0625,187.9063 355.9688,187.75 C355.8125,187.4844 355.5313,187.3438 355.2344,187.3438 C354.9375,187.3438 354.7344,187.4375 354.5156,187.75 L354.3438,187.6719 Z " fill="#000000"/><text fill="#000000" font-family="sans-serif" font-size="14" lengthAdjust="spacing" textLength="128" x="366" y="196.8467">TestClassDiagram</text></g><!--class TestClassRelationships--><g id="elem_TestClassRelationships"><rect codeLine="12" fill="#F1F1F1" height="32" id="TestClassRelationships" rx="2.5" ry="2.5" style="stroke:#181818;stroke-width:0.5;" width="197" x="532.5" y="176"/><ellipse cx="547.5" cy="192" fill="#ADD1B2" rx="11" ry="11" style="stroke:#181818;stroke-width:1.0;"/><path d="M549.8438,187.6719 C548.9063,187.2344 548.3125,187.0938 547.4375,187.0938 C544.8125,187.0938 542.8125,189.1719 542.8125,191.8906 L542.8125,193.0156 C542.8125,195.5938 544.9219,197.4844 547.8125,197.4844 C549.0313,197.4844 550.1875,197.1875 550.9375,196.6406 C551.5156,196.2344 551.8438,195.7813 551.8438,195.3906 C551.8438,194.9375 551.4531,194.5469 550.9844,194.5469 C550.7656,194.5469 550.5625,194.625 550.375,194.8125 C549.9219,195.2969 549.9219,195.2969 549.7344,195.3906 C549.3125,195.6563 548.625,195.7813 547.8594,195.7813 C545.8125,195.7813 544.5156,194.6875 544.5156,192.9844 L544.5156,191.8906 C544.5156,190.1094 545.7656,188.7969 547.5,188.7969 C548.0781,188.7969 548.6875,188.9531 549.1563,189.2031 C549.6406,189.4844 549.8125,189.7031 549.9063,190.1094 C549.9688,190.5156 550,190.6406 550.1406,190.7656 C550.2813,190.9063 550.5156,191.0156 550.7344,191.0156 C551,191.0156 551.2656,190.875 551.4375,190.6563 C551.5469,190.5 551.5781,190.3125 551.5781,189.8906 L551.5781,188.4688 C551.5781,188.0313 551.5625,187.9063 551.4688,187.75 C551.3125,187.4844 551.0313,187.3438 550.7344,187.3438 C550.4375,187.3438 550.2344,187.4375 550.0156,187.75 L549.8438,187.6719 Z " fill="#000000"/><text fill="#000000" font-family="sans-serif" font-size="14" lengthAdjust="spacing" textLength="165" x="561.5" y="196.8467">TestClassRelationships</text></g><!--class SampleComplexityTestClass--><g id="elem_SampleComplexityTestClass"><rect codeLine="13" fill="#F1F1F1" height="32" id="SampleComplexityTestClass" rx="2.5" ry="2.5" style="stroke:#181818;stroke-width:0.5;" width="237" x="764.5" y="176"/><ellipse cx="779.5" cy="192" fill="#ADD1B2" rx="11" ry="11" style="stroke:#181818;stroke-width:1.0;"/><path d="M781.8438,187.6719 C780.9063,187.2344 780.3125,187.0938 779.4375,187.0938 C776.8125,187.0938 774.8125,189.1719 774.8125,191.8906 L774.8125,193.0156 C774.8125,195.5938 776.9219,197.4844 779.8125,197.4844 C781.0313,197.4844 782.1875,197.1875 782.9375,196.6406 C783.5156,196.2344 783.8438,195.7813 783.8438,195.3906 C783.8438,194.9375 783.4531,194.5469 782.9844,194.5469 C782.7656,194.5469 782.5625,194.625 782.375,194.8125 C781.9219,195.2969 781.9219,195.2969 781.7344,195.3906 C781.3125,195.6563 780.625,195.7813 779.8594,195.7813 C777.8125,195.7813 776.5156,194.6875 776.5156,192.9844 L776.5156,191.8906 C776.5156,190.1094 777.7656,188.7969 779.5,188.7969 C780.0781,188.7969 780.6875,188.9531 781.1563,189.2031 C781.6406,189.4844 781.8125,189.7031 781.9063,190.1094 C781.9688,190.5156 782,190.6406 782.1406,190.7656 C782.2813,190.9063 782.5156,191.0156 782.7344,191.0156 C783,191.0156 783.2656,190.875 783.4375,190.6563 C783.5469,190.5 783.5781,190.3125 783.5781,189.8906 L783.5781,188.4688 C783.5781,188.0313 783.5625,187.9063 783.4688,187.75 C783.3125,187.4844 783.0313,187.3438 782.7344,187.3438 C782.4375,187.3438 782.2344,187.4375 782.0156,187.75 L781.8438,187.6719 Z " fill="#000000"/><text fill="#000000" font-family="sans-serif" font-size="14" lengthAdjust="spacing" textLength="205" x="793.5" y="196.8467">SampleComplexityTestClass</text></g><!--class TestCyclomaticComplexity--><g id="elem_TestCyclomaticComplexity"><rect codeLine="14" fill="#F1F1F1" height="32" id="TestCyclomaticComplexity" rx="2.5" ry="2.5" style="stroke:#181818;stroke-width:0.5;" width="227" x="303.5" y="268"/><ellipse cx="318.5" cy="284" fill="#ADD1B2" rx="11" ry="11" style="stroke:#181818;stroke-width:1.0;"/><path d="M320.8438,279.6719 C319.9063,279.2344 319.3125,279.0938 318.4375,279.0938 C315.8125,279.0938 313.8125,281.1719 313.8125,283.8906 L313.8125,285.0156 C313.8125,287.5938 315.9219,289.4844 318.8125,289.4844 C320.0313,289.4844 321.1875,289.1875 321.9375,288.6406 C322.5156,288.2344 322.8438,287.7813 322.8438,287.3906 C322.8438,286.9375 322.4531,286.5469 321.9844,286.5469 C321.7656,286.5469 321.5625,286.625 321.375,286.8125 C320.9219,287.2969 320.9219,287.2969 320.7344,287.3906 C320.3125,287.6563 319.625,287.7813 318.8594,287.7813 C316.8125,287.7813 315.5156,286.6875 315.5156,284.9844 L315.5156,283.8906 C315.5156,282.1094 316.7656,280.7969 318.5,280.7969 C319.0781,280.7969 319.6875,280.9531 320.1563,281.2031 C320.6406,281.4844 320.8125,281.7031 320.9063,282.1094 C320.9688,282.5156 321,282.6406 321.1406,282.7656 C321.2813,282.9063 321.5156,283.0156 321.7344,283.0156 C322,283.0156 322.2656,282.875 322.4375,282.6563 C322.5469,282.5 322.5781,282.3125 322.5781,281.8906 L322.5781,280.4688 C322.5781,280.0313 322.5625,279.9063 322.4688,279.75 C322.3125,279.4844 322.0313,279.3438 321.7344,279.3438 C321.4375,279.3438 321.2344,279.4375 321.0156,279.75 L320.8438,279.6719 Z " fill="#000000"/><text fill="#000000" font-family="sans-serif" font-size="14" lengthAdjust="spacing" textLength="195" x="332.5" y="288.8467">TestCyclomaticComplexity</text></g><!--class AutoGeneratedProgram--><g id="elem_AutoGeneratedProgram"><rect codeLine="6" fill="#F1F1F1" height="32" id="AutoGeneratedProgram" rx="2.5" ry="2.5" style="stroke:#181818;stroke-width:0.5;" width="204" x="1261" y="84"/><ellipse cx="1276" cy="100" fill="#ADD1B2" rx="11" ry="11" style="stroke:#181818;stroke-width:1.0;"/><path d="M1278.3438,95.6719 C1277.4063,95.2344 1276.8125,95.0938 1275.9375,95.0938 C1273.3125,95.0938 1271.3125,97.1719 1271.3125,99.8906 L1271.3125,101.0156 C1271.3125,103.5938 1273.4219,105.4844 1276.3125,105.4844 C1277.5313,105.4844 1278.6875,105.1875 1279.4375,104.6406 C1280.0156,104.2344 1280.3438,103.7813 1280.3438,103.3906 C1280.3438,102.9375 1279.9531,102.5469 1279.4844,102.5469 C1279.2656,102.5469 1279.0625,102.625 1278.875,102.8125 C1278.4219,103.2969 1278.4219,103.2969 1278.2344,103.3906 C1277.8125,103.6563 1277.125,103.7813 1276.3594,103.7813 C1274.3125,103.7813 1273.0156,102.6875 1273.0156,100.9844 L1273.0156,99.8906 C1273.0156,98.1094 1274.2656,96.7969 1276,96.7969 C1276.5781,96.7969 1277.1875,96.9531 1277.6563,97.2031 C1278.1406,97.4844 1278.3125,97.7031 1278.4063,98.1094 C1278.4688,98.5156 1278.5,98.6406 1278.6406,98.7656 C1278.7813,98.9063 1279.0156,99.0156 1279.2344,99.0156 C1279.5,99.0156 1279.7656,98.875 1279.9375,98.6563 C1280.0469,98.5 1280.0781,98.3125 1280.0781,97.8906 L1280.0781,96.4688 C1280.0781,96.0313 1280.0625,95.9063 1279.9688,95.75 C1279.8125,95.4844 1279.5313,95.3438 1279.2344,95.3438 C1278.9375,95.3438 1278.7344,95.4375 1278.5156,95.75 L1278.3438,95.6719 Z " fill="#000000"/><text fill="#000000" font-family="sans-serif" font-size="14" lengthAdjust="spacing" textLength="172" x="1290" y="104.8467">AutoGeneratedProgram</text></g><!--SRC=[ZP5DJiD038Ntd28dOC4DGYfGDr0rvG33Z9LOpDWZsoaCLUzEfln9L40sthpFxydF8mPe86KhJOBq2A8N-eIKdRZK3C9JNjC8WkR8GtFrKso7GM1mXapdOiSfi-A7wADJRTh9-1O8n1c4ZV0mquVZfqWkbbUG7QZfPPqFD6dbS3_pDmWnw2_q1ZD493YjjIAklEFzo5CCTspNi0KNxYcMHGvxnj0ngSdaZKNNrDjyfz-L3BgT8YnswP_H_5Yt8G7PeWEw2gpG_L7FER-5UFg4ZfZ_JUbToX7gYoAye9KlbqLnnKTEjOvlWyFn3G00]--></g></svg>