<?xml version="1.0" encoding="us-ascii" standalone="no"?><svg xmlns="http://www.w3.org/2000/svg" xmlns:xlink="http://www.w3.org/1999/xlink" contentStyleType="text/css" height="96px" preserveAspectRatio="none" style="width:477px;height:96px;background:#FFFFFF;" version="1.1" viewBox="0 0 477 96" width="477px" zoomAndPan="magnify"><defs/><g><!--cluster AnalyzerTests--><g id="cluster_AnalyzerTests"><path d="M232.5,6 L349.5,6 A3.75,3.75 0 0 1 352,8.5 L359,28.2969 L467.5,28.2969 A2.5,2.5 0 0 1 470,30.7969 L470,86.5 A2.5,2.5 0 0 1 467.5,89 L232.5,89 A2.5,2.5 0 0 1 230,86.5 L230,8.5 A2.5,2.5 0 0 1 232.5,6 " fill="none" style="stroke:#000000;stroke-width:1.5;"/><line style="stroke:#000000;stroke-width:1.5;" x1="230" x2="359" y1="28.2969" y2="28.2969"/><text fill="#000000" font-family="sans-serif" font-size="14" font-weight="bold" lengthAdjust="spacing" textLength="116" x="234" y="20.9951">AnalyzerTests</text></g><!--class TestUnusedPrivateFields--><g id="elem_TestUnusedPrivateFields"><rect codeLine="7" fill="#F1F1F1" height="32" id="TestUnusedPrivateFields" rx="2.5" ry="2.5" style="stroke:#181818;stroke-width:0.5;" width="207" x="246.5" y="41"/><ellipse cx="261.5" cy="57" fill="#ADD1B2" rx="11" ry="11" style="stroke:#181818;stroke-width:1.0;"/><path d="M263.8438,52.6719 C262.9063,52.2344 262.3125,52.0938 261.4375,52.0938 C258.8125,52.0938 256.8125,54.1719 256.8125,56.8906 L256.8125,58.0156 C256.8125,60.5938 258.9219,62.4844 261.8125,62.4844 C263.0313,62.4844 264.1875,62.1875 264.9375,61.6406 C265.5156,61.2344 265.8438,60.7813 265.8438,60.3906 C265.8438,59.9375 265.4531,59.5469 264.9844,59.5469 C264.7656,59.5469 264.5625,59.625 264.375,59.8125 C263.9219,60.2969 263.9219,60.2969 263.7344,60.3906 C263.3125,60.6563 262.625,60.7813 261.8594,60.7813 C259.8125,60.7813 258.5156,59.6875 258.5156,57.9844 L258.5156,56.8906 C258.5156,55.1094 259.7656,53.7969 261.5,53.7969 C262.0781,53.7969 262.6875,53.9531 263.1563,54.2031 C263.6406,54.4844 263.8125,54.7031 263.9063,55.1094 C263.9688,55.5156 264,55.6406 264.1406,55.7656 C264.2813,55.9063 264.5156,56.0156 264.7344,56.0156 C265,56.0156 265.2656,55.875 265.4375,55.6563 C265.5469,55.5 265.5781,55.3125 265.5781,54.8906 L265.5781,53.4688 C265.5781,53.0313 265.5625,52.9063 265.4688,52.75 C265.3125,52.4844 265.0313,52.3438 264.7344,52.3438 C264.4375,52.3438 264.2344,52.4375 264.0156,52.75 L263.8438,52.6719 Z " fill="#000000"/><text fill="#000000" font-family="sans-serif" font-size="14" lengthAdjust="spacing" textLength="175" x="275.5" y="61.8467">TestUnusedPrivateFields</text></g><!--class AutoGeneratedProgram--><g id="elem_AutoGeneratedProgram"><rect codeLine="6" fill="#F1F1F1" height="32" id="AutoGeneratedProgram" rx="2.5" ry="2.5" style="stroke:#181818;stroke-width:0.5;" width="204" x="7" y="41"/><ellipse cx="22" cy="57" fill="#ADD1B2" rx="11" ry="11" style="stroke:#181818;stroke-width:1.0;"/><path d="M24.3438,52.6719 C23.4063,52.2344 22.8125,52.0938 21.9375,52.0938 C19.3125,52.0938 17.3125,54.1719 17.3125,56.8906 L17.3125,58.0156 C17.3125,60.5938 19.4219,62.4844 22.3125,62.4844 C23.5313,62.4844 24.6875,62.1875 25.4375,61.6406 C26.0156,61.2344 26.3438,60.7813 26.3438,60.3906 C26.3438,59.9375 25.9531,59.5469 25.4844,59.5469 C25.2656,59.5469 25.0625,59.625 24.875,59.8125 C24.4219,60.2969 24.4219,60.2969 24.2344,60.3906 C23.8125,60.6563 23.125,60.7813 22.3594,60.7813 C20.3125,60.7813 19.0156,59.6875 19.0156,57.9844 L19.0156,56.8906 C19.0156,55.1094 20.2656,53.7969 22,53.7969 C22.5781,53.7969 23.1875,53.9531 23.6563,54.2031 C24.1406,54.4844 24.3125,54.7031 24.4063,55.1094 C24.4688,55.5156 24.5,55.6406 24.6406,55.7656 C24.7813,55.9063 25.0156,56.0156 25.2344,56.0156 C25.5,56.0156 25.7656,55.875 25.9375,55.6563 C26.0469,55.5 26.0781,55.3125 26.0781,54.8906 L26.0781,53.4688 C26.0781,53.0313 26.0625,52.9063 25.9688,52.75 C25.8125,52.4844 25.5313,52.3438 25.2344,52.3438 C24.9375,52.3438 24.7344,52.4375 24.5156,52.75 L24.3438,52.6719 Z " fill="#000000"/><text fill="#000000" font-family="sans-serif" font-size="14" lengthAdjust="spacing" textLength="172" x="36" y="61.8467">AutoGeneratedProgram</text></g><!--SRC=[PSen3i8m34RXdLFa10pSe482iJ700KppAxL8dCXEaDggTwULO87bBTyRsCCXbJgwXFI0siwUB8MKaWkQMxd80ELAqiCTVh4BGH6eSfP_FEPKil47-qXchcirdo5Ggl1NpM6zv-MBGd6Se3TOjVtMkpJRFdwj_uaHlStB6m00]--></g></svg>