<?xml version="1.0" encoding="us-ascii" standalone="no"?><svg xmlns="http://www.w3.org/2000/svg" xmlns:xlink="http://www.w3.org/1999/xlink" contentStyleType="text/css" height="96px" preserveAspectRatio="none" style="width:253px;height:96px;background:#FFFFFF;" version="1.1" viewBox="0 0 253 96" width="253px" zoomAndPan="magnify"><defs/><g><!--cluster AnalyzerTests--><g id="cluster_AnalyzerTests"><path d="M8.5,6 L125.5,6 A3.75,3.75 0 0 1 128,8.5 L135,28.2969 L243.5,28.2969 A2.5,2.5 0 0 1 246,30.7969 L246,86.5 A2.5,2.5 0 0 1 243.5,89 L8.5,89 A2.5,2.5 0 0 1 6,86.5 L6,8.5 A2.5,2.5 0 0 1 8.5,6 " fill="none" style="stroke:#000000;stroke-width:1.5;"/><line style="stroke:#000000;stroke-width:1.5;" x1="6" x2="135" y1="28.2969" y2="28.2969"/><text fill="#000000" font-family="sans-serif" font-size="14" font-weight="bold" lengthAdjust="spacing" textLength="116" x="10" y="20.9951">AnalyzerTests</text></g><!--class TestUnusedPrivateFields--><g id="elem_TestUnusedPrivateFields"><rect codeLine="6" fill="#F1F1F1" height="32" id="TestUnusedPrivateFields" rx="2.5" ry="2.5" style="stroke:#181818;stroke-width:0.5;" width="207" x="22.5" y="41"/><ellipse cx="37.5" cy="57" fill="#ADD1B2" rx="11" ry="11" style="stroke:#181818;stroke-width:1.0;"/><path d="M39.8438,52.6719 C38.9063,52.2344 38.3125,52.0938 37.4375,52.0938 C34.8125,52.0938 32.8125,54.1719 32.8125,56.8906 L32.8125,58.0156 C32.8125,60.5938 34.9219,62.4844 37.8125,62.4844 C39.0313,62.4844 40.1875,62.1875 40.9375,61.6406 C41.5156,61.2344 41.8438,60.7813 41.8438,60.3906 C41.8438,59.9375 41.4531,59.5469 40.9844,59.5469 C40.7656,59.5469 40.5625,59.625 40.375,59.8125 C39.9219,60.2969 39.9219,60.2969 39.7344,60.3906 C39.3125,60.6563 38.625,60.7813 37.8594,60.7813 C35.8125,60.7813 34.5156,59.6875 34.5156,57.9844 L34.5156,56.8906 C34.5156,55.1094 35.7656,53.7969 37.5,53.7969 C38.0781,53.7969 38.6875,53.9531 39.1563,54.2031 C39.6406,54.4844 39.8125,54.7031 39.9063,55.1094 C39.9688,55.5156 40,55.6406 40.1406,55.7656 C40.2813,55.9063 40.5156,56.0156 40.7344,56.0156 C41,56.0156 41.2656,55.875 41.4375,55.6563 C41.5469,55.5 41.5781,55.3125 41.5781,54.8906 L41.5781,53.4688 C41.5781,53.0313 41.5625,52.9063 41.4688,52.75 C41.3125,52.4844 41.0313,52.3438 40.7344,52.3438 C40.4375,52.3438 40.2344,52.4375 40.0156,52.75 L39.8438,52.6719 Z " fill="#000000"/><text fill="#000000" font-family="sans-serif" font-size="14" lengthAdjust="spacing" textLength="175" x="51.5" y="61.8467">TestUnusedPrivateFields</text></g><!--SRC=[PSan2W9130NGtbFa11RUO144EmizGDpvp0OdcI6P5NR5kujWvJQlUPCa4BJrXHHwXySk7cADdPMorxcTRO9BPnj1X_ySSdPaxb9jcyUghORySYmSGODnMLRu5T5Z__LcSo1TN9xSSHAK5A_t1m00]--></g></svg>