<?xml version="1.0" encoding="us-ascii" standalone="no"?><svg xmlns="http://www.w3.org/2000/svg" xmlns:xlink="http://www.w3.org/1999/xlink" contentStyleType="text/css" height="289px" preserveAspectRatio="none" style="width:1788px;height:289px;background:#FFFFFF;" version="1.1" viewBox="0 0 1788 289" width="1788px" zoomAndPan="magnify"><defs/><g><!--cluster AnalyzerTests--><g id="cluster_AnalyzerTests"><path d="M8.5,6 L125.5,6 A3.75,3.75 0 0 1 128,8.5 L135,28.2969 L1514.5,28.2969 A2.5,2.5 0 0 1 1517,30.7969 L1517,279.5 A2.5,2.5 0 0 1 1514.5,282 L8.5,282 A2.5,2.5 0 0 1 6,279.5 L6,8.5 A2.5,2.5 0 0 1 8.5,6 " fill="none" style="stroke:#000000;stroke-width:1.5;"/><line style="stroke:#000000;stroke-width:1.5;" x1="6" x2="135" y1="28.2969" y2="28.2969"/><text fill="#000000" font-family="sans-serif" font-size="14" font-weight="bold" lengthAdjust="spacing" textLength="116" x="10" y="20.9951">AnalyzerTests</text></g><!--cluster Pipeline--><g id="cluster_Pipeline"><path d="M251.5,49 L315.5,49 A3.75,3.75 0 0 1 318,51.5 L325,71.2969 L1490.5,71.2969 A2.5,2.5 0 0 1 1493,73.7969 L1493,255.5 A2.5,2.5 0 0 1 1490.5,258 L251.5,258 A2.5,2.5 0 0 1 249,255.5 L249,51.5 A2.5,2.5 0 0 1 251.5,49 " fill="none" style="stroke:#000000;stroke-width:1.5;"/><line style="stroke:#000000;stroke-width:1.5;" x1="249" x2="325" y1="71.2969" y2="71.2969"/><text fill="#000000" font-family="sans-serif" font-size="14" font-weight="bold" lengthAdjust="spacing" textLength="63" x="253" y="63.9951">Pipeline</text></g><!--cluster Mono--><g id="cluster_Mono"><path d="M1543.5,132 L1588.5,132 A3.75,3.75 0 0 1 1591,134.5 L1598,154.2969 L1778.5,154.2969 A2.5,2.5 0 0 1 1781,156.7969 L1781,279.5 A2.5,2.5 0 0 1 1778.5,282 L1543.5,282 A2.5,2.5 0 0 1 1541,279.5 L1541,134.5 A2.5,2.5 0 0 1 1543.5,132 " fill="none" style="stroke:#000000;stroke-width:1.5;"/><line style="stroke:#000000;stroke-width:1.5;" x1="1541" x2="1598" y1="154.2969" y2="154.2969"/><text fill="#000000" font-family="sans-serif" font-size="14" font-weight="bold" lengthAdjust="spacing" textLength="44" x="1545" y="146.9951">Mono</text></g><!--cluster Cecil--><g id="cluster_Cecil"><path d="M1567.5,175 L1606.5,175 A3.75,3.75 0 0 1 1609,177.5 L1616,197.2969 L1754.5,197.2969 A2.5,2.5 0 0 1 1757,199.7969 L1757,255.5 A2.5,2.5 0 0 1 1754.5,258 L1567.5,258 A2.5,2.5 0 0 1 1565,255.5 L1565,177.5 A2.5,2.5 0 0 1 1567.5,175 " fill="none" style="stroke:#000000;stroke-width:1.5;"/><line style="stroke:#000000;stroke-width:1.5;" x1="1565" x2="1616" y1="197.2969" y2="197.2969"/><text fill="#000000" font-family="sans-serif" font-size="14" font-weight="bold" lengthAdjust="spacing" textLength="38" x="1569" y="189.9951">Cecil</text></g><!--class TestUnusedPrivateFields--><g id="elem_TestUnusedPrivateFields"><rect codeLine="6" fill="#F1F1F1" height="32" id="TestUnusedPrivateFields" rx="2.5" ry="2.5" style="stroke:#181818;stroke-width:0.5;" width="207" x="22.5" y="84"/><ellipse cx="37.5" cy="100" fill="#ADD1B2" rx="11" ry="11" style="stroke:#181818;stroke-width:1.0;"/><path d="M39.8438,95.6719 C38.9063,95.2344 38.3125,95.0938 37.4375,95.0938 C34.8125,95.0938 32.8125,97.1719 32.8125,99.8906 L32.8125,101.0156 C32.8125,103.5938 34.9219,105.4844 37.8125,105.4844 C39.0313,105.4844 40.1875,105.1875 40.9375,104.6406 C41.5156,104.2344 41.8438,103.7813 41.8438,103.3906 C41.8438,102.9375 41.4531,102.5469 40.9844,102.5469 C40.7656,102.5469 40.5625,102.625 40.375,102.8125 C39.9219,103.2969 39.9219,103.2969 39.7344,103.3906 C39.3125,103.6563 38.625,103.7813 37.8594,103.7813 C35.8125,103.7813 34.5156,102.6875 34.5156,100.9844 L34.5156,99.8906 C34.5156,98.1094 35.7656,96.7969 37.5,96.7969 C38.0781,96.7969 38.6875,96.9531 39.1563,97.2031 C39.6406,97.4844 39.8125,97.7031 39.9063,98.1094 C39.9688,98.5156 40,98.6406 40.1406,98.7656 C40.2813,98.9063 40.5156,99.0156 40.7344,99.0156 C41,99.0156 41.2656,98.875 41.4375,98.6563 C41.5469,98.5 41.5781,98.3125 41.5781,97.8906 L41.5781,96.4688 C41.5781,96.0313 41.5625,95.9063 41.4688,95.75 C41.3125,95.4844 41.0313,95.3438 40.7344,95.3438 C40.4375,95.3438 40.2344,95.4375 40.0156,95.75 L39.8438,95.6719 Z " fill="#000000"/><text fill="#000000" font-family="sans-serif" font-size="14" lengthAdjust="spacing" textLength="175" x="51.5" y="104.8467">TestUnusedPrivateFields</text></g><!--class TestArrayFieldsShouldNotBeReadOnly--><g id="elem_TestArrayFieldsShouldNotBeReadOnly"><rect codeLine="7" fill="#F1F1F1" height="32" id="TestArrayFieldsShouldNotBeReadOnly" rx="2.5" ry="2.5" style="stroke:#181818;stroke-width:0.5;" width="304" x="265" y="84"/><ellipse cx="280" cy="100" fill="#ADD1B2" rx="11" ry="11" style="stroke:#181818;stroke-width:1.0;"/><path d="M282.3438,95.6719 C281.4063,95.2344 280.8125,95.0938 279.9375,95.0938 C277.3125,95.0938 275.3125,97.1719 275.3125,99.8906 L275.3125,101.0156 C275.3125,103.5938 277.4219,105.4844 280.3125,105.4844 C281.5313,105.4844 282.6875,105.1875 283.4375,104.6406 C284.0156,104.2344 284.3438,103.7813 284.3438,103.3906 C284.3438,102.9375 283.9531,102.5469 283.4844,102.5469 C283.2656,102.5469 283.0625,102.625 282.875,102.8125 C282.4219,103.2969 282.4219,103.2969 282.2344,103.3906 C281.8125,103.6563 281.125,103.7813 280.3594,103.7813 C278.3125,103.7813 277.0156,102.6875 277.0156,100.9844 L277.0156,99.8906 C277.0156,98.1094 278.2656,96.7969 280,96.7969 C280.5781,96.7969 281.1875,96.9531 281.6563,97.2031 C282.1406,97.4844 282.3125,97.7031 282.4063,98.1094 C282.4688,98.5156 282.5,98.6406 282.6406,98.7656 C282.7813,98.9063 283.0156,99.0156 283.2344,99.0156 C283.5,99.0156 283.7656,98.875 283.9375,98.6563 C284.0469,98.5 284.0781,98.3125 284.0781,97.8906 L284.0781,96.4688 C284.0781,96.0313 284.0625,95.9063 283.9688,95.75 C283.8125,95.4844 283.5313,95.3438 283.2344,95.3438 C282.9375,95.3438 282.7344,95.4375 282.5156,95.75 L282.3438,95.6719 Z " fill="#000000"/><text fill="#000000" font-family="sans-serif" font-size="14" lengthAdjust="spacing" textLength="272" x="294" y="104.8467">TestArrayFieldsShouldNotBeReadOnly</text></g><!--class TestAvoidConstructorsInStaticTypesRule--><g id="elem_TestAvoidConstructorsInStaticTypesRule"><rect codeLine="8" fill="#F1F1F1" height="32" id="TestAvoidConstructorsInStaticTypesRule" rx="2.5" ry="2.5" style="stroke:#181818;stroke-width:0.5;" width="327" x="876.5" y="84"/><ellipse cx="891.5" cy="100" fill="#ADD1B2" rx="11" ry="11" style="stroke:#181818;stroke-width:1.0;"/><path d="M893.8438,95.6719 C892.9063,95.2344 892.3125,95.0938 891.4375,95.0938 C888.8125,95.0938 886.8125,97.1719 886.8125,99.8906 L886.8125,101.0156 C886.8125,103.5938 888.9219,105.4844 891.8125,105.4844 C893.0313,105.4844 894.1875,105.1875 894.9375,104.6406 C895.5156,104.2344 895.8438,103.7813 895.8438,103.3906 C895.8438,102.9375 895.4531,102.5469 894.9844,102.5469 C894.7656,102.5469 894.5625,102.625 894.375,102.8125 C893.9219,103.2969 893.9219,103.2969 893.7344,103.3906 C893.3125,103.6563 892.625,103.7813 891.8594,103.7813 C889.8125,103.7813 888.5156,102.6875 888.5156,100.9844 L888.5156,99.8906 C888.5156,98.1094 889.7656,96.7969 891.5,96.7969 C892.0781,96.7969 892.6875,96.9531 893.1563,97.2031 C893.6406,97.4844 893.8125,97.7031 893.9063,98.1094 C893.9688,98.5156 894,98.6406 894.1406,98.7656 C894.2813,98.9063 894.5156,99.0156 894.7344,99.0156 C895,99.0156 895.2656,98.875 895.4375,98.6563 C895.5469,98.5 895.5781,98.3125 895.5781,97.8906 L895.5781,96.4688 C895.5781,96.0313 895.5625,95.9063 895.4688,95.75 C895.3125,95.4844 895.0313,95.3438 894.7344,95.3438 C894.4375,95.3438 894.2344,95.4375 894.0156,95.75 L893.8438,95.6719 Z " fill="#000000"/><text fill="#000000" font-family="sans-serif" font-size="14" lengthAdjust="spacing" textLength="295" x="905.5" y="104.8467">TestAvoidConstructorsInStaticTypesRule</text></g><!--class TestAvoidSwitchStatements--><g id="elem_TestAvoidSwitchStatements"><rect codeLine="9" fill="#F1F1F1" height="32" id="TestAvoidSwitchStatements" rx="2.5" ry="2.5" style="stroke:#181818;stroke-width:0.5;" width="238" x="1239" y="84"/><ellipse cx="1254" cy="100" fill="#ADD1B2" rx="11" ry="11" style="stroke:#181818;stroke-width:1.0;"/><path d="M1256.3438,95.6719 C1255.4063,95.2344 1254.8125,95.0938 1253.9375,95.0938 C1251.3125,95.0938 1249.3125,97.1719 1249.3125,99.8906 L1249.3125,101.0156 C1249.3125,103.5938 1251.4219,105.4844 1254.3125,105.4844 C1255.5313,105.4844 1256.6875,105.1875 1257.4375,104.6406 C1258.0156,104.2344 1258.3438,103.7813 1258.3438,103.3906 C1258.3438,102.9375 1257.9531,102.5469 1257.4844,102.5469 C1257.2656,102.5469 1257.0625,102.625 1256.875,102.8125 C1256.4219,103.2969 1256.4219,103.2969 1256.2344,103.3906 C1255.8125,103.6563 1255.125,103.7813 1254.3594,103.7813 C1252.3125,103.7813 1251.0156,102.6875 1251.0156,100.9844 L1251.0156,99.8906 C1251.0156,98.1094 1252.2656,96.7969 1254,96.7969 C1254.5781,96.7969 1255.1875,96.9531 1255.6563,97.2031 C1256.1406,97.4844 1256.3125,97.7031 1256.4063,98.1094 C1256.4688,98.5156 1256.5,98.6406 1256.6406,98.7656 C1256.7813,98.9063 1257.0156,99.0156 1257.2344,99.0156 C1257.5,99.0156 1257.7656,98.875 1257.9375,98.6563 C1258.0469,98.5 1258.0781,98.3125 1258.0781,97.8906 L1258.0781,96.4688 C1258.0781,96.0313 1258.0625,95.9063 1257.9688,95.75 C1257.8125,95.4844 1257.5313,95.3438 1257.2344,95.3438 C1256.9375,95.3438 1256.7344,95.4375 1256.5156,95.75 L1256.3438,95.6719 Z " fill="#000000"/><text fill="#000000" font-family="sans-serif" font-size="14" lengthAdjust="spacing" textLength="206" x="1268" y="104.8467">TestAvoidSwitchStatements</text></g><!--class TestClassDiagram--><g id="elem_TestClassDiagram"><rect codeLine="10" fill="#F1F1F1" height="32" id="TestClassDiagram" rx="2.5" ry="2.5" style="stroke:#181818;stroke-width:0.5;" width="160" x="337" y="210"/><ellipse cx="352" cy="226" fill="#ADD1B2" rx="11" ry="11" style="stroke:#181818;stroke-width:1.0;"/><path d="M354.3438,221.6719 C353.4063,221.2344 352.8125,221.0938 351.9375,221.0938 C349.3125,221.0938 347.3125,223.1719 347.3125,225.8906 L347.3125,227.0156 C347.3125,229.5938 349.4219,231.4844 352.3125,231.4844 C353.5313,231.4844 354.6875,231.1875 355.4375,230.6406 C356.0156,230.2344 356.3438,229.7813 356.3438,229.3906 C356.3438,228.9375 355.9531,228.5469 355.4844,228.5469 C355.2656,228.5469 355.0625,228.625 354.875,228.8125 C354.4219,229.2969 354.4219,229.2969 354.2344,229.3906 C353.8125,229.6563 353.125,229.7813 352.3594,229.7813 C350.3125,229.7813 349.0156,228.6875 349.0156,226.9844 L349.0156,225.8906 C349.0156,224.1094 350.2656,222.7969 352,222.7969 C352.5781,222.7969 353.1875,222.9531 353.6563,223.2031 C354.1406,223.4844 354.3125,223.7031 354.4063,224.1094 C354.4688,224.5156 354.5,224.6406 354.6406,224.7656 C354.7813,224.9063 355.0156,225.0156 355.2344,225.0156 C355.5,225.0156 355.7656,224.875 355.9375,224.6563 C356.0469,224.5 356.0781,224.3125 356.0781,223.8906 L356.0781,222.4688 C356.0781,222.0313 356.0625,221.9063 355.9688,221.75 C355.8125,221.4844 355.5313,221.3438 355.2344,221.3438 C354.9375,221.3438 354.7344,221.4375 354.5156,221.75 L354.3438,221.6719 Z " fill="#000000"/><text fill="#000000" font-family="sans-serif" font-size="14" lengthAdjust="spacing" textLength="128" x="366" y="230.8467">TestClassDiagram</text></g><!--class TestClassRelationships--><g id="elem_TestClassRelationships"><rect codeLine="11" fill="#F1F1F1" height="32" id="TestClassRelationships" rx="2.5" ry="2.5" style="stroke:#181818;stroke-width:0.5;" width="197" x="532.5" y="210"/><ellipse cx="547.5" cy="226" fill="#ADD1B2" rx="11" ry="11" style="stroke:#181818;stroke-width:1.0;"/><path d="M549.8438,221.6719 C548.9063,221.2344 548.3125,221.0938 547.4375,221.0938 C544.8125,221.0938 542.8125,223.1719 542.8125,225.8906 L542.8125,227.0156 C542.8125,229.5938 544.9219,231.4844 547.8125,231.4844 C549.0313,231.4844 550.1875,231.1875 550.9375,230.6406 C551.5156,230.2344 551.8438,229.7813 551.8438,229.3906 C551.8438,228.9375 551.4531,228.5469 550.9844,228.5469 C550.7656,228.5469 550.5625,228.625 550.375,228.8125 C549.9219,229.2969 549.9219,229.2969 549.7344,229.3906 C549.3125,229.6563 548.625,229.7813 547.8594,229.7813 C545.8125,229.7813 544.5156,228.6875 544.5156,226.9844 L544.5156,225.8906 C544.5156,224.1094 545.7656,222.7969 547.5,222.7969 C548.0781,222.7969 548.6875,222.9531 549.1563,223.2031 C549.6406,223.4844 549.8125,223.7031 549.9063,224.1094 C549.9688,224.5156 550,224.6406 550.1406,224.7656 C550.2813,224.9063 550.5156,225.0156 550.7344,225.0156 C551,225.0156 551.2656,224.875 551.4375,224.6563 C551.5469,224.5 551.5781,224.3125 551.5781,223.8906 L551.5781,222.4688 C551.5781,222.0313 551.5625,221.9063 551.4688,221.75 C551.3125,221.4844 551.0313,221.3438 550.7344,221.3438 C550.4375,221.3438 550.2344,221.4375 550.0156,221.75 L549.8438,221.6719 Z " fill="#000000"/><text fill="#000000" font-family="sans-serif" font-size="14" lengthAdjust="spacing" textLength="165" x="561.5" y="230.8467">TestClassRelationships</text></g><!--class SampleComplexityTestClass--><g id="elem_SampleComplexityTestClass"><rect codeLine="12" fill="#F1F1F1" height="32" id="SampleComplexityTestClass" rx="2.5" ry="2.5" style="stroke:#181818;stroke-width:0.5;" width="237" x="604.5" y="84"/><ellipse cx="619.5" cy="100" fill="#ADD1B2" rx="11" ry="11" style="stroke:#181818;stroke-width:1.0;"/><path d="M621.8438,95.6719 C620.9063,95.2344 620.3125,95.0938 619.4375,95.0938 C616.8125,95.0938 614.8125,97.1719 614.8125,99.8906 L614.8125,101.0156 C614.8125,103.5938 616.9219,105.4844 619.8125,105.4844 C621.0313,105.4844 622.1875,105.1875 622.9375,104.6406 C623.5156,104.2344 623.8438,103.7813 623.8438,103.3906 C623.8438,102.9375 623.4531,102.5469 622.9844,102.5469 C622.7656,102.5469 622.5625,102.625 622.375,102.8125 C621.9219,103.2969 621.9219,103.2969 621.7344,103.3906 C621.3125,103.6563 620.625,103.7813 619.8594,103.7813 C617.8125,103.7813 616.5156,102.6875 616.5156,100.9844 L616.5156,99.8906 C616.5156,98.1094 617.7656,96.7969 619.5,96.7969 C620.0781,96.7969 620.6875,96.9531 621.1563,97.2031 C621.6406,97.4844 621.8125,97.7031 621.9063,98.1094 C621.9688,98.5156 622,98.6406 622.1406,98.7656 C622.2813,98.9063 622.5156,99.0156 622.7344,99.0156 C623,99.0156 623.2656,98.875 623.4375,98.6563 C623.5469,98.5 623.5781,98.3125 623.5781,97.8906 L623.5781,96.4688 C623.5781,96.0313 623.5625,95.9063 623.4688,95.75 C623.3125,95.4844 623.0313,95.3438 622.7344,95.3438 C622.4375,95.3438 622.2344,95.4375 622.0156,95.75 L621.8438,95.6719 Z " fill="#000000"/><text fill="#000000" font-family="sans-serif" font-size="14" lengthAdjust="spacing" textLength="205" x="633.5" y="104.8467">SampleComplexityTestClass</text></g><!--class TestCyclomaticComplexity--><g id="elem_TestCyclomaticComplexity"><rect codeLine="13" fill="#F1F1F1" height="32" id="TestCyclomaticComplexity" rx="2.5" ry="2.5" style="stroke:#181818;stroke-width:0.5;" width="227" x="764.5" y="210"/><ellipse cx="779.5" cy="226" fill="#ADD1B2" rx="11" ry="11" style="stroke:#181818;stroke-width:1.0;"/><path d="M781.8438,221.6719 C780.9063,221.2344 780.3125,221.0938 779.4375,221.0938 C776.8125,221.0938 774.8125,223.1719 774.8125,225.8906 L774.8125,227.0156 C774.8125,229.5938 776.9219,231.4844 779.8125,231.4844 C781.0313,231.4844 782.1875,231.1875 782.9375,230.6406 C783.5156,230.2344 783.8438,229.7813 783.8438,229.3906 C783.8438,228.9375 783.4531,228.5469 782.9844,228.5469 C782.7656,228.5469 782.5625,228.625 782.375,228.8125 C781.9219,229.2969 781.9219,229.2969 781.7344,229.3906 C781.3125,229.6563 780.625,229.7813 779.8594,229.7813 C777.8125,229.7813 776.5156,228.6875 776.5156,226.9844 L776.5156,225.8906 C776.5156,224.1094 777.7656,222.7969 779.5,222.7969 C780.0781,222.7969 780.6875,222.9531 781.1563,223.2031 C781.6406,223.4844 781.8125,223.7031 781.9063,224.1094 C781.9688,224.5156 782,224.6406 782.1406,224.7656 C782.2813,224.9063 782.5156,225.0156 782.7344,225.0156 C783,225.0156 783.2656,224.875 783.4375,224.6563 C783.5469,224.5 783.5781,224.3125 783.5781,223.8906 L783.5781,222.4688 C783.5781,222.0313 783.5625,221.9063 783.4688,221.75 C783.3125,221.4844 783.0313,221.3438 782.7344,221.3438 C782.4375,221.3438 782.2344,221.4375 782.0156,221.75 L781.8438,221.6719 Z " fill="#000000"/><text fill="#000000" font-family="sans-serif" font-size="14" lengthAdjust="spacing" textLength="195" x="793.5" y="230.8467">TestCyclomaticComplexity</text></g><!--class MethodDefinition--><g id="elem_MethodDefinition"><rect fill="#F1F1F1" height="32" id="MethodDefinition" rx="2.5" ry="2.5" style="stroke:#181818;stroke-width:0.5;" width="159" x="1581.5" y="210"/><ellipse cx="1596.5" cy="226" fill="#ADD1B2" rx="11" ry="11" style="stroke:#181818;stroke-width:1.0;"/><path d="M1598.8438,221.6719 C1597.9063,221.2344 1597.3125,221.0938 1596.4375,221.0938 C1593.8125,221.0938 1591.8125,223.1719 1591.8125,225.8906 L1591.8125,227.0156 C1591.8125,229.5938 1593.9219,231.4844 1596.8125,231.4844 C1598.0313,231.4844 1599.1875,231.1875 1599.9375,230.6406 C1600.5156,230.2344 1600.8438,229.7813 1600.8438,229.3906 C1600.8438,228.9375 1600.4531,228.5469 1599.9844,228.5469 C1599.7656,228.5469 1599.5625,228.625 1599.375,228.8125 C1598.9219,229.2969 1598.9219,229.2969 1598.7344,229.3906 C1598.3125,229.6563 1597.625,229.7813 1596.8594,229.7813 C1594.8125,229.7813 1593.5156,228.6875 1593.5156,226.9844 L1593.5156,225.8906 C1593.5156,224.1094 1594.7656,222.7969 1596.5,222.7969 C1597.0781,222.7969 1597.6875,222.9531 1598.1563,223.2031 C1598.6406,223.4844 1598.8125,223.7031 1598.9063,224.1094 C1598.9688,224.5156 1599,224.6406 1599.1406,224.7656 C1599.2813,224.9063 1599.5156,225.0156 1599.7344,225.0156 C1600,225.0156 1600.2656,224.875 1600.4375,224.6563 C1600.5469,224.5 1600.5781,224.3125 1600.5781,223.8906 L1600.5781,222.4688 C1600.5781,222.0313 1600.5625,221.9063 1600.4688,221.75 C1600.3125,221.4844 1600.0313,221.3438 1599.7344,221.3438 C1599.4375,221.3438 1599.2344,221.4375 1599.0156,221.75 L1598.8438,221.6719 Z " fill="#000000"/><text fill="#000000" font-family="sans-serif" font-size="14" lengthAdjust="spacing" textLength="127" x="1610.5" y="230.8467">MethodDefinition</text></g><!--link SampleComplexityTestClass to MethodDefinition--><g id="link_SampleComplexityTestClass_MethodDefinition"><path codeLine="14" d="M841.618,114.77 C847.491,115.236 853.31,115.651 859,116 C894.159,118.156 1459.12,114.368 1493,124 C1553.56,141.215 1609.6794,182.5029 1638.7294,206.184 " fill="none" id="SampleComplexityTestClass-to-MethodDefinition" style="stroke:#181818;stroke-width:1.0;"/><polygon fill="#181818" points="1643.38,209.9751,1638.9315,201.1881,1639.5045,206.8159,1633.8768,207.3889,1643.38,209.9751" style="stroke:#181818;stroke-width:1.0;"/></g><!--SRC=[bL9BJiCm4Drp2b-WMN00f98AgOj2rPG36FkHZB1dB8zJC8YxqnG44Y0HDhDvFysR6SZ38APIJKIyGzOpVI1EDjje-YnZMlE0JCMoWpd_3YxxFgEtXOH_Wgt494eVe0jMrIpPXlgCl8SMRQPvowF2RpCTRC4L8NXzUVsLlQM4G8oJR9cphU_qRf0n-6ifbzZ1-XiETPR3GSYtmbhow8faNNDNZgkuVKtGtHWmswLxfEA6IOq8BhCMQ2V2Ycn_x6isVuTmAbi7Id-cT3QcWEaA0KzKwgVBhBZgWiIfZY-3e-xVMMQnk30ROMbQE0hD1cKGly8zyUaptW00]--></g></svg>