<?xml version="1.0" encoding="us-ascii" standalone="no"?><svg xmlns="http://www.w3.org/2000/svg" xmlns:xlink="http://www.w3.org/1999/xlink" contentStyleType="text/css" height="572px" preserveAspectRatio="none" style="width:2278px;height:572px;background:#FFFFFF;" version="1.1" viewBox="0 0 2278 572" width="2278px" zoomAndPan="magnify"><defs/><g><!--cluster AnalyzerTests--><g id="cluster_AnalyzerTests"><path d="M328.5,6 L445.5,6 A3.75,3.75 0 0 1 448,8.5 L455,28.2969 L1835.5,28.2969 A2.5,2.5 0 0 1 1838,30.7969 L1838,342.5 A2.5,2.5 0 0 1 1835.5,345 L328.5,345 A2.5,2.5 0 0 1 326,342.5 L326,8.5 A2.5,2.5 0 0 1 328.5,6 " fill="none" style="stroke:#000000;stroke-width:1.5;"/><line style="stroke:#000000;stroke-width:1.5;" x1="326" x2="455" y1="28.2969" y2="28.2969"/><text fill="#000000" font-family="sans-serif" font-size="14" font-weight="bold" lengthAdjust="spacing" textLength="116" x="330" y="20.9951">AnalyzerTests</text></g><!--cluster Pipeline--><g id="cluster_Pipeline"><path d="M571.5,49 L635.5,49 A3.75,3.75 0 0 1 638,51.5 L645,71.2969 L1811.5,71.2969 A2.5,2.5 0 0 1 1814,73.7969 L1814,318.5 A2.5,2.5 0 0 1 1811.5,321 L571.5,321 A2.5,2.5 0 0 1 569,318.5 L569,51.5 A2.5,2.5 0 0 1 571.5,49 " fill="none" style="stroke:#000000;stroke-width:1.5;"/><line style="stroke:#000000;stroke-width:1.5;" x1="569" x2="645" y1="71.2969" y2="71.2969"/><text fill="#000000" font-family="sans-serif" font-size="14" font-weight="bold" lengthAdjust="spacing" textLength="63" x="573" y="63.9951">Pipeline</text></g><!--cluster BridgePattern--><g id="cluster_BridgePattern"><path d="M8.5,29 L123.5,29 A3.75,3.75 0 0 1 126,31.5 L133,51.2969 L299.5,51.2969 A2.5,2.5 0 0 1 302,53.7969 L302,562.5 A2.5,2.5 0 0 1 299.5,565 L8.5,565 A2.5,2.5 0 0 1 6,562.5 L6,31.5 A2.5,2.5 0 0 1 8.5,29 " fill="none" style="stroke:#000000;stroke-width:1.5;"/><line style="stroke:#000000;stroke-width:1.5;" x1="6" x2="133" y1="51.2969" y2="51.2969"/><text fill="#000000" font-family="sans-serif" font-size="14" font-weight="bold" lengthAdjust="spacing" textLength="114" x="10" y="43.9951">BridgePattern</text></g><!--cluster Mono--><g id="cluster_Mono"><path d="M1864.5,152 L1909.5,152 A3.75,3.75 0 0 1 1912,154.5 L1919,174.2969 L2268.5,174.2969 A2.5,2.5 0 0 1 2271,176.7969 L2271,366.5 A2.5,2.5 0 0 1 2268.5,369 L1864.5,369 A2.5,2.5 0 0 1 1862,366.5 L1862,154.5 A2.5,2.5 0 0 1 1864.5,152 " fill="none" style="stroke:#000000;stroke-width:1.5;"/><line style="stroke:#000000;stroke-width:1.5;" x1="1862" x2="1919" y1="174.2969" y2="174.2969"/><text fill="#000000" font-family="sans-serif" font-size="14" font-weight="bold" lengthAdjust="spacing" textLength="44" x="1866" y="166.9951">Mono</text></g><!--cluster Cecil--><g id="cluster_Cecil"><path d="M1888.5,195 L1927.5,195 A3.75,3.75 0 0 1 1930,197.5 L1937,217.2969 L2244.5,217.2969 A2.5,2.5 0 0 1 2247,219.7969 L2247,342.5 A2.5,2.5 0 0 1 2244.5,345 L1888.5,345 A2.5,2.5 0 0 1 1886,342.5 L1886,197.5 A2.5,2.5 0 0 1 1888.5,195 " fill="none" style="stroke:#000000;stroke-width:1.5;"/><line style="stroke:#000000;stroke-width:1.5;" x1="1886" x2="1937" y1="217.2969" y2="217.2969"/><text fill="#000000" font-family="sans-serif" font-size="14" font-weight="bold" lengthAdjust="spacing" textLength="38" x="1890" y="209.9951">Cecil</text></g><!--cluster Cil--><g id="cluster_Cil"><path d="M2083.5,238 L2104.5,238 A3.75,3.75 0 0 1 2107,240.5 L2114,260.2969 L2220.5,260.2969 A2.5,2.5 0 0 1 2223,262.7969 L2223,318.5 A2.5,2.5 0 0 1 2220.5,321 L2083.5,321 A2.5,2.5 0 0 1 2081,318.5 L2081,240.5 A2.5,2.5 0 0 1 2083.5,238 " fill="none" style="stroke:#000000;stroke-width:1.5;"/><line style="stroke:#000000;stroke-width:1.5;" x1="2081" x2="2114" y1="260.2969" y2="260.2969"/><text fill="#000000" font-family="sans-serif" font-size="14" font-weight="bold" lengthAdjust="spacing" textLength="20" x="2085" y="252.9951">Cil</text></g><!--class TestUnusedPrivateFields--><g id="elem_TestUnusedPrivateFields"><rect codeLine="6" fill="#F1F1F1" height="32" id="TestUnusedPrivateFields" rx="2.5" ry="2.5" style="stroke:#181818;stroke-width:0.5;" width="207" x="342.5" y="84"/><ellipse cx="357.5" cy="100" fill="#ADD1B2" rx="11" ry="11" style="stroke:#181818;stroke-width:1.0;"/><path d="M359.8438,95.6719 C358.9063,95.2344 358.3125,95.0938 357.4375,95.0938 C354.8125,95.0938 352.8125,97.1719 352.8125,99.8906 L352.8125,101.0156 C352.8125,103.5938 354.9219,105.4844 357.8125,105.4844 C359.0313,105.4844 360.1875,105.1875 360.9375,104.6406 C361.5156,104.2344 361.8438,103.7813 361.8438,103.3906 C361.8438,102.9375 361.4531,102.5469 360.9844,102.5469 C360.7656,102.5469 360.5625,102.625 360.375,102.8125 C359.9219,103.2969 359.9219,103.2969 359.7344,103.3906 C359.3125,103.6563 358.625,103.7813 357.8594,103.7813 C355.8125,103.7813 354.5156,102.6875 354.5156,100.9844 L354.5156,99.8906 C354.5156,98.1094 355.7656,96.7969 357.5,96.7969 C358.0781,96.7969 358.6875,96.9531 359.1563,97.2031 C359.6406,97.4844 359.8125,97.7031 359.9063,98.1094 C359.9688,98.5156 360,98.6406 360.1406,98.7656 C360.2813,98.9063 360.5156,99.0156 360.7344,99.0156 C361,99.0156 361.2656,98.875 361.4375,98.6563 C361.5469,98.5 361.5781,98.3125 361.5781,97.8906 L361.5781,96.4688 C361.5781,96.0313 361.5625,95.9063 361.4688,95.75 C361.3125,95.4844 361.0313,95.3438 360.7344,95.3438 C360.4375,95.3438 360.2344,95.4375 360.0156,95.75 L359.8438,95.6719 Z " fill="#000000"/><text fill="#000000" font-family="sans-serif" font-size="14" lengthAdjust="spacing" textLength="175" x="371.5" y="104.8467">TestUnusedPrivateFields</text></g><!--class TestArrayFieldsShouldNotBeReadOnly--><g id="elem_TestArrayFieldsShouldNotBeReadOnly"><rect codeLine="7" fill="#F1F1F1" height="32" id="TestArrayFieldsShouldNotBeReadOnly" rx="2.5" ry="2.5" style="stroke:#181818;stroke-width:0.5;" width="304" x="585" y="84"/><ellipse cx="600" cy="100" fill="#ADD1B2" rx="11" ry="11" style="stroke:#181818;stroke-width:1.0;"/><path d="M602.3438,95.6719 C601.4063,95.2344 600.8125,95.0938 599.9375,95.0938 C597.3125,95.0938 595.3125,97.1719 595.3125,99.8906 L595.3125,101.0156 C595.3125,103.5938 597.4219,105.4844 600.3125,105.4844 C601.5313,105.4844 602.6875,105.1875 603.4375,104.6406 C604.0156,104.2344 604.3438,103.7813 604.3438,103.3906 C604.3438,102.9375 603.9531,102.5469 603.4844,102.5469 C603.2656,102.5469 603.0625,102.625 602.875,102.8125 C602.4219,103.2969 602.4219,103.2969 602.2344,103.3906 C601.8125,103.6563 601.125,103.7813 600.3594,103.7813 C598.3125,103.7813 597.0156,102.6875 597.0156,100.9844 L597.0156,99.8906 C597.0156,98.1094 598.2656,96.7969 600,96.7969 C600.5781,96.7969 601.1875,96.9531 601.6563,97.2031 C602.1406,97.4844 602.3125,97.7031 602.4063,98.1094 C602.4688,98.5156 602.5,98.6406 602.6406,98.7656 C602.7813,98.9063 603.0156,99.0156 603.2344,99.0156 C603.5,99.0156 603.7656,98.875 603.9375,98.6563 C604.0469,98.5 604.0781,98.3125 604.0781,97.8906 L604.0781,96.4688 C604.0781,96.0313 604.0625,95.9063 603.9688,95.75 C603.8125,95.4844 603.5313,95.3438 603.2344,95.3438 C602.9375,95.3438 602.7344,95.4375 602.5156,95.75 L602.3438,95.6719 Z " fill="#000000"/><text fill="#000000" font-family="sans-serif" font-size="14" lengthAdjust="spacing" textLength="272" x="614" y="104.8467">TestArrayFieldsShouldNotBeReadOnly</text></g><!--class TestAvoidConstructorsInStaticTypesRule--><g id="elem_TestAvoidConstructorsInStaticTypesRule"><rect codeLine="8" fill="#F1F1F1" height="32" id="TestAvoidConstructorsInStaticTypesRule" rx="2.5" ry="2.5" style="stroke:#181818;stroke-width:0.5;" width="327" x="924.5" y="84"/><ellipse cx="939.5" cy="100" fill="#ADD1B2" rx="11" ry="11" style="stroke:#181818;stroke-width:1.0;"/><path d="M941.8438,95.6719 C940.9063,95.2344 940.3125,95.0938 939.4375,95.0938 C936.8125,95.0938 934.8125,97.1719 934.8125,99.8906 L934.8125,101.0156 C934.8125,103.5938 936.9219,105.4844 939.8125,105.4844 C941.0313,105.4844 942.1875,105.1875 942.9375,104.6406 C943.5156,104.2344 943.8438,103.7813 943.8438,103.3906 C943.8438,102.9375 943.4531,102.5469 942.9844,102.5469 C942.7656,102.5469 942.5625,102.625 942.375,102.8125 C941.9219,103.2969 941.9219,103.2969 941.7344,103.3906 C941.3125,103.6563 940.625,103.7813 939.8594,103.7813 C937.8125,103.7813 936.5156,102.6875 936.5156,100.9844 L936.5156,99.8906 C936.5156,98.1094 937.7656,96.7969 939.5,96.7969 C940.0781,96.7969 940.6875,96.9531 941.1563,97.2031 C941.6406,97.4844 941.8125,97.7031 941.9063,98.1094 C941.9688,98.5156 942,98.6406 942.1406,98.7656 C942.2813,98.9063 942.5156,99.0156 942.7344,99.0156 C943,99.0156 943.2656,98.875 943.4375,98.6563 C943.5469,98.5 943.5781,98.3125 943.5781,97.8906 L943.5781,96.4688 C943.5781,96.0313 943.5625,95.9063 943.4688,95.75 C943.3125,95.4844 943.0313,95.3438 942.7344,95.3438 C942.4375,95.3438 942.2344,95.4375 942.0156,95.75 L941.8438,95.6719 Z " fill="#000000"/><text fill="#000000" font-family="sans-serif" font-size="14" lengthAdjust="spacing" textLength="295" x="953.5" y="104.8467">TestAvoidConstructorsInStaticTypesRule</text></g><!--class TestAvoidSwitchStatements--><g id="elem_TestAvoidSwitchStatements"><rect codeLine="9" fill="#F1F1F1" height="32" id="TestAvoidSwitchStatements" rx="2.5" ry="2.5" style="stroke:#181818;stroke-width:0.5;" width="238" x="1287" y="84"/><ellipse cx="1302" cy="100" fill="#ADD1B2" rx="11" ry="11" style="stroke:#181818;stroke-width:1.0;"/><path d="M1304.3438,95.6719 C1303.4063,95.2344 1302.8125,95.0938 1301.9375,95.0938 C1299.3125,95.0938 1297.3125,97.1719 1297.3125,99.8906 L1297.3125,101.0156 C1297.3125,103.5938 1299.4219,105.4844 1302.3125,105.4844 C1303.5313,105.4844 1304.6875,105.1875 1305.4375,104.6406 C1306.0156,104.2344 1306.3438,103.7813 1306.3438,103.3906 C1306.3438,102.9375 1305.9531,102.5469 1305.4844,102.5469 C1305.2656,102.5469 1305.0625,102.625 1304.875,102.8125 C1304.4219,103.2969 1304.4219,103.2969 1304.2344,103.3906 C1303.8125,103.6563 1303.125,103.7813 1302.3594,103.7813 C1300.3125,103.7813 1299.0156,102.6875 1299.0156,100.9844 L1299.0156,99.8906 C1299.0156,98.1094 1300.2656,96.7969 1302,96.7969 C1302.5781,96.7969 1303.1875,96.9531 1303.6563,97.2031 C1304.1406,97.4844 1304.3125,97.7031 1304.4063,98.1094 C1304.4688,98.5156 1304.5,98.6406 1304.6406,98.7656 C1304.7813,98.9063 1305.0156,99.0156 1305.2344,99.0156 C1305.5,99.0156 1305.7656,98.875 1305.9375,98.6563 C1306.0469,98.5 1306.0781,98.3125 1306.0781,97.8906 L1306.0781,96.4688 C1306.0781,96.0313 1306.0625,95.9063 1305.9688,95.75 C1305.8125,95.4844 1305.5313,95.3438 1305.2344,95.3438 C1304.9375,95.3438 1304.7344,95.4375 1304.5156,95.75 L1304.3438,95.6719 Z " fill="#000000"/><text fill="#000000" font-family="sans-serif" font-size="14" lengthAdjust="spacing" textLength="206" x="1316" y="104.8467">TestAvoidSwitchStatements</text></g><!--class TestClassDiagram--><g id="elem_TestClassDiagram"><rect codeLine="10" fill="#F1F1F1" height="32" id="TestClassDiagram" rx="2.5" ry="2.5" style="stroke:#181818;stroke-width:0.5;" width="160" x="657" y="273"/><ellipse cx="672" cy="289" fill="#ADD1B2" rx="11" ry="11" style="stroke:#181818;stroke-width:1.0;"/><path d="M674.3438,284.6719 C673.4063,284.2344 672.8125,284.0938 671.9375,284.0938 C669.3125,284.0938 667.3125,286.1719 667.3125,288.8906 L667.3125,290.0156 C667.3125,292.5938 669.4219,294.4844 672.3125,294.4844 C673.5313,294.4844 674.6875,294.1875 675.4375,293.6406 C676.0156,293.2344 676.3438,292.7813 676.3438,292.3906 C676.3438,291.9375 675.9531,291.5469 675.4844,291.5469 C675.2656,291.5469 675.0625,291.625 674.875,291.8125 C674.4219,292.2969 674.4219,292.2969 674.2344,292.3906 C673.8125,292.6563 673.125,292.7813 672.3594,292.7813 C670.3125,292.7813 669.0156,291.6875 669.0156,289.9844 L669.0156,288.8906 C669.0156,287.1094 670.2656,285.7969 672,285.7969 C672.5781,285.7969 673.1875,285.9531 673.6563,286.2031 C674.1406,286.4844 674.3125,286.7031 674.4063,287.1094 C674.4688,287.5156 674.5,287.6406 674.6406,287.7656 C674.7813,287.9063 675.0156,288.0156 675.2344,288.0156 C675.5,288.0156 675.7656,287.875 675.9375,287.6563 C676.0469,287.5 676.0781,287.3125 676.0781,286.8906 L676.0781,285.4688 C676.0781,285.0313 676.0625,284.9063 675.9688,284.75 C675.8125,284.4844 675.5313,284.3438 675.2344,284.3438 C674.9375,284.3438 674.7344,284.4375 674.5156,284.75 L674.3438,284.6719 Z " fill="#000000"/><text fill="#000000" font-family="sans-serif" font-size="14" lengthAdjust="spacing" textLength="128" x="686" y="293.8467">TestClassDiagram</text></g><!--class TestClassRelationships--><g id="elem_TestClassRelationships"><rect codeLine="11" fill="#F1F1F1" height="32" id="TestClassRelationships" rx="2.5" ry="2.5" style="stroke:#181818;stroke-width:0.5;" width="197" x="852.5" y="273"/><ellipse cx="867.5" cy="289" fill="#ADD1B2" rx="11" ry="11" style="stroke:#181818;stroke-width:1.0;"/><path d="M869.8438,284.6719 C868.9063,284.2344 868.3125,284.0938 867.4375,284.0938 C864.8125,284.0938 862.8125,286.1719 862.8125,288.8906 L862.8125,290.0156 C862.8125,292.5938 864.9219,294.4844 867.8125,294.4844 C869.0313,294.4844 870.1875,294.1875 870.9375,293.6406 C871.5156,293.2344 871.8438,292.7813 871.8438,292.3906 C871.8438,291.9375 871.4531,291.5469 870.9844,291.5469 C870.7656,291.5469 870.5625,291.625 870.375,291.8125 C869.9219,292.2969 869.9219,292.2969 869.7344,292.3906 C869.3125,292.6563 868.625,292.7813 867.8594,292.7813 C865.8125,292.7813 864.5156,291.6875 864.5156,289.9844 L864.5156,288.8906 C864.5156,287.1094 865.7656,285.7969 867.5,285.7969 C868.0781,285.7969 868.6875,285.9531 869.1563,286.2031 C869.6406,286.4844 869.8125,286.7031 869.9063,287.1094 C869.9688,287.5156 870,287.6406 870.1406,287.7656 C870.2813,287.9063 870.5156,288.0156 870.7344,288.0156 C871,288.0156 871.2656,287.875 871.4375,287.6563 C871.5469,287.5 871.5781,287.3125 871.5781,286.8906 L871.5781,285.4688 C871.5781,285.0313 871.5625,284.9063 871.4688,284.75 C871.3125,284.4844 871.0313,284.3438 870.7344,284.3438 C870.4375,284.3438 870.2344,284.4375 870.0156,284.75 L869.8438,284.6719 Z " fill="#000000"/><text fill="#000000" font-family="sans-serif" font-size="14" lengthAdjust="spacing" textLength="165" x="881.5" y="293.8467">TestClassRelationships</text></g><!--class SampleComplexityTestClass--><g id="elem_SampleComplexityTestClass"><rect codeLine="12" fill="#F1F1F1" height="32" id="SampleComplexityTestClass" rx="2.5" ry="2.5" style="stroke:#181818;stroke-width:0.5;" width="237" x="1560.5" y="84"/><ellipse cx="1575.5" cy="100" fill="#ADD1B2" rx="11" ry="11" style="stroke:#181818;stroke-width:1.0;"/><path d="M1577.8438,95.6719 C1576.9063,95.2344 1576.3125,95.0938 1575.4375,95.0938 C1572.8125,95.0938 1570.8125,97.1719 1570.8125,99.8906 L1570.8125,101.0156 C1570.8125,103.5938 1572.9219,105.4844 1575.8125,105.4844 C1577.0313,105.4844 1578.1875,105.1875 1578.9375,104.6406 C1579.5156,104.2344 1579.8438,103.7813 1579.8438,103.3906 C1579.8438,102.9375 1579.4531,102.5469 1578.9844,102.5469 C1578.7656,102.5469 1578.5625,102.625 1578.375,102.8125 C1577.9219,103.2969 1577.9219,103.2969 1577.7344,103.3906 C1577.3125,103.6563 1576.625,103.7813 1575.8594,103.7813 C1573.8125,103.7813 1572.5156,102.6875 1572.5156,100.9844 L1572.5156,99.8906 C1572.5156,98.1094 1573.7656,96.7969 1575.5,96.7969 C1576.0781,96.7969 1576.6875,96.9531 1577.1563,97.2031 C1577.6406,97.4844 1577.8125,97.7031 1577.9063,98.1094 C1577.9688,98.5156 1578,98.6406 1578.1406,98.7656 C1578.2813,98.9063 1578.5156,99.0156 1578.7344,99.0156 C1579,99.0156 1579.2656,98.875 1579.4375,98.6563 C1579.5469,98.5 1579.5781,98.3125 1579.5781,97.8906 L1579.5781,96.4688 C1579.5781,96.0313 1579.5625,95.9063 1579.4688,95.75 C1579.3125,95.4844 1579.0313,95.3438 1578.7344,95.3438 C1578.4375,95.3438 1578.2344,95.4375 1578.0156,95.75 L1577.8438,95.6719 Z " fill="#000000"/><text fill="#000000" font-family="sans-serif" font-size="14" lengthAdjust="spacing" textLength="205" x="1589.5" y="104.8467">SampleComplexityTestClass</text></g><!--class TestCyclomaticComplexity--><g id="elem_TestCyclomaticComplexity"><rect codeLine="13" fill="#F1F1F1" height="32" id="TestCyclomaticComplexity" rx="2.5" ry="2.5" style="stroke:#181818;stroke-width:0.5;" width="227" x="1084.5" y="273"/><ellipse cx="1099.5" cy="289" fill="#ADD1B2" rx="11" ry="11" style="stroke:#181818;stroke-width:1.0;"/><path d="M1101.8438,284.6719 C1100.9063,284.2344 1100.3125,284.0938 1099.4375,284.0938 C1096.8125,284.0938 1094.8125,286.1719 1094.8125,288.8906 L1094.8125,290.0156 C1094.8125,292.5938 1096.9219,294.4844 1099.8125,294.4844 C1101.0313,294.4844 1102.1875,294.1875 1102.9375,293.6406 C1103.5156,293.2344 1103.8438,292.7813 1103.8438,292.3906 C1103.8438,291.9375 1103.4531,291.5469 1102.9844,291.5469 C1102.7656,291.5469 1102.5625,291.625 1102.375,291.8125 C1101.9219,292.2969 1101.9219,292.2969 1101.7344,292.3906 C1101.3125,292.6563 1100.625,292.7813 1099.8594,292.7813 C1097.8125,292.7813 1096.5156,291.6875 1096.5156,289.9844 L1096.5156,288.8906 C1096.5156,287.1094 1097.7656,285.7969 1099.5,285.7969 C1100.0781,285.7969 1100.6875,285.9531 1101.1563,286.2031 C1101.6406,286.4844 1101.8125,286.7031 1101.9063,287.1094 C1101.9688,287.5156 1102,287.6406 1102.1406,287.7656 C1102.2813,287.9063 1102.5156,288.0156 1102.7344,288.0156 C1103,288.0156 1103.2656,287.875 1103.4375,287.6563 C1103.5469,287.5 1103.5781,287.3125 1103.5781,286.8906 L1103.5781,285.4688 C1103.5781,285.0313 1103.5625,284.9063 1103.4688,284.75 C1103.3125,284.4844 1103.0313,284.3438 1102.7344,284.3438 C1102.4375,284.3438 1102.2344,284.4375 1102.0156,284.75 L1101.8438,284.6719 Z " fill="#000000"/><text fill="#000000" font-family="sans-serif" font-size="14" lengthAdjust="spacing" textLength="195" x="1113.5" y="293.8467">TestCyclomaticComplexity</text></g><!--class Circle--><g id="elem_Circle"><rect codeLine="24" fill="#F1F1F1" height="32" id="Circle" rx="2.5" ry="2.5" style="stroke:#181818;stroke-width:0.5;" width="73" x="22.5" y="273"/><ellipse cx="37.5" cy="289" fill="#ADD1B2" rx="11" ry="11" style="stroke:#181818;stroke-width:1.0;"/><path d="M39.8438,284.6719 C38.9063,284.2344 38.3125,284.0938 37.4375,284.0938 C34.8125,284.0938 32.8125,286.1719 32.8125,288.8906 L32.8125,290.0156 C32.8125,292.5938 34.9219,294.4844 37.8125,294.4844 C39.0313,294.4844 40.1875,294.1875 40.9375,293.6406 C41.5156,293.2344 41.8438,292.7813 41.8438,292.3906 C41.8438,291.9375 41.4531,291.5469 40.9844,291.5469 C40.7656,291.5469 40.5625,291.625 40.375,291.8125 C39.9219,292.2969 39.9219,292.2969 39.7344,292.3906 C39.3125,292.6563 38.625,292.7813 37.8594,292.7813 C35.8125,292.7813 34.5156,291.6875 34.5156,289.9844 L34.5156,288.8906 C34.5156,287.1094 35.7656,285.7969 37.5,285.7969 C38.0781,285.7969 38.6875,285.9531 39.1563,286.2031 C39.6406,286.4844 39.8125,286.7031 39.9063,287.1094 C39.9688,287.5156 40,287.6406 40.1406,287.7656 C40.2813,287.9063 40.5156,288.0156 40.7344,288.0156 C41,288.0156 41.2656,287.875 41.4375,287.6563 C41.5469,287.5 41.5781,287.3125 41.5781,286.8906 L41.5781,285.4688 C41.5781,285.0313 41.5625,284.9063 41.4688,284.75 C41.3125,284.4844 41.0313,284.3438 40.7344,284.3438 C40.4375,284.3438 40.2344,284.4375 40.0156,284.75 L39.8438,284.6719 Z " fill="#000000"/><text fill="#000000" font-family="sans-serif" font-size="14" lengthAdjust="spacing" textLength="41" x="51.5" y="293.8467">Circle</text></g><!--class DetailedView--><g id="elem_DetailedView"><rect codeLine="25" fill="#F1F1F1" height="32" id="DetailedView" rx="2.5" ry="2.5" style="stroke:#181818;stroke-width:0.5;" width="127" x="22.5" y="517"/><ellipse cx="37.5" cy="533" fill="#ADD1B2" rx="11" ry="11" style="stroke:#181818;stroke-width:1.0;"/><path d="M39.8438,528.6719 C38.9063,528.2344 38.3125,528.0938 37.4375,528.0938 C34.8125,528.0938 32.8125,530.1719 32.8125,532.8906 L32.8125,534.0156 C32.8125,536.5938 34.9219,538.4844 37.8125,538.4844 C39.0313,538.4844 40.1875,538.1875 40.9375,537.6406 C41.5156,537.2344 41.8438,536.7813 41.8438,536.3906 C41.8438,535.9375 41.4531,535.5469 40.9844,535.5469 C40.7656,535.5469 40.5625,535.625 40.375,535.8125 C39.9219,536.2969 39.9219,536.2969 39.7344,536.3906 C39.3125,536.6563 38.625,536.7813 37.8594,536.7813 C35.8125,536.7813 34.5156,535.6875 34.5156,533.9844 L34.5156,532.8906 C34.5156,531.1094 35.7656,529.7969 37.5,529.7969 C38.0781,529.7969 38.6875,529.9531 39.1563,530.2031 C39.6406,530.4844 39.8125,530.7031 39.9063,531.1094 C39.9688,531.5156 40,531.6406 40.1406,531.7656 C40.2813,531.9063 40.5156,532.0156 40.7344,532.0156 C41,532.0156 41.2656,531.875 41.4375,531.6563 C41.5469,531.5 41.5781,531.3125 41.5781,530.8906 L41.5781,529.4688 C41.5781,529.0313 41.5625,528.9063 41.4688,528.75 C41.3125,528.4844 41.0313,528.3438 40.7344,528.3438 C40.4375,528.3438 40.2344,528.4375 40.0156,528.75 L39.8438,528.6719 Z " fill="#000000"/><text fill="#000000" font-family="sans-serif" font-size="14" lengthAdjust="spacing" textLength="95" x="51.5" y="537.8467">DetailedView</text></g><!--class BriefView--><g id="elem_BriefView"><rect codeLine="26" fill="#F1F1F1" height="32" id="BriefView" rx="2.5" ry="2.5" style="stroke:#181818;stroke-width:0.5;" width="101" x="184.5" y="517"/><ellipse cx="199.5" cy="533" fill="#ADD1B2" rx="11" ry="11" style="stroke:#181818;stroke-width:1.0;"/><path d="M201.8438,528.6719 C200.9063,528.2344 200.3125,528.0938 199.4375,528.0938 C196.8125,528.0938 194.8125,530.1719 194.8125,532.8906 L194.8125,534.0156 C194.8125,536.5938 196.9219,538.4844 199.8125,538.4844 C201.0313,538.4844 202.1875,538.1875 202.9375,537.6406 C203.5156,537.2344 203.8438,536.7813 203.8438,536.3906 C203.8438,535.9375 203.4531,535.5469 202.9844,535.5469 C202.7656,535.5469 202.5625,535.625 202.375,535.8125 C201.9219,536.2969 201.9219,536.2969 201.7344,536.3906 C201.3125,536.6563 200.625,536.7813 199.8594,536.7813 C197.8125,536.7813 196.5156,535.6875 196.5156,533.9844 L196.5156,532.8906 C196.5156,531.1094 197.7656,529.7969 199.5,529.7969 C200.0781,529.7969 200.6875,529.9531 201.1563,530.2031 C201.6406,530.4844 201.8125,530.7031 201.9063,531.1094 C201.9688,531.5156 202,531.6406 202.1406,531.7656 C202.2813,531.9063 202.5156,532.0156 202.7344,532.0156 C203,532.0156 203.2656,531.875 203.4375,531.6563 C203.5469,531.5 203.5781,531.3125 203.5781,530.8906 L203.5781,529.4688 C203.5781,529.0313 203.5625,528.9063 203.4688,528.75 C203.3125,528.4844 203.0313,528.3438 202.7344,528.3438 C202.4375,528.3438 202.2344,528.4375 202.0156,528.75 L201.8438,528.6719 Z " fill="#000000"/><text fill="#000000" font-family="sans-serif" font-size="14" lengthAdjust="spacing" textLength="69" x="213.5" y="537.8467">BriefView</text></g><!--class Shapes--><g id="elem_Shapes"><rect codeLine="17" fill="#F1F1F1" height="32" id="Shapes" rx="2.5" ry="2.5" style="stroke:#181818;stroke-width:0.5;" width="84" x="129" y="84"/><ellipse cx="144" cy="100" fill="#ADD1B2" rx="11" ry="11" style="stroke:#181818;stroke-width:1.0;"/><path d="M146.3438,95.6719 C145.4063,95.2344 144.8125,95.0938 143.9375,95.0938 C141.3125,95.0938 139.3125,97.1719 139.3125,99.8906 L139.3125,101.0156 C139.3125,103.5938 141.4219,105.4844 144.3125,105.4844 C145.5313,105.4844 146.6875,105.1875 147.4375,104.6406 C148.0156,104.2344 148.3438,103.7813 148.3438,103.3906 C148.3438,102.9375 147.9531,102.5469 147.4844,102.5469 C147.2656,102.5469 147.0625,102.625 146.875,102.8125 C146.4219,103.2969 146.4219,103.2969 146.2344,103.3906 C145.8125,103.6563 145.125,103.7813 144.3594,103.7813 C142.3125,103.7813 141.0156,102.6875 141.0156,100.9844 L141.0156,99.8906 C141.0156,98.1094 142.2656,96.7969 144,96.7969 C144.5781,96.7969 145.1875,96.9531 145.6563,97.2031 C146.1406,97.4844 146.3125,97.7031 146.4063,98.1094 C146.4688,98.5156 146.5,98.6406 146.6406,98.7656 C146.7813,98.9063 147.0156,99.0156 147.2344,99.0156 C147.5,99.0156 147.7656,98.875 147.9375,98.6563 C148.0469,98.5 148.0781,98.3125 148.0781,97.8906 L148.0781,96.4688 C148.0781,96.0313 148.0625,95.9063 147.9688,95.75 C147.8125,95.4844 147.5313,95.3438 147.2344,95.3438 C146.9375,95.3438 146.7344,95.4375 146.5156,95.75 L146.3438,95.6719 Z " fill="#000000"/><text fill="#000000" font-family="sans-serif" font-size="14" lengthAdjust="spacing" textLength="52" x="158" y="104.8467">Shapes</text></g><polygon fill="none" points="166.6757,116,168.215,137.1336,154.7,133.4809" style="stroke:#181818;stroke-width:1.0;"/><line style="stroke:#181818;stroke-width:1.0;" x1="161.4575" x2="161" y1="135.3073" y2="137"/><line style="stroke:#181818;stroke-width:1.0;" x1="194.5497" x2="224.006" y1="116" y2="136.013"/><!--class Square--><g id="elem_Square"><rect codeLine="30" fill="#F1F1F1" height="32" id="Square" rx="2.5" ry="2.5" style="stroke:#181818;stroke-width:0.5;" width="81" x="130.5" y="273"/><ellipse cx="145.5" cy="289" fill="#ADD1B2" rx="11" ry="11" style="stroke:#181818;stroke-width:1.0;"/><path d="M147.8438,284.6719 C146.9063,284.2344 146.3125,284.0938 145.4375,284.0938 C142.8125,284.0938 140.8125,286.1719 140.8125,288.8906 L140.8125,290.0156 C140.8125,292.5938 142.9219,294.4844 145.8125,294.4844 C147.0313,294.4844 148.1875,294.1875 148.9375,293.6406 C149.5156,293.2344 149.8438,292.7813 149.8438,292.3906 C149.8438,291.9375 149.4531,291.5469 148.9844,291.5469 C148.7656,291.5469 148.5625,291.625 148.375,291.8125 C147.9219,292.2969 147.9219,292.2969 147.7344,292.3906 C147.3125,292.6563 146.625,292.7813 145.8594,292.7813 C143.8125,292.7813 142.5156,291.6875 142.5156,289.9844 L142.5156,288.8906 C142.5156,287.1094 143.7656,285.7969 145.5,285.7969 C146.0781,285.7969 146.6875,285.9531 147.1563,286.2031 C147.6406,286.4844 147.8125,286.7031 147.9063,287.1094 C147.9688,287.5156 148,287.6406 148.1406,287.7656 C148.2813,287.9063 148.5156,288.0156 148.7344,288.0156 C149,288.0156 149.2656,287.875 149.4375,287.6563 C149.5469,287.5 149.5781,287.3125 149.5781,286.8906 L149.5781,285.4688 C149.5781,285.0313 149.5625,284.9063 149.4688,284.75 C149.3125,284.4844 149.0313,284.3438 148.7344,284.3438 C148.4375,284.3438 148.2344,284.4375 148.0156,284.75 L147.8438,284.6719 Z " fill="#000000"/><text fill="#000000" font-family="sans-serif" font-size="14" lengthAdjust="spacing" textLength="49" x="159.5" y="293.8467">Square</text></g><!--class IDrawingView--><g id="elem_IDrawingView"><rect codeLine="19" fill="#F1F1F1" height="32" id="IDrawingView" rx="2.5" ry="2.5" style="stroke:#181818;stroke-width:0.5;" width="129" x="136.5" y="405"/><ellipse cx="151.5" cy="421" fill="#B4A7E5" rx="11" ry="11" style="stroke:#181818;stroke-width:1.0;"/><path d="M152.4531,417.7813 L154.1719,417.7813 C154.5625,417.7813 154.75,417.75 154.875,417.6719 C155.1406,417.5156 155.2813,417.2344 155.2813,416.9375 C155.2813,416.6719 155.1719,416.4063 154.9375,416.2344 C154.7656,416.125 154.625,416.0938 154.1719,416.0938 L149.0313,416.0938 C148.5938,416.0938 148.4688,416.1094 148.3125,416.2031 C148.0625,416.3594 147.9063,416.6563 147.9063,416.9375 C147.9063,417.2188 148.0469,417.4688 148.2656,417.6406 C148.4219,417.75 148.6094,417.7813 149.0313,417.7813 L150.75,417.7813 L150.75,424.2969 L149.0313,424.2969 C148.5938,424.2969 148.4688,424.3125 148.3125,424.4219 C148.0625,424.5781 147.9063,424.8594 147.9063,425.1563 C147.9063,425.4063 148.0469,425.6719 148.2656,425.8281 C148.4219,425.9531 148.625,426 149.0313,426 L154.1719,426 C154.9219,426 155.2813,425.7188 155.2813,425.1563 C155.2813,424.875 155.1719,424.625 154.9375,424.4531 C154.7656,424.3281 154.625,424.2969 154.1719,424.2969 L152.4531,424.2969 L152.4531,417.7813 Z " fill="#000000"/><text fill="#000000" font-family="sans-serif" font-size="14" font-style="italic" lengthAdjust="spacing" textLength="97" x="165.5" y="425.8467">IDrawingView</text></g><polygon fill="none" points="197.1081,437,199.1827,458.0878,185.5794,454.7789" style="stroke:#181818;stroke-width:1.0;"/><line style="stroke:#181818;stroke-width:1.0;" x1="192.3811" x2="192" y1="456.4334" y2="458"/><line style="stroke:#181818;stroke-width:1.0;" x1="167.4958" x2="117.7916" y1="405" y2="381.2636"/><line style="stroke:#181818;stroke-width:1.0;" x1="211.5776" x2="228.502" y1="405" y2="379.3997"/><line style="stroke:#181818;stroke-width:1.0;" x1="197.3957" x2="191.553" y1="405" y2="379.0636"/><!--class MethodDefinition--><g id="elem_MethodDefinition"><rect fill="#F1F1F1" height="32" id="MethodDefinition" rx="2.5" ry="2.5" style="stroke:#181818;stroke-width:0.5;" width="159" x="1902.5" y="273"/><ellipse cx="1917.5" cy="289" fill="#ADD1B2" rx="11" ry="11" style="stroke:#181818;stroke-width:1.0;"/><path d="M1919.8438,284.6719 C1918.9063,284.2344 1918.3125,284.0938 1917.4375,284.0938 C1914.8125,284.0938 1912.8125,286.1719 1912.8125,288.8906 L1912.8125,290.0156 C1912.8125,292.5938 1914.9219,294.4844 1917.8125,294.4844 C1919.0313,294.4844 1920.1875,294.1875 1920.9375,293.6406 C1921.5156,293.2344 1921.8438,292.7813 1921.8438,292.3906 C1921.8438,291.9375 1921.4531,291.5469 1920.9844,291.5469 C1920.7656,291.5469 1920.5625,291.625 1920.375,291.8125 C1919.9219,292.2969 1919.9219,292.2969 1919.7344,292.3906 C1919.3125,292.6563 1918.625,292.7813 1917.8594,292.7813 C1915.8125,292.7813 1914.5156,291.6875 1914.5156,289.9844 L1914.5156,288.8906 C1914.5156,287.1094 1915.7656,285.7969 1917.5,285.7969 C1918.0781,285.7969 1918.6875,285.9531 1919.1563,286.2031 C1919.6406,286.4844 1919.8125,286.7031 1919.9063,287.1094 C1919.9688,287.5156 1920,287.6406 1920.1406,287.7656 C1920.2813,287.9063 1920.5156,288.0156 1920.7344,288.0156 C1921,288.0156 1921.2656,287.875 1921.4375,287.6563 C1921.5469,287.5 1921.5781,287.3125 1921.5781,286.8906 L1921.5781,285.4688 C1921.5781,285.0313 1921.5625,284.9063 1921.4688,284.75 C1921.3125,284.4844 1921.0313,284.3438 1920.7344,284.3438 C1920.4375,284.3438 1920.2344,284.4375 1920.0156,284.75 L1919.8438,284.6719 Z " fill="#000000"/><text fill="#000000" font-family="sans-serif" font-size="14" lengthAdjust="spacing" textLength="127" x="1931.5" y="293.8467">MethodDefinition</text></g><!--class Instruction--><g id="elem_Instruction"><rect fill="#F1F1F1" height="32" id="Instruction" rx="2.5" ry="2.5" style="stroke:#181818;stroke-width:0.5;" width="110" x="2097" y="273"/><ellipse cx="2112" cy="289" fill="#ADD1B2" rx="11" ry="11" style="stroke:#181818;stroke-width:1.0;"/><path d="M2114.3438,284.6719 C2113.4063,284.2344 2112.8125,284.0938 2111.9375,284.0938 C2109.3125,284.0938 2107.3125,286.1719 2107.3125,288.8906 L2107.3125,290.0156 C2107.3125,292.5938 2109.4219,294.4844 2112.3125,294.4844 C2113.5313,294.4844 2114.6875,294.1875 2115.4375,293.6406 C2116.0156,293.2344 2116.3438,292.7813 2116.3438,292.3906 C2116.3438,291.9375 2115.9531,291.5469 2115.4844,291.5469 C2115.2656,291.5469 2115.0625,291.625 2114.875,291.8125 C2114.4219,292.2969 2114.4219,292.2969 2114.2344,292.3906 C2113.8125,292.6563 2113.125,292.7813 2112.3594,292.7813 C2110.3125,292.7813 2109.0156,291.6875 2109.0156,289.9844 L2109.0156,288.8906 C2109.0156,287.1094 2110.2656,285.7969 2112,285.7969 C2112.5781,285.7969 2113.1875,285.9531 2113.6563,286.2031 C2114.1406,286.4844 2114.3125,286.7031 2114.4063,287.1094 C2114.4688,287.5156 2114.5,287.6406 2114.6406,287.7656 C2114.7813,287.9063 2115.0156,288.0156 2115.2344,288.0156 C2115.5,288.0156 2115.7656,287.875 2115.9375,287.6563 C2116.0469,287.5 2116.0781,287.3125 2116.0781,286.8906 L2116.0781,285.4688 C2116.0781,285.0313 2116.0625,284.9063 2115.9688,284.75 C2115.8125,284.4844 2115.5313,284.3438 2115.2344,284.3438 C2114.9375,284.3438 2114.7344,284.4375 2114.5156,284.75 L2114.3438,284.6719 Z " fill="#000000"/><text fill="#000000" font-family="sans-serif" font-size="14" lengthAdjust="spacing" textLength="78" x="2126" y="293.8467">Instruction</text></g><!--link SampleComplexityTestClass to Instruction--><g id="link_SampleComplexityTestClass_Instruction"><path codeLine="20" d="M1797.57,107.136 C1911.48,114.015 2069.68,126.54 2093,144 C2135.17,175.577 2146.6576,236.6368 2150.0576,266.7848 " fill="none" id="SampleComplexityTestClass-to-Instruction" style="stroke:#181818;stroke-width:1.0;"/><polygon fill="#181818" points="2150.73,272.747,2153.6962,263.3554,2150.1697,267.7785,2145.7466,264.252,2150.73,272.747" style="stroke:#181818;stroke-width:1.0;"/></g><!--link SampleComplexityTestClass to MethodDefinition--><g id="link_SampleComplexityTestClass_MethodDefinition"><path codeLine="21" d="M1744.02,116 C1766.96,122.752 1792.41,131.964 1814,144 C1878.76,180.096 1937.2862,239.207 1964.1762,268.283 " fill="none" id="SampleComplexityTestClass-to-MethodDefinition" style="stroke:#181818;stroke-width:1.0;"/><polygon fill="#181818" points="1968.25,272.688,1965.0759,263.3646,1964.8552,269.0172,1959.2026,268.7964,1968.25,272.688" style="stroke:#181818;stroke-width:1.0;"/></g><!--link Circle to IDrawingView--><g id="link_Circle_IDrawingView"><path codeLine="22" d="M65.1531,305.003 C73.5442,323.897 90.184,356.379 113,377 C116.028,379.736 114.4176,378.7966 117.7916,381.2636 " fill="none" id="Circle-to-IDrawingView" style="stroke:#181818;stroke-width:1.0;"/><polygon fill="#181818" points="122.635,384.805,117.7308,376.264,118.5988,381.8538,113.009,382.7218,122.635,384.805" style="stroke:#181818;stroke-width:1.0;"/></g><!--reverse link Circle to DetailedView--><g id="link_Circle_DetailedView"><path codeLine="23" d="M59.8704,317.2558 C60.8904,346.7118 63.4736,401.406 71,457 C73.8325,477.922 78.9329,501.787 82.3913,516.8681 " fill="none" id="Circle-backto-DetailedView" style="stroke:#181818;stroke-width:1.0;"/><polygon fill="none" points="59.4551,305.263,55.6651,311.3978,59.8704,317.2558,63.6603,311.121,59.4551,305.263" style="stroke:#181818;stroke-width:1.0;"/></g><!--reverse link Shapes to Circle--><g id="link_Shapes_Circle"><path d="M161,137 C161,137 121.393,137.235 113,144 C72.464,176.674 62.3504,243.122 59.8322,272.934 " fill="none" id="Shapes-backto-Circle" style="stroke:#181818;stroke-width:1.0;"/></g><!--reverse link IDrawingView to DetailedView--><g id="link_IDrawingView_DetailedView"><path d="M192,458 C192,458 138.718,495.1968 107.706,516.8464 " fill="none" id="IDrawingView-backto-DetailedView" style="stroke:#181818;stroke-width:1.0;"/></g><!--reverse link IDrawingView to BriefView--><g id="link_IDrawingView_BriefView"><path d="M192,458 C192,458 213.495,494.9921 226.09,516.6672 " fill="none" id="IDrawingView-backto-BriefView" style="stroke:#181818;stroke-width:1.0;"/></g><!--link Shapes to IDrawingView--><g id="link_Shapes_IDrawingView"><path codeLine="27" d="M224.006,136.013 C225.904,138.539 227.591,141.201 229,144 C275.568,236.494 258.473,277.727 229,377 C228.214,379.647 229.664,376.8097 228.502,379.3997 " fill="none" id="Shapes-to-IDrawingView" style="stroke:#181818;stroke-width:1.0;"/><polygon fill="#181818" points="226.046,384.874,233.3796,378.2999,228.0927,380.3121,226.0805,375.0252,226.046,384.874" style="stroke:#181818;stroke-width:1.0;"/></g><!--link Square to IDrawingView--><g id="link_Square_IDrawingView"><path codeLine="28" d="M174.5,305.167 C178.982,324.591 185.54,353.0046 191.553,379.0636 " fill="none" id="Square-to-IDrawingView" style="stroke:#181818;stroke-width:1.0;"/><polygon fill="#181818" points="192.902,384.91,194.776,375.2411,191.7778,380.038,186.9809,377.0398,192.902,384.91" style="stroke:#181818;stroke-width:1.0;"/></g><!--reverse link Square to DetailedView--><g id="link_Square_DetailedView"><path codeLine="29" d="M158.2612,315.7498 C148.6852,334.4228 135.825,355.695 113,377 C107.761,381.89 102.867,378.966 99,385 C72.4578,426.416 78.4164,488.3955 83.0546,516.7968 " fill="none" id="Square-backto-DetailedView" style="stroke:#181818;stroke-width:1.0;"/><polygon fill="none" points="163.737,305.072,157.4398,308.5856,158.2612,315.7498,164.5583,312.2362,163.737,305.072" style="stroke:#181818;stroke-width:1.0;"/></g><!--reverse link Shapes to Square--><g id="link_Shapes_Square"><path d="M161,137 C161,137 167.475,234.776 170.005,272.969 " fill="none" id="Shapes-backto-Square" style="stroke:#181818;stroke-width:1.0;"/></g><!--SRC=[fLFBJiCm4Bpp5Vw1zi0789LKI3q0LGFSbtYQh73MmTvG0kBVITgAPmWfN2nPEpFhdLaNR65GLjgO4kKjGZoATomL1IfD7dnTBQH0O2N9O8w_5cTv7f2JifVlnSINbO-yBsQEOZGp8TSy8LmXQfnsvxNK4NOP-84KPmndu_DBBth95HmBjhHP2DJiu6dXQsSll9vY1RANuffH2W-URU8bQgWpzI4k9DLsbEoggH1NjSDebNJ3cXKT6oL4HmsGT80vKzxwDHg_WjkQ7GkkVksIKbavT2auFB8sRogZsZMPysLdnxl06-yqiCsn95K4cIOSiWzcVIxEeSGEzeQn-G7Ith0UgAS5jO7yLBolANJDMThxcjej_GnOp0DjMFAkmT71Lfd9vCISU_7J11cxTbOtNUnNfitX_uBdqCBRETOil5FiCtVB6fghb-Gd0s4CH6dmg13RdyElAHlkXjx-Ww4d3sx2I8tU1nxerMw1_aOwtE0zSSZWLm00]--></g></svg>