<?xml version="1.0" encoding="us-ascii" standalone="no"?><svg xmlns="http://www.w3.org/2000/svg" xmlns:xlink="http://www.w3.org/1999/xlink" contentStyleType="text/css" height="572px" preserveAspectRatio="none" style="width:2278px;height:572px;background:#FFFFFF;" version="1.1" viewBox="0 0 2278 572" width="2278px" zoomAndPan="magnify"><defs/><g><!--cluster AnalyzerTests--><g id="cluster_AnalyzerTests"><path d="M8.5,6 L125.5,6 A3.75,3.75 0 0 1 128,8.5 L135,28.2969 L1515.5,28.2969 A2.5,2.5 0 0 1 1518,30.7969 L1518,342.5 A2.5,2.5 0 0 1 1515.5,345 L8.5,345 A2.5,2.5 0 0 1 6,342.5 L6,8.5 A2.5,2.5 0 0 1 8.5,6 " fill="none" style="stroke:#000000;stroke-width:1.5;"/><line style="stroke:#000000;stroke-width:1.5;" x1="6" x2="135" y1="28.2969" y2="28.2969"/><text fill="#000000" font-family="sans-serif" font-size="14" font-weight="bold" lengthAdjust="spacing" textLength="116" x="10" y="20.9951">AnalyzerTests</text></g><!--cluster Pipeline--><g id="cluster_Pipeline"><path d="M251.5,49 L315.5,49 A3.75,3.75 0 0 1 318,51.5 L325,71.2969 L1491.5,71.2969 A2.5,2.5 0 0 1 1494,73.7969 L1494,318.5 A2.5,2.5 0 0 1 1491.5,321 L251.5,321 A2.5,2.5 0 0 1 249,318.5 L249,51.5 A2.5,2.5 0 0 1 251.5,49 " fill="none" style="stroke:#000000;stroke-width:1.5;"/><line style="stroke:#000000;stroke-width:1.5;" x1="249" x2="325" y1="71.2969" y2="71.2969"/><text fill="#000000" font-family="sans-serif" font-size="14" font-weight="bold" lengthAdjust="spacing" textLength="63" x="253" y="63.9951">Pipeline</text></g><!--cluster BridgePattern--><g id="cluster_BridgePattern"><path d="M1977.5,29 L2092.5,29 A3.75,3.75 0 0 1 2095,31.5 L2102,51.2969 L2268.5,51.2969 A2.5,2.5 0 0 1 2271,53.7969 L2271,562.5 A2.5,2.5 0 0 1 2268.5,565 L1977.5,565 A2.5,2.5 0 0 1 1975,562.5 L1975,31.5 A2.5,2.5 0 0 1 1977.5,29 " fill="none" style="stroke:#000000;stroke-width:1.5;"/><line style="stroke:#000000;stroke-width:1.5;" x1="1975" x2="2102" y1="51.2969" y2="51.2969"/><text fill="#000000" font-family="sans-serif" font-size="14" font-weight="bold" lengthAdjust="spacing" textLength="114" x="1979" y="43.9951">BridgePattern</text></g><!--cluster Mono--><g id="cluster_Mono"><path d="M1544.5,152 L1589.5,152 A3.75,3.75 0 0 1 1592,154.5 L1599,174.2969 L1948.5,174.2969 A2.5,2.5 0 0 1 1951,176.7969 L1951,366.5 A2.5,2.5 0 0 1 1948.5,369 L1544.5,369 A2.5,2.5 0 0 1 1542,366.5 L1542,154.5 A2.5,2.5 0 0 1 1544.5,152 " fill="none" style="stroke:#000000;stroke-width:1.5;"/><line style="stroke:#000000;stroke-width:1.5;" x1="1542" x2="1599" y1="174.2969" y2="174.2969"/><text fill="#000000" font-family="sans-serif" font-size="14" font-weight="bold" lengthAdjust="spacing" textLength="44" x="1546" y="166.9951">Mono</text></g><!--cluster Cecil--><g id="cluster_Cecil"><path d="M1568.5,195 L1607.5,195 A3.75,3.75 0 0 1 1610,197.5 L1617,217.2969 L1924.5,217.2969 A2.5,2.5 0 0 1 1927,219.7969 L1927,342.5 A2.5,2.5 0 0 1 1924.5,345 L1568.5,345 A2.5,2.5 0 0 1 1566,342.5 L1566,197.5 A2.5,2.5 0 0 1 1568.5,195 " fill="none" style="stroke:#000000;stroke-width:1.5;"/><line style="stroke:#000000;stroke-width:1.5;" x1="1566" x2="1617" y1="217.2969" y2="217.2969"/><text fill="#000000" font-family="sans-serif" font-size="14" font-weight="bold" lengthAdjust="spacing" textLength="38" x="1570" y="209.9951">Cecil</text></g><!--cluster Cil--><g id="cluster_Cil"><path d="M1763.5,238 L1784.5,238 A3.75,3.75 0 0 1 1787,240.5 L1794,260.2969 L1900.5,260.2969 A2.5,2.5 0 0 1 1903,262.7969 L1903,318.5 A2.5,2.5 0 0 1 1900.5,321 L1763.5,321 A2.5,2.5 0 0 1 1761,318.5 L1761,240.5 A2.5,2.5 0 0 1 1763.5,238 " fill="none" style="stroke:#000000;stroke-width:1.5;"/><line style="stroke:#000000;stroke-width:1.5;" x1="1761" x2="1794" y1="260.2969" y2="260.2969"/><text fill="#000000" font-family="sans-serif" font-size="14" font-weight="bold" lengthAdjust="spacing" textLength="20" x="1765" y="252.9951">Cil</text></g><!--class TestUnusedPrivateFields--><g id="elem_TestUnusedPrivateFields"><rect codeLine="7" fill="#F1F1F1" height="32" id="TestUnusedPrivateFields" rx="2.5" ry="2.5" style="stroke:#181818;stroke-width:0.5;" width="207" x="22.5" y="84"/><ellipse cx="37.5" cy="100" fill="#ADD1B2" rx="11" ry="11" style="stroke:#181818;stroke-width:1.0;"/><path d="M39.8438,95.6719 C38.9063,95.2344 38.3125,95.0938 37.4375,95.0938 C34.8125,95.0938 32.8125,97.1719 32.8125,99.8906 L32.8125,101.0156 C32.8125,103.5938 34.9219,105.4844 37.8125,105.4844 C39.0313,105.4844 40.1875,105.1875 40.9375,104.6406 C41.5156,104.2344 41.8438,103.7813 41.8438,103.3906 C41.8438,102.9375 41.4531,102.5469 40.9844,102.5469 C40.7656,102.5469 40.5625,102.625 40.375,102.8125 C39.9219,103.2969 39.9219,103.2969 39.7344,103.3906 C39.3125,103.6563 38.625,103.7813 37.8594,103.7813 C35.8125,103.7813 34.5156,102.6875 34.5156,100.9844 L34.5156,99.8906 C34.5156,98.1094 35.7656,96.7969 37.5,96.7969 C38.0781,96.7969 38.6875,96.9531 39.1563,97.2031 C39.6406,97.4844 39.8125,97.7031 39.9063,98.1094 C39.9688,98.5156 40,98.6406 40.1406,98.7656 C40.2813,98.9063 40.5156,99.0156 40.7344,99.0156 C41,99.0156 41.2656,98.875 41.4375,98.6563 C41.5469,98.5 41.5781,98.3125 41.5781,97.8906 L41.5781,96.4688 C41.5781,96.0313 41.5625,95.9063 41.4688,95.75 C41.3125,95.4844 41.0313,95.3438 40.7344,95.3438 C40.4375,95.3438 40.2344,95.4375 40.0156,95.75 L39.8438,95.6719 Z " fill="#000000"/><text fill="#000000" font-family="sans-serif" font-size="14" lengthAdjust="spacing" textLength="175" x="51.5" y="104.8467">TestUnusedPrivateFields</text></g><!--class TestArrayFieldsShouldNotBeReadOnly--><g id="elem_TestArrayFieldsShouldNotBeReadOnly"><rect codeLine="8" fill="#F1F1F1" height="32" id="TestArrayFieldsShouldNotBeReadOnly" rx="2.5" ry="2.5" style="stroke:#181818;stroke-width:0.5;" width="304" x="265" y="84"/><ellipse cx="280" cy="100" fill="#ADD1B2" rx="11" ry="11" style="stroke:#181818;stroke-width:1.0;"/><path d="M282.3438,95.6719 C281.4063,95.2344 280.8125,95.0938 279.9375,95.0938 C277.3125,95.0938 275.3125,97.1719 275.3125,99.8906 L275.3125,101.0156 C275.3125,103.5938 277.4219,105.4844 280.3125,105.4844 C281.5313,105.4844 282.6875,105.1875 283.4375,104.6406 C284.0156,104.2344 284.3438,103.7813 284.3438,103.3906 C284.3438,102.9375 283.9531,102.5469 283.4844,102.5469 C283.2656,102.5469 283.0625,102.625 282.875,102.8125 C282.4219,103.2969 282.4219,103.2969 282.2344,103.3906 C281.8125,103.6563 281.125,103.7813 280.3594,103.7813 C278.3125,103.7813 277.0156,102.6875 277.0156,100.9844 L277.0156,99.8906 C277.0156,98.1094 278.2656,96.7969 280,96.7969 C280.5781,96.7969 281.1875,96.9531 281.6563,97.2031 C282.1406,97.4844 282.3125,97.7031 282.4063,98.1094 C282.4688,98.5156 282.5,98.6406 282.6406,98.7656 C282.7813,98.9063 283.0156,99.0156 283.2344,99.0156 C283.5,99.0156 283.7656,98.875 283.9375,98.6563 C284.0469,98.5 284.0781,98.3125 284.0781,97.8906 L284.0781,96.4688 C284.0781,96.0313 284.0625,95.9063 283.9688,95.75 C283.8125,95.4844 283.5313,95.3438 283.2344,95.3438 C282.9375,95.3438 282.7344,95.4375 282.5156,95.75 L282.3438,95.6719 Z " fill="#000000"/><text fill="#000000" font-family="sans-serif" font-size="14" lengthAdjust="spacing" textLength="272" x="294" y="104.8467">TestArrayFieldsShouldNotBeReadOnly</text></g><!--class TestAvoidConstructorsInStaticTypesRule--><g id="elem_TestAvoidConstructorsInStaticTypesRule"><rect codeLine="9" fill="#F1F1F1" height="32" id="TestAvoidConstructorsInStaticTypesRule" rx="2.5" ry="2.5" style="stroke:#181818;stroke-width:0.5;" width="327" x="604.5" y="84"/><ellipse cx="619.5" cy="100" fill="#ADD1B2" rx="11" ry="11" style="stroke:#181818;stroke-width:1.0;"/><path d="M621.8438,95.6719 C620.9063,95.2344 620.3125,95.0938 619.4375,95.0938 C616.8125,95.0938 614.8125,97.1719 614.8125,99.8906 L614.8125,101.0156 C614.8125,103.5938 616.9219,105.4844 619.8125,105.4844 C621.0313,105.4844 622.1875,105.1875 622.9375,104.6406 C623.5156,104.2344 623.8438,103.7813 623.8438,103.3906 C623.8438,102.9375 623.4531,102.5469 622.9844,102.5469 C622.7656,102.5469 622.5625,102.625 622.375,102.8125 C621.9219,103.2969 621.9219,103.2969 621.7344,103.3906 C621.3125,103.6563 620.625,103.7813 619.8594,103.7813 C617.8125,103.7813 616.5156,102.6875 616.5156,100.9844 L616.5156,99.8906 C616.5156,98.1094 617.7656,96.7969 619.5,96.7969 C620.0781,96.7969 620.6875,96.9531 621.1563,97.2031 C621.6406,97.4844 621.8125,97.7031 621.9063,98.1094 C621.9688,98.5156 622,98.6406 622.1406,98.7656 C622.2813,98.9063 622.5156,99.0156 622.7344,99.0156 C623,99.0156 623.2656,98.875 623.4375,98.6563 C623.5469,98.5 623.5781,98.3125 623.5781,97.8906 L623.5781,96.4688 C623.5781,96.0313 623.5625,95.9063 623.4688,95.75 C623.3125,95.4844 623.0313,95.3438 622.7344,95.3438 C622.4375,95.3438 622.2344,95.4375 622.0156,95.75 L621.8438,95.6719 Z " fill="#000000"/><text fill="#000000" font-family="sans-serif" font-size="14" lengthAdjust="spacing" textLength="295" x="633.5" y="104.8467">TestAvoidConstructorsInStaticTypesRule</text></g><!--class TestAvoidSwitchStatements--><g id="elem_TestAvoidSwitchStatements"><rect codeLine="10" fill="#F1F1F1" height="32" id="TestAvoidSwitchStatements" rx="2.5" ry="2.5" style="stroke:#181818;stroke-width:0.5;" width="238" x="967" y="84"/><ellipse cx="982" cy="100" fill="#ADD1B2" rx="11" ry="11" style="stroke:#181818;stroke-width:1.0;"/><path d="M984.3438,95.6719 C983.4063,95.2344 982.8125,95.0938 981.9375,95.0938 C979.3125,95.0938 977.3125,97.1719 977.3125,99.8906 L977.3125,101.0156 C977.3125,103.5938 979.4219,105.4844 982.3125,105.4844 C983.5313,105.4844 984.6875,105.1875 985.4375,104.6406 C986.0156,104.2344 986.3438,103.7813 986.3438,103.3906 C986.3438,102.9375 985.9531,102.5469 985.4844,102.5469 C985.2656,102.5469 985.0625,102.625 984.875,102.8125 C984.4219,103.2969 984.4219,103.2969 984.2344,103.3906 C983.8125,103.6563 983.125,103.7813 982.3594,103.7813 C980.3125,103.7813 979.0156,102.6875 979.0156,100.9844 L979.0156,99.8906 C979.0156,98.1094 980.2656,96.7969 982,96.7969 C982.5781,96.7969 983.1875,96.9531 983.6563,97.2031 C984.1406,97.4844 984.3125,97.7031 984.4063,98.1094 C984.4688,98.5156 984.5,98.6406 984.6406,98.7656 C984.7813,98.9063 985.0156,99.0156 985.2344,99.0156 C985.5,99.0156 985.7656,98.875 985.9375,98.6563 C986.0469,98.5 986.0781,98.3125 986.0781,97.8906 L986.0781,96.4688 C986.0781,96.0313 986.0625,95.9063 985.9688,95.75 C985.8125,95.4844 985.5313,95.3438 985.2344,95.3438 C984.9375,95.3438 984.7344,95.4375 984.5156,95.75 L984.3438,95.6719 Z " fill="#000000"/><text fill="#000000" font-family="sans-serif" font-size="14" lengthAdjust="spacing" textLength="206" x="996" y="104.8467">TestAvoidSwitchStatements</text></g><!--class TestClassDiagram--><g id="elem_TestClassDiagram"><rect codeLine="11" fill="#F1F1F1" height="32" id="TestClassDiagram" rx="2.5" ry="2.5" style="stroke:#181818;stroke-width:0.5;" width="160" x="337" y="273"/><ellipse cx="352" cy="289" fill="#ADD1B2" rx="11" ry="11" style="stroke:#181818;stroke-width:1.0;"/><path d="M354.3438,284.6719 C353.4063,284.2344 352.8125,284.0938 351.9375,284.0938 C349.3125,284.0938 347.3125,286.1719 347.3125,288.8906 L347.3125,290.0156 C347.3125,292.5938 349.4219,294.4844 352.3125,294.4844 C353.5313,294.4844 354.6875,294.1875 355.4375,293.6406 C356.0156,293.2344 356.3438,292.7813 356.3438,292.3906 C356.3438,291.9375 355.9531,291.5469 355.4844,291.5469 C355.2656,291.5469 355.0625,291.625 354.875,291.8125 C354.4219,292.2969 354.4219,292.2969 354.2344,292.3906 C353.8125,292.6563 353.125,292.7813 352.3594,292.7813 C350.3125,292.7813 349.0156,291.6875 349.0156,289.9844 L349.0156,288.8906 C349.0156,287.1094 350.2656,285.7969 352,285.7969 C352.5781,285.7969 353.1875,285.9531 353.6563,286.2031 C354.1406,286.4844 354.3125,286.7031 354.4063,287.1094 C354.4688,287.5156 354.5,287.6406 354.6406,287.7656 C354.7813,287.9063 355.0156,288.0156 355.2344,288.0156 C355.5,288.0156 355.7656,287.875 355.9375,287.6563 C356.0469,287.5 356.0781,287.3125 356.0781,286.8906 L356.0781,285.4688 C356.0781,285.0313 356.0625,284.9063 355.9688,284.75 C355.8125,284.4844 355.5313,284.3438 355.2344,284.3438 C354.9375,284.3438 354.7344,284.4375 354.5156,284.75 L354.3438,284.6719 Z " fill="#000000"/><text fill="#000000" font-family="sans-serif" font-size="14" lengthAdjust="spacing" textLength="128" x="366" y="293.8467">TestClassDiagram</text></g><!--class TestClassRelationships--><g id="elem_TestClassRelationships"><rect codeLine="12" fill="#F1F1F1" height="32" id="TestClassRelationships" rx="2.5" ry="2.5" style="stroke:#181818;stroke-width:0.5;" width="197" x="532.5" y="273"/><ellipse cx="547.5" cy="289" fill="#ADD1B2" rx="11" ry="11" style="stroke:#181818;stroke-width:1.0;"/><path d="M549.8438,284.6719 C548.9063,284.2344 548.3125,284.0938 547.4375,284.0938 C544.8125,284.0938 542.8125,286.1719 542.8125,288.8906 L542.8125,290.0156 C542.8125,292.5938 544.9219,294.4844 547.8125,294.4844 C549.0313,294.4844 550.1875,294.1875 550.9375,293.6406 C551.5156,293.2344 551.8438,292.7813 551.8438,292.3906 C551.8438,291.9375 551.4531,291.5469 550.9844,291.5469 C550.7656,291.5469 550.5625,291.625 550.375,291.8125 C549.9219,292.2969 549.9219,292.2969 549.7344,292.3906 C549.3125,292.6563 548.625,292.7813 547.8594,292.7813 C545.8125,292.7813 544.5156,291.6875 544.5156,289.9844 L544.5156,288.8906 C544.5156,287.1094 545.7656,285.7969 547.5,285.7969 C548.0781,285.7969 548.6875,285.9531 549.1563,286.2031 C549.6406,286.4844 549.8125,286.7031 549.9063,287.1094 C549.9688,287.5156 550,287.6406 550.1406,287.7656 C550.2813,287.9063 550.5156,288.0156 550.7344,288.0156 C551,288.0156 551.2656,287.875 551.4375,287.6563 C551.5469,287.5 551.5781,287.3125 551.5781,286.8906 L551.5781,285.4688 C551.5781,285.0313 551.5625,284.9063 551.4688,284.75 C551.3125,284.4844 551.0313,284.3438 550.7344,284.3438 C550.4375,284.3438 550.2344,284.4375 550.0156,284.75 L549.8438,284.6719 Z " fill="#000000"/><text fill="#000000" font-family="sans-serif" font-size="14" lengthAdjust="spacing" textLength="165" x="561.5" y="293.8467">TestClassRelationships</text></g><!--class SampleComplexityTestClass--><g id="elem_SampleComplexityTestClass"><rect codeLine="13" fill="#F1F1F1" height="32" id="SampleComplexityTestClass" rx="2.5" ry="2.5" style="stroke:#181818;stroke-width:0.5;" width="237" x="1240.5" y="84"/><ellipse cx="1255.5" cy="100" fill="#ADD1B2" rx="11" ry="11" style="stroke:#181818;stroke-width:1.0;"/><path d="M1257.8438,95.6719 C1256.9063,95.2344 1256.3125,95.0938 1255.4375,95.0938 C1252.8125,95.0938 1250.8125,97.1719 1250.8125,99.8906 L1250.8125,101.0156 C1250.8125,103.5938 1252.9219,105.4844 1255.8125,105.4844 C1257.0313,105.4844 1258.1875,105.1875 1258.9375,104.6406 C1259.5156,104.2344 1259.8438,103.7813 1259.8438,103.3906 C1259.8438,102.9375 1259.4531,102.5469 1258.9844,102.5469 C1258.7656,102.5469 1258.5625,102.625 1258.375,102.8125 C1257.9219,103.2969 1257.9219,103.2969 1257.7344,103.3906 C1257.3125,103.6563 1256.625,103.7813 1255.8594,103.7813 C1253.8125,103.7813 1252.5156,102.6875 1252.5156,100.9844 L1252.5156,99.8906 C1252.5156,98.1094 1253.7656,96.7969 1255.5,96.7969 C1256.0781,96.7969 1256.6875,96.9531 1257.1563,97.2031 C1257.6406,97.4844 1257.8125,97.7031 1257.9063,98.1094 C1257.9688,98.5156 1258,98.6406 1258.1406,98.7656 C1258.2813,98.9063 1258.5156,99.0156 1258.7344,99.0156 C1259,99.0156 1259.2656,98.875 1259.4375,98.6563 C1259.5469,98.5 1259.5781,98.3125 1259.5781,97.8906 L1259.5781,96.4688 C1259.5781,96.0313 1259.5625,95.9063 1259.4688,95.75 C1259.3125,95.4844 1259.0313,95.3438 1258.7344,95.3438 C1258.4375,95.3438 1258.2344,95.4375 1258.0156,95.75 L1257.8438,95.6719 Z " fill="#000000"/><text fill="#000000" font-family="sans-serif" font-size="14" lengthAdjust="spacing" textLength="205" x="1269.5" y="104.8467">SampleComplexityTestClass</text></g><!--class TestCyclomaticComplexity--><g id="elem_TestCyclomaticComplexity"><rect codeLine="14" fill="#F1F1F1" height="32" id="TestCyclomaticComplexity" rx="2.5" ry="2.5" style="stroke:#181818;stroke-width:0.5;" width="227" x="764.5" y="273"/><ellipse cx="779.5" cy="289" fill="#ADD1B2" rx="11" ry="11" style="stroke:#181818;stroke-width:1.0;"/><path d="M781.8438,284.6719 C780.9063,284.2344 780.3125,284.0938 779.4375,284.0938 C776.8125,284.0938 774.8125,286.1719 774.8125,288.8906 L774.8125,290.0156 C774.8125,292.5938 776.9219,294.4844 779.8125,294.4844 C781.0313,294.4844 782.1875,294.1875 782.9375,293.6406 C783.5156,293.2344 783.8438,292.7813 783.8438,292.3906 C783.8438,291.9375 783.4531,291.5469 782.9844,291.5469 C782.7656,291.5469 782.5625,291.625 782.375,291.8125 C781.9219,292.2969 781.9219,292.2969 781.7344,292.3906 C781.3125,292.6563 780.625,292.7813 779.8594,292.7813 C777.8125,292.7813 776.5156,291.6875 776.5156,289.9844 L776.5156,288.8906 C776.5156,287.1094 777.7656,285.7969 779.5,285.7969 C780.0781,285.7969 780.6875,285.9531 781.1563,286.2031 C781.6406,286.4844 781.8125,286.7031 781.9063,287.1094 C781.9688,287.5156 782,287.6406 782.1406,287.7656 C782.2813,287.9063 782.5156,288.0156 782.7344,288.0156 C783,288.0156 783.2656,287.875 783.4375,287.6563 C783.5469,287.5 783.5781,287.3125 783.5781,286.8906 L783.5781,285.4688 C783.5781,285.0313 783.5625,284.9063 783.4688,284.75 C783.3125,284.4844 783.0313,284.3438 782.7344,284.3438 C782.4375,284.3438 782.2344,284.4375 782.0156,284.75 L781.8438,284.6719 Z " fill="#000000"/><text fill="#000000" font-family="sans-serif" font-size="14" lengthAdjust="spacing" textLength="195" x="793.5" y="293.8467">TestCyclomaticComplexity</text></g><!--class Circle--><g id="elem_Circle"><rect codeLine="25" fill="#F1F1F1" height="32" id="Circle" rx="2.5" ry="2.5" style="stroke:#181818;stroke-width:0.5;" width="73" x="1991.5" y="273"/><ellipse cx="2006.5" cy="289" fill="#ADD1B2" rx="11" ry="11" style="stroke:#181818;stroke-width:1.0;"/><path d="M2008.8438,284.6719 C2007.9063,284.2344 2007.3125,284.0938 2006.4375,284.0938 C2003.8125,284.0938 2001.8125,286.1719 2001.8125,288.8906 L2001.8125,290.0156 C2001.8125,292.5938 2003.9219,294.4844 2006.8125,294.4844 C2008.0313,294.4844 2009.1875,294.1875 2009.9375,293.6406 C2010.5156,293.2344 2010.8438,292.7813 2010.8438,292.3906 C2010.8438,291.9375 2010.4531,291.5469 2009.9844,291.5469 C2009.7656,291.5469 2009.5625,291.625 2009.375,291.8125 C2008.9219,292.2969 2008.9219,292.2969 2008.7344,292.3906 C2008.3125,292.6563 2007.625,292.7813 2006.8594,292.7813 C2004.8125,292.7813 2003.5156,291.6875 2003.5156,289.9844 L2003.5156,288.8906 C2003.5156,287.1094 2004.7656,285.7969 2006.5,285.7969 C2007.0781,285.7969 2007.6875,285.9531 2008.1563,286.2031 C2008.6406,286.4844 2008.8125,286.7031 2008.9063,287.1094 C2008.9688,287.5156 2009,287.6406 2009.1406,287.7656 C2009.2813,287.9063 2009.5156,288.0156 2009.7344,288.0156 C2010,288.0156 2010.2656,287.875 2010.4375,287.6563 C2010.5469,287.5 2010.5781,287.3125 2010.5781,286.8906 L2010.5781,285.4688 C2010.5781,285.0313 2010.5625,284.9063 2010.4688,284.75 C2010.3125,284.4844 2010.0313,284.3438 2009.7344,284.3438 C2009.4375,284.3438 2009.2344,284.4375 2009.0156,284.75 L2008.8438,284.6719 Z " fill="#000000"/><text fill="#000000" font-family="sans-serif" font-size="14" lengthAdjust="spacing" textLength="41" x="2020.5" y="293.8467">Circle</text></g><!--class DetailedView--><g id="elem_DetailedView"><rect codeLine="26" fill="#F1F1F1" height="32" id="DetailedView" rx="2.5" ry="2.5" style="stroke:#181818;stroke-width:0.5;" width="127" x="1991.5" y="517"/><ellipse cx="2006.5" cy="533" fill="#ADD1B2" rx="11" ry="11" style="stroke:#181818;stroke-width:1.0;"/><path d="M2008.8438,528.6719 C2007.9063,528.2344 2007.3125,528.0938 2006.4375,528.0938 C2003.8125,528.0938 2001.8125,530.1719 2001.8125,532.8906 L2001.8125,534.0156 C2001.8125,536.5938 2003.9219,538.4844 2006.8125,538.4844 C2008.0313,538.4844 2009.1875,538.1875 2009.9375,537.6406 C2010.5156,537.2344 2010.8438,536.7813 2010.8438,536.3906 C2010.8438,535.9375 2010.4531,535.5469 2009.9844,535.5469 C2009.7656,535.5469 2009.5625,535.625 2009.375,535.8125 C2008.9219,536.2969 2008.9219,536.2969 2008.7344,536.3906 C2008.3125,536.6563 2007.625,536.7813 2006.8594,536.7813 C2004.8125,536.7813 2003.5156,535.6875 2003.5156,533.9844 L2003.5156,532.8906 C2003.5156,531.1094 2004.7656,529.7969 2006.5,529.7969 C2007.0781,529.7969 2007.6875,529.9531 2008.1563,530.2031 C2008.6406,530.4844 2008.8125,530.7031 2008.9063,531.1094 C2008.9688,531.5156 2009,531.6406 2009.1406,531.7656 C2009.2813,531.9063 2009.5156,532.0156 2009.7344,532.0156 C2010,532.0156 2010.2656,531.875 2010.4375,531.6563 C2010.5469,531.5 2010.5781,531.3125 2010.5781,530.8906 L2010.5781,529.4688 C2010.5781,529.0313 2010.5625,528.9063 2010.4688,528.75 C2010.3125,528.4844 2010.0313,528.3438 2009.7344,528.3438 C2009.4375,528.3438 2009.2344,528.4375 2009.0156,528.75 L2008.8438,528.6719 Z " fill="#000000"/><text fill="#000000" font-family="sans-serif" font-size="14" lengthAdjust="spacing" textLength="95" x="2020.5" y="537.8467">DetailedView</text></g><!--class BriefView--><g id="elem_BriefView"><rect codeLine="27" fill="#F1F1F1" height="32" id="BriefView" rx="2.5" ry="2.5" style="stroke:#181818;stroke-width:0.5;" width="101" x="2153.5" y="517"/><ellipse cx="2168.5" cy="533" fill="#ADD1B2" rx="11" ry="11" style="stroke:#181818;stroke-width:1.0;"/><path d="M2170.8438,528.6719 C2169.9063,528.2344 2169.3125,528.0938 2168.4375,528.0938 C2165.8125,528.0938 2163.8125,530.1719 2163.8125,532.8906 L2163.8125,534.0156 C2163.8125,536.5938 2165.9219,538.4844 2168.8125,538.4844 C2170.0313,538.4844 2171.1875,538.1875 2171.9375,537.6406 C2172.5156,537.2344 2172.8438,536.7813 2172.8438,536.3906 C2172.8438,535.9375 2172.4531,535.5469 2171.9844,535.5469 C2171.7656,535.5469 2171.5625,535.625 2171.375,535.8125 C2170.9219,536.2969 2170.9219,536.2969 2170.7344,536.3906 C2170.3125,536.6563 2169.625,536.7813 2168.8594,536.7813 C2166.8125,536.7813 2165.5156,535.6875 2165.5156,533.9844 L2165.5156,532.8906 C2165.5156,531.1094 2166.7656,529.7969 2168.5,529.7969 C2169.0781,529.7969 2169.6875,529.9531 2170.1563,530.2031 C2170.6406,530.4844 2170.8125,530.7031 2170.9063,531.1094 C2170.9688,531.5156 2171,531.6406 2171.1406,531.7656 C2171.2813,531.9063 2171.5156,532.0156 2171.7344,532.0156 C2172,532.0156 2172.2656,531.875 2172.4375,531.6563 C2172.5469,531.5 2172.5781,531.3125 2172.5781,530.8906 L2172.5781,529.4688 C2172.5781,529.0313 2172.5625,528.9063 2172.4688,528.75 C2172.3125,528.4844 2172.0313,528.3438 2171.7344,528.3438 C2171.4375,528.3438 2171.2344,528.4375 2171.0156,528.75 L2170.8438,528.6719 Z " fill="#000000"/><text fill="#000000" font-family="sans-serif" font-size="14" lengthAdjust="spacing" textLength="69" x="2182.5" y="537.8467">BriefView</text></g><!--class Shapes--><g id="elem_Shapes"><rect codeLine="18" fill="#F1F1F1" height="32" id="Shapes" rx="2.5" ry="2.5" style="stroke:#181818;stroke-width:0.5;" width="84" x="2098" y="84"/><ellipse cx="2113" cy="100" fill="#ADD1B2" rx="11" ry="11" style="stroke:#181818;stroke-width:1.0;"/><path d="M2115.3438,95.6719 C2114.4063,95.2344 2113.8125,95.0938 2112.9375,95.0938 C2110.3125,95.0938 2108.3125,97.1719 2108.3125,99.8906 L2108.3125,101.0156 C2108.3125,103.5938 2110.4219,105.4844 2113.3125,105.4844 C2114.5313,105.4844 2115.6875,105.1875 2116.4375,104.6406 C2117.0156,104.2344 2117.3438,103.7813 2117.3438,103.3906 C2117.3438,102.9375 2116.9531,102.5469 2116.4844,102.5469 C2116.2656,102.5469 2116.0625,102.625 2115.875,102.8125 C2115.4219,103.2969 2115.4219,103.2969 2115.2344,103.3906 C2114.8125,103.6563 2114.125,103.7813 2113.3594,103.7813 C2111.3125,103.7813 2110.0156,102.6875 2110.0156,100.9844 L2110.0156,99.8906 C2110.0156,98.1094 2111.2656,96.7969 2113,96.7969 C2113.5781,96.7969 2114.1875,96.9531 2114.6563,97.2031 C2115.1406,97.4844 2115.3125,97.7031 2115.4063,98.1094 C2115.4688,98.5156 2115.5,98.6406 2115.6406,98.7656 C2115.7813,98.9063 2116.0156,99.0156 2116.2344,99.0156 C2116.5,99.0156 2116.7656,98.875 2116.9375,98.6563 C2117.0469,98.5 2117.0781,98.3125 2117.0781,97.8906 L2117.0781,96.4688 C2117.0781,96.0313 2117.0625,95.9063 2116.9688,95.75 C2116.8125,95.4844 2116.5313,95.3438 2116.2344,95.3438 C2115.9375,95.3438 2115.7344,95.4375 2115.5156,95.75 L2115.3438,95.6719 Z " fill="#000000"/><text fill="#000000" font-family="sans-serif" font-size="14" lengthAdjust="spacing" textLength="52" x="2127" y="104.8467">Shapes</text></g><polygon fill="none" points="2135.6757,116,2137.215,137.1336,2123.7,133.4809" style="stroke:#181818;stroke-width:1.0;"/><line style="stroke:#181818;stroke-width:1.0;" x1="2130.4575" x2="2130" y1="135.3073" y2="137"/><line style="stroke:#181818;stroke-width:1.0;" x1="2161.1127" x2="2200.199" y1="116" y2="145.6212"/><!--class Square--><g id="elem_Square"><rect codeLine="31" fill="#F1F1F1" height="32" id="Square" rx="2.5" ry="2.5" style="stroke:#181818;stroke-width:0.5;" width="81" x="2099.5" y="273"/><ellipse cx="2114.5" cy="289" fill="#ADD1B2" rx="11" ry="11" style="stroke:#181818;stroke-width:1.0;"/><path d="M2116.8438,284.6719 C2115.9063,284.2344 2115.3125,284.0938 2114.4375,284.0938 C2111.8125,284.0938 2109.8125,286.1719 2109.8125,288.8906 L2109.8125,290.0156 C2109.8125,292.5938 2111.9219,294.4844 2114.8125,294.4844 C2116.0313,294.4844 2117.1875,294.1875 2117.9375,293.6406 C2118.5156,293.2344 2118.8438,292.7813 2118.8438,292.3906 C2118.8438,291.9375 2118.4531,291.5469 2117.9844,291.5469 C2117.7656,291.5469 2117.5625,291.625 2117.375,291.8125 C2116.9219,292.2969 2116.9219,292.2969 2116.7344,292.3906 C2116.3125,292.6563 2115.625,292.7813 2114.8594,292.7813 C2112.8125,292.7813 2111.5156,291.6875 2111.5156,289.9844 L2111.5156,288.8906 C2111.5156,287.1094 2112.7656,285.7969 2114.5,285.7969 C2115.0781,285.7969 2115.6875,285.9531 2116.1563,286.2031 C2116.6406,286.4844 2116.8125,286.7031 2116.9063,287.1094 C2116.9688,287.5156 2117,287.6406 2117.1406,287.7656 C2117.2813,287.9063 2117.5156,288.0156 2117.7344,288.0156 C2118,288.0156 2118.2656,287.875 2118.4375,287.6563 C2118.5469,287.5 2118.5781,287.3125 2118.5781,286.8906 L2118.5781,285.4688 C2118.5781,285.0313 2118.5625,284.9063 2118.4688,284.75 C2118.3125,284.4844 2118.0313,284.3438 2117.7344,284.3438 C2117.4375,284.3438 2117.2344,284.4375 2117.0156,284.75 L2116.8438,284.6719 Z " fill="#000000"/><text fill="#000000" font-family="sans-serif" font-size="14" lengthAdjust="spacing" textLength="49" x="2128.5" y="293.8467">Square</text></g><!--class IDrawingView--><g id="elem_IDrawingView"><rect codeLine="20" fill="#F1F1F1" height="32" id="IDrawingView" rx="2.5" ry="2.5" style="stroke:#181818;stroke-width:0.5;" width="129" x="2105.5" y="405"/><ellipse cx="2120.5" cy="421" fill="#B4A7E5" rx="11" ry="11" style="stroke:#181818;stroke-width:1.0;"/><path d="M2121.4531,417.7813 L2123.1719,417.7813 C2123.5625,417.7813 2123.75,417.75 2123.875,417.6719 C2124.1406,417.5156 2124.2813,417.2344 2124.2813,416.9375 C2124.2813,416.6719 2124.1719,416.4063 2123.9375,416.2344 C2123.7656,416.125 2123.625,416.0938 2123.1719,416.0938 L2118.0313,416.0938 C2117.5938,416.0938 2117.4688,416.1094 2117.3125,416.2031 C2117.0625,416.3594 2116.9063,416.6563 2116.9063,416.9375 C2116.9063,417.2188 2117.0469,417.4688 2117.2656,417.6406 C2117.4219,417.75 2117.6094,417.7813 2118.0313,417.7813 L2119.75,417.7813 L2119.75,424.2969 L2118.0313,424.2969 C2117.5938,424.2969 2117.4688,424.3125 2117.3125,424.4219 C2117.0625,424.5781 2116.9063,424.8594 2116.9063,425.1563 C2116.9063,425.4063 2117.0469,425.6719 2117.2656,425.8281 C2117.4219,425.9531 2117.625,426 2118.0313,426 L2123.1719,426 C2123.9219,426 2124.2813,425.7188 2124.2813,425.1563 C2124.2813,424.875 2124.1719,424.625 2123.9375,424.4531 C2123.7656,424.3281 2123.625,424.2969 2123.1719,424.2969 L2121.4531,424.2969 L2121.4531,417.7813 Z " fill="#000000"/><text fill="#000000" font-family="sans-serif" font-size="14" font-style="italic" lengthAdjust="spacing" textLength="97" x="2134.5" y="425.8467">IDrawingView</text></g><polygon fill="none" points="2166.1081,437,2168.1827,458.0878,2154.5794,454.7789" style="stroke:#181818;stroke-width:1.0;"/><line style="stroke:#181818;stroke-width:1.0;" x1="2161.3811" x2="2161" y1="456.4334" y2="458"/><line style="stroke:#181818;stroke-width:1.0;" x1="2136.4932" x2="2086.7936" y1="405" y2="381.2677"/><line style="stroke:#181818;stroke-width:1.0;" x1="2181.0945" x2="2195.05" y1="405" y2="384.874"/><line style="stroke:#181818;stroke-width:1.0;" x1="2166.3952" x2="2160.5516" y1="405" y2="379.0635"/><!--class MethodDefinition--><g id="elem_MethodDefinition"><rect fill="#F1F1F1" height="32" id="MethodDefinition" rx="2.5" ry="2.5" style="stroke:#181818;stroke-width:0.5;" width="159" x="1582.5" y="273"/><ellipse cx="1597.5" cy="289" fill="#ADD1B2" rx="11" ry="11" style="stroke:#181818;stroke-width:1.0;"/><path d="M1599.8438,284.6719 C1598.9063,284.2344 1598.3125,284.0938 1597.4375,284.0938 C1594.8125,284.0938 1592.8125,286.1719 1592.8125,288.8906 L1592.8125,290.0156 C1592.8125,292.5938 1594.9219,294.4844 1597.8125,294.4844 C1599.0313,294.4844 1600.1875,294.1875 1600.9375,293.6406 C1601.5156,293.2344 1601.8438,292.7813 1601.8438,292.3906 C1601.8438,291.9375 1601.4531,291.5469 1600.9844,291.5469 C1600.7656,291.5469 1600.5625,291.625 1600.375,291.8125 C1599.9219,292.2969 1599.9219,292.2969 1599.7344,292.3906 C1599.3125,292.6563 1598.625,292.7813 1597.8594,292.7813 C1595.8125,292.7813 1594.5156,291.6875 1594.5156,289.9844 L1594.5156,288.8906 C1594.5156,287.1094 1595.7656,285.7969 1597.5,285.7969 C1598.0781,285.7969 1598.6875,285.9531 1599.1563,286.2031 C1599.6406,286.4844 1599.8125,286.7031 1599.9063,287.1094 C1599.9688,287.5156 1600,287.6406 1600.1406,287.7656 C1600.2813,287.9063 1600.5156,288.0156 1600.7344,288.0156 C1601,288.0156 1601.2656,287.875 1601.4375,287.6563 C1601.5469,287.5 1601.5781,287.3125 1601.5781,286.8906 L1601.5781,285.4688 C1601.5781,285.0313 1601.5625,284.9063 1601.4688,284.75 C1601.3125,284.4844 1601.0313,284.3438 1600.7344,284.3438 C1600.4375,284.3438 1600.2344,284.4375 1600.0156,284.75 L1599.8438,284.6719 Z " fill="#000000"/><text fill="#000000" font-family="sans-serif" font-size="14" lengthAdjust="spacing" textLength="127" x="1611.5" y="293.8467">MethodDefinition</text></g><!--class Instruction--><g id="elem_Instruction"><rect fill="#F1F1F1" height="32" id="Instruction" rx="2.5" ry="2.5" style="stroke:#181818;stroke-width:0.5;" width="110" x="1777" y="273"/><ellipse cx="1792" cy="289" fill="#ADD1B2" rx="11" ry="11" style="stroke:#181818;stroke-width:1.0;"/><path d="M1794.3438,284.6719 C1793.4063,284.2344 1792.8125,284.0938 1791.9375,284.0938 C1789.3125,284.0938 1787.3125,286.1719 1787.3125,288.8906 L1787.3125,290.0156 C1787.3125,292.5938 1789.4219,294.4844 1792.3125,294.4844 C1793.5313,294.4844 1794.6875,294.1875 1795.4375,293.6406 C1796.0156,293.2344 1796.3438,292.7813 1796.3438,292.3906 C1796.3438,291.9375 1795.9531,291.5469 1795.4844,291.5469 C1795.2656,291.5469 1795.0625,291.625 1794.875,291.8125 C1794.4219,292.2969 1794.4219,292.2969 1794.2344,292.3906 C1793.8125,292.6563 1793.125,292.7813 1792.3594,292.7813 C1790.3125,292.7813 1789.0156,291.6875 1789.0156,289.9844 L1789.0156,288.8906 C1789.0156,287.1094 1790.2656,285.7969 1792,285.7969 C1792.5781,285.7969 1793.1875,285.9531 1793.6563,286.2031 C1794.1406,286.4844 1794.3125,286.7031 1794.4063,287.1094 C1794.4688,287.5156 1794.5,287.6406 1794.6406,287.7656 C1794.7813,287.9063 1795.0156,288.0156 1795.2344,288.0156 C1795.5,288.0156 1795.7656,287.875 1795.9375,287.6563 C1796.0469,287.5 1796.0781,287.3125 1796.0781,286.8906 L1796.0781,285.4688 C1796.0781,285.0313 1796.0625,284.9063 1795.9688,284.75 C1795.8125,284.4844 1795.5313,284.3438 1795.2344,284.3438 C1794.9375,284.3438 1794.7344,284.4375 1794.5156,284.75 L1794.3438,284.6719 Z " fill="#000000"/><text fill="#000000" font-family="sans-serif" font-size="14" lengthAdjust="spacing" textLength="78" x="1806" y="293.8467">Instruction</text></g><!--class AutoGeneratedProgram--><g id="elem_AutoGeneratedProgram"><rect codeLine="6" fill="#F1F1F1" height="32" id="AutoGeneratedProgram" rx="2.5" ry="2.5" style="stroke:#181818;stroke-width:0.5;" width="204" x="1644" y="84"/><ellipse cx="1659" cy="100" fill="#ADD1B2" rx="11" ry="11" style="stroke:#181818;stroke-width:1.0;"/><path d="M1661.3438,95.6719 C1660.4063,95.2344 1659.8125,95.0938 1658.9375,95.0938 C1656.3125,95.0938 1654.3125,97.1719 1654.3125,99.8906 L1654.3125,101.0156 C1654.3125,103.5938 1656.4219,105.4844 1659.3125,105.4844 C1660.5313,105.4844 1661.6875,105.1875 1662.4375,104.6406 C1663.0156,104.2344 1663.3438,103.7813 1663.3438,103.3906 C1663.3438,102.9375 1662.9531,102.5469 1662.4844,102.5469 C1662.2656,102.5469 1662.0625,102.625 1661.875,102.8125 C1661.4219,103.2969 1661.4219,103.2969 1661.2344,103.3906 C1660.8125,103.6563 1660.125,103.7813 1659.3594,103.7813 C1657.3125,103.7813 1656.0156,102.6875 1656.0156,100.9844 L1656.0156,99.8906 C1656.0156,98.1094 1657.2656,96.7969 1659,96.7969 C1659.5781,96.7969 1660.1875,96.9531 1660.6563,97.2031 C1661.1406,97.4844 1661.3125,97.7031 1661.4063,98.1094 C1661.4688,98.5156 1661.5,98.6406 1661.6406,98.7656 C1661.7813,98.9063 1662.0156,99.0156 1662.2344,99.0156 C1662.5,99.0156 1662.7656,98.875 1662.9375,98.6563 C1663.0469,98.5 1663.0781,98.3125 1663.0781,97.8906 L1663.0781,96.4688 C1663.0781,96.0313 1663.0625,95.9063 1662.9688,95.75 C1662.8125,95.4844 1662.5313,95.3438 1662.2344,95.3438 C1661.9375,95.3438 1661.7344,95.4375 1661.5156,95.75 L1661.3438,95.6719 Z " fill="#000000"/><text fill="#000000" font-family="sans-serif" font-size="14" lengthAdjust="spacing" textLength="172" x="1673" y="104.8467">AutoGeneratedProgram</text></g><!--link SampleComplexityTestClass to Instruction--><g id="link_SampleComplexityTestClass_Instruction"><path codeLine="21" d="M1459.59,116.023 C1509.53,123.012 1570.84,130.891 1626,136 C1642.29,137.509 1759.67,134.52 1773,144 C1815.93,174.532 1827.0691,236.1332 1830.2391,266.6012 " fill="none" id="SampleComplexityTestClass-to-Instruction" style="stroke:#181818;stroke-width:1.0;"/><polygon fill="#181818" points="1830.86,272.569,1833.9072,263.2034,1830.3426,267.5958,1825.9501,264.0313,1830.86,272.569" style="stroke:#181818;stroke-width:1.0;"/></g><!--link SampleComplexityTestClass to MethodDefinition--><g id="link_SampleComplexityTestClass_MethodDefinition"><path codeLine="22" d="M1424.02,116 C1446.96,122.752 1472.41,131.964 1494,144 C1558.76,180.096 1617.2862,239.207 1644.1762,268.283 " fill="none" id="SampleComplexityTestClass-to-MethodDefinition" style="stroke:#181818;stroke-width:1.0;"/><polygon fill="#181818" points="1648.25,272.688,1645.0759,263.3646,1644.8552,269.0172,1639.2026,268.7964,1648.25,272.688" style="stroke:#181818;stroke-width:1.0;"/></g><!--link Circle to IDrawingView--><g id="link_Circle_IDrawingView"><path codeLine="23" d="M2034.15,305.003 C2042.54,323.897 2059.18,356.379 2082,377 C2085.03,379.736 2083.4136,378.8007 2086.7936,381.2677 " fill="none" id="Circle-to-IDrawingView" style="stroke:#181818;stroke-width:1.0;"/><polygon fill="#181818" points="2091.64,384.805,2086.7286,376.2681,2087.6013,381.8573,2082.0122,382.73,2091.64,384.805" style="stroke:#181818;stroke-width:1.0;"/></g><!--reverse link Circle to DetailedView--><g id="link_Circle_DetailedView"><path codeLine="24" d="M2028.8753,317.2558 C2029.8953,346.7118 2032.47,401.406 2040,457 C2042.83,477.922 2047.93,501.787 2051.39,516.8681 " fill="none" id="Circle-backto-DetailedView" style="stroke:#181818;stroke-width:1.0;"/><polygon fill="none" points="2028.46,305.263,2024.67,311.3978,2028.8753,317.2558,2032.6652,311.121,2028.46,305.263" style="stroke:#181818;stroke-width:1.0;"/></g><!--reverse link Shapes to Circle--><g id="link_Shapes_Circle"><path d="M2130,137 C2130,137 2090.39,137.235 2082,144 C2041.46,176.674 2031.35,243.122 2028.83,272.934 " fill="none" id="Shapes-backto-Circle" style="stroke:#181818;stroke-width:1.0;"/></g><!--reverse link IDrawingView to DetailedView--><g id="link_IDrawingView_DetailedView"><path d="M2161,458 C2161,458 2107.72,495.1968 2076.71,516.8464 " fill="none" id="IDrawingView-backto-DetailedView" style="stroke:#181818;stroke-width:1.0;"/></g><!--reverse link IDrawingView to BriefView--><g id="link_IDrawingView_BriefView"><path d="M2161,458 C2161,458 2182.5,494.9921 2195.09,516.6672 " fill="none" id="IDrawingView-backto-BriefView" style="stroke:#181818;stroke-width:1.0;"/></g><!--reverse link Shapes to IDrawingView--><g id="link_Shapes_IDrawingView"><path codeLine="28" d="M2200.199,145.6212 C2246.769,238.1152 2227.47,277.727 2198,377 C2197.21,379.647 2196.21,382.284 2195.05,384.874 " fill="none" id="Shapes-backto-IDrawingView" style="stroke:#181818;stroke-width:1.0;"/><polygon fill="#181818" points="2193.01,136.013,2193.4018,143.2135,2200.199,145.6212,2199.8073,138.4208,2193.01,136.013" style="stroke:#181818;stroke-width:1.0;"/></g><!--link Square to IDrawingView--><g id="link_Square_IDrawingView"><path codeLine="29" d="M2143.5,305.167 C2147.98,324.591 2154.5416,353.0045 2160.5516,379.0635 " fill="none" id="Square-to-IDrawingView" style="stroke:#181818;stroke-width:1.0;"/><polygon fill="#181818" points="2161.9,384.91,2163.7751,375.2413,2160.7763,380.0379,2155.9797,377.0391,2161.9,384.91" style="stroke:#181818;stroke-width:1.0;"/></g><!--reverse link Square to DetailedView--><g id="link_Square_DetailedView"><path codeLine="30" d="M2127.2623,315.7489 C2117.6823,334.4219 2104.82,355.695 2082,377 C2076.76,381.89 2071.87,378.966 2068,385 C2041.46,426.416 2047.42,488.3955 2052.05,516.7968 " fill="none" id="Square-backto-DetailedView" style="stroke:#181818;stroke-width:1.0;"/><polygon fill="none" points="2132.74,305.072,2126.4422,308.5845,2127.2623,315.7489,2133.5601,312.2363,2132.74,305.072" style="stroke:#181818;stroke-width:1.0;"/></g><!--reverse link Shapes to Square--><g id="link_Shapes_Square"><path d="M2130,137 C2130,137 2136.48,234.776 2139,272.969 " fill="none" id="Shapes-backto-Square" style="stroke:#181818;stroke-width:1.0;"/></g><!--SRC=[fLFBRjim4BpdAtWEO1_o0G4S6GryI6jOQU-iE9OMfPOgkOgZ5ldta8gR9h7DAEr5034FScTM3Haej9qCgaNx7JwSXH_4dVQwLRLtVRVY1fv4SmLryHPSrBL7hOKS7uA5QpiNQ0zMLeUW5hsuQp2y5fYrTtLa_txu0xAsmo_uMmG9y_Jzodr8FBgB_4y4Qy89zfewM6ACieNtUdYYbuthhVdiv0eRQFE5xJ39uSwHAHm7yNqbpeSLbnBdh6w73c7JMqnsANSaLPFKQC4oQO0Y4PQaC_4SyZUmOnEXeUxTMqhTTXQf8ejxak7PPT9rGsLTc-BuQ_2ik_9aQgor23pF2_BLYx1UWqk89WlpZR0xGOadR3DusUXOo2dmPwzzkfmudhSwhl1hmchfzOwuJXUSVJWgDPjTgXl7RbwW8XjdjVFLVcLY3_zlU0Dfd5bYIqnFZiV27LMvkOwAt6oMQIFJfSAzWCtn8jwjML6QUlmHSc_Ehi94ZwCFLES7SsT5umPzCE6zw1yItYjp2Jy2]--></g></svg>