<?xml version="1.0" encoding="us-ascii" standalone="no"?><svg xmlns="http://www.w3.org/2000/svg" xmlns:xlink="http://www.w3.org/1999/xlink" contentStyleType="text/css" height="280px" preserveAspectRatio="none" style="width:276px;height:280px;background:#FFFFFF;" version="1.1" viewBox="0 0 276 280" width="276px" zoomAndPan="magnify"><defs/><g><!--cluster TypeRelationships--><g id="cluster_TypeRelationships"><path d="M8.5,6 L159.5,6 A3.75,3.75 0 0 1 162,8.5 L169,28.2969 L266.5,28.2969 A2.5,2.5 0 0 1 269,30.7969 L269,270.5 A2.5,2.5 0 0 1 266.5,273 L8.5,273 A2.5,2.5 0 0 1 6,270.5 L6,8.5 A2.5,2.5 0 0 1 8.5,6 " fill="none" style="stroke:#000000;stroke-width:1.5;"/><line style="stroke:#000000;stroke-width:1.5;" x1="6" x2="169" y1="28.2969" y2="28.2969"/><text fill="#000000" font-family="sans-serif" font-size="14" font-weight="bold" lengthAdjust="spacing" textLength="150" x="10" y="20.9951">TypeRelationships</text></g><!--class Engine--><g id="elem_Engine"><rect codeLine="6" fill="#F1F1F1" height="32" id="Engine" rx="2.5" ry="2.5" style="stroke:#181818;stroke-width:0.5;" width="81" x="155.5" y="225"/><ellipse cx="170.5" cy="241" fill="#ADD1B2" rx="11" ry="11" style="stroke:#181818;stroke-width:1.0;"/><path d="M172.8438,236.6719 C171.9063,236.2344 171.3125,236.0938 170.4375,236.0938 C167.8125,236.0938 165.8125,238.1719 165.8125,240.8906 L165.8125,242.0156 C165.8125,244.5938 167.9219,246.4844 170.8125,246.4844 C172.0313,246.4844 173.1875,246.1875 173.9375,245.6406 C174.5156,245.2344 174.8438,244.7813 174.8438,244.3906 C174.8438,243.9375 174.4531,243.5469 173.9844,243.5469 C173.7656,243.5469 173.5625,243.625 173.375,243.8125 C172.9219,244.2969 172.9219,244.2969 172.7344,244.3906 C172.3125,244.6563 171.625,244.7813 170.8594,244.7813 C168.8125,244.7813 167.5156,243.6875 167.5156,241.9844 L167.5156,240.8906 C167.5156,239.1094 168.7656,237.7969 170.5,237.7969 C171.0781,237.7969 171.6875,237.9531 172.1563,238.2031 C172.6406,238.4844 172.8125,238.7031 172.9063,239.1094 C172.9688,239.5156 173,239.6406 173.1406,239.7656 C173.2813,239.9063 173.5156,240.0156 173.7344,240.0156 C174,240.0156 174.2656,239.875 174.4375,239.6563 C174.5469,239.5 174.5781,239.3125 174.5781,238.8906 L174.5781,237.4688 C174.5781,237.0313 174.5625,236.9063 174.4688,236.75 C174.3125,236.4844 174.0313,236.3438 173.7344,236.3438 C173.4375,236.3438 173.2344,236.4375 173.0156,236.75 L172.8438,236.6719 Z " fill="#000000"/><text fill="#000000" font-family="sans-serif" font-size="14" lengthAdjust="spacing" textLength="49" x="184.5" y="245.8467">Engine</text></g><!--class Car--><g id="elem_Car"><rect codeLine="7" fill="#F1F1F1" height="32" id="Car" rx="2.5" ry="2.5" style="stroke:#181818;stroke-width:0.5;" width="56" x="168" y="133"/><ellipse cx="183" cy="149" fill="#ADD1B2" rx="11" ry="11" style="stroke:#181818;stroke-width:1.0;"/><path d="M185.3438,144.6719 C184.4063,144.2344 183.8125,144.0938 182.9375,144.0938 C180.3125,144.0938 178.3125,146.1719 178.3125,148.8906 L178.3125,150.0156 C178.3125,152.5938 180.4219,154.4844 183.3125,154.4844 C184.5313,154.4844 185.6875,154.1875 186.4375,153.6406 C187.0156,153.2344 187.3438,152.7813 187.3438,152.3906 C187.3438,151.9375 186.9531,151.5469 186.4844,151.5469 C186.2656,151.5469 186.0625,151.625 185.875,151.8125 C185.4219,152.2969 185.4219,152.2969 185.2344,152.3906 C184.8125,152.6563 184.125,152.7813 183.3594,152.7813 C181.3125,152.7813 180.0156,151.6875 180.0156,149.9844 L180.0156,148.8906 C180.0156,147.1094 181.2656,145.7969 183,145.7969 C183.5781,145.7969 184.1875,145.9531 184.6563,146.2031 C185.1406,146.4844 185.3125,146.7031 185.4063,147.1094 C185.4688,147.5156 185.5,147.6406 185.6406,147.7656 C185.7813,147.9063 186.0156,148.0156 186.2344,148.0156 C186.5,148.0156 186.7656,147.875 186.9375,147.6563 C187.0469,147.5 187.0781,147.3125 187.0781,146.8906 L187.0781,145.4688 C187.0781,145.0313 187.0625,144.9063 186.9688,144.75 C186.8125,144.4844 186.5313,144.3438 186.2344,144.3438 C185.9375,144.3438 185.7344,144.4375 185.5156,144.75 L185.3438,144.6719 Z " fill="#000000"/><text fill="#000000" font-family="sans-serif" font-size="14" lengthAdjust="spacing" textLength="24" x="197" y="153.8467">Car</text></g><!--class StudentCar--><g id="elem_StudentCar"><rect codeLine="8" fill="#F1F1F1" height="32" id="StudentCar" rx="2.5" ry="2.5" style="stroke:#181818;stroke-width:0.5;" width="114" x="139" y="41"/><ellipse cx="154" cy="57" fill="#ADD1B2" rx="11" ry="11" style="stroke:#181818;stroke-width:1.0;"/><path d="M156.3438,52.6719 C155.4063,52.2344 154.8125,52.0938 153.9375,52.0938 C151.3125,52.0938 149.3125,54.1719 149.3125,56.8906 L149.3125,58.0156 C149.3125,60.5938 151.4219,62.4844 154.3125,62.4844 C155.5313,62.4844 156.6875,62.1875 157.4375,61.6406 C158.0156,61.2344 158.3438,60.7813 158.3438,60.3906 C158.3438,59.9375 157.9531,59.5469 157.4844,59.5469 C157.2656,59.5469 157.0625,59.625 156.875,59.8125 C156.4219,60.2969 156.4219,60.2969 156.2344,60.3906 C155.8125,60.6563 155.125,60.7813 154.3594,60.7813 C152.3125,60.7813 151.0156,59.6875 151.0156,57.9844 L151.0156,56.8906 C151.0156,55.1094 152.2656,53.7969 154,53.7969 C154.5781,53.7969 155.1875,53.9531 155.6563,54.2031 C156.1406,54.4844 156.3125,54.7031 156.4063,55.1094 C156.4688,55.5156 156.5,55.6406 156.6406,55.7656 C156.7813,55.9063 157.0156,56.0156 157.2344,56.0156 C157.5,56.0156 157.7656,55.875 157.9375,55.6563 C158.0469,55.5 158.0781,55.3125 158.0781,54.8906 L158.0781,53.4688 C158.0781,53.0313 158.0625,52.9063 157.9688,52.75 C157.8125,52.4844 157.5313,52.3438 157.2344,52.3438 C156.9375,52.3438 156.7344,52.4375 156.5156,52.75 L156.3438,52.6719 Z " fill="#000000"/><text fill="#000000" font-family="sans-serif" font-size="14" lengthAdjust="spacing" textLength="82" x="168" y="61.8467">StudentCar</text></g><!--class Person--><g id="elem_Person"><rect codeLine="9" fill="#F1F1F1" height="32" id="Person" rx="2.5" ry="2.5" style="stroke:#181818;stroke-width:0.5;" width="81" x="22.5" y="41"/><ellipse cx="37.5" cy="57" fill="#ADD1B2" rx="11" ry="11" style="stroke:#181818;stroke-width:1.0;"/><path d="M39.8438,52.6719 C38.9063,52.2344 38.3125,52.0938 37.4375,52.0938 C34.8125,52.0938 32.8125,54.1719 32.8125,56.8906 L32.8125,58.0156 C32.8125,60.5938 34.9219,62.4844 37.8125,62.4844 C39.0313,62.4844 40.1875,62.1875 40.9375,61.6406 C41.5156,61.2344 41.8438,60.7813 41.8438,60.3906 C41.8438,59.9375 41.4531,59.5469 40.9844,59.5469 C40.7656,59.5469 40.5625,59.625 40.375,59.8125 C39.9219,60.2969 39.9219,60.2969 39.7344,60.3906 C39.3125,60.6563 38.625,60.7813 37.8594,60.7813 C35.8125,60.7813 34.5156,59.6875 34.5156,57.9844 L34.5156,56.8906 C34.5156,55.1094 35.7656,53.7969 37.5,53.7969 C38.0781,53.7969 38.6875,53.9531 39.1563,54.2031 C39.6406,54.4844 39.8125,54.7031 39.9063,55.1094 C39.9688,55.5156 40,55.6406 40.1406,55.7656 C40.2813,55.9063 40.5156,56.0156 40.7344,56.0156 C41,56.0156 41.2656,55.875 41.4375,55.6563 C41.5469,55.5 41.5781,55.3125 41.5781,54.8906 L41.5781,53.4688 C41.5781,53.0313 41.5625,52.9063 41.4688,52.75 C41.3125,52.4844 41.0313,52.3438 40.7344,52.3438 C40.4375,52.3438 40.2344,52.4375 40.0156,52.75 L39.8438,52.6719 Z " fill="#000000"/><text fill="#000000" font-family="sans-serif" font-size="14" lengthAdjust="spacing" textLength="49" x="51.5" y="61.8467">Person</text></g><!--class Student--><g id="elem_Student"><rect codeLine="14" fill="#F1F1F1" height="32" id="Student" rx="2.5" ry="2.5" style="stroke:#181818;stroke-width:0.5;" width="90" x="33" y="133"/><ellipse cx="48" cy="149" fill="#ADD1B2" rx="11" ry="11" style="stroke:#181818;stroke-width:1.0;"/><path d="M50.3438,144.6719 C49.4063,144.2344 48.8125,144.0938 47.9375,144.0938 C45.3125,144.0938 43.3125,146.1719 43.3125,148.8906 L43.3125,150.0156 C43.3125,152.5938 45.4219,154.4844 48.3125,154.4844 C49.5313,154.4844 50.6875,154.1875 51.4375,153.6406 C52.0156,153.2344 52.3438,152.7813 52.3438,152.3906 C52.3438,151.9375 51.9531,151.5469 51.4844,151.5469 C51.2656,151.5469 51.0625,151.625 50.875,151.8125 C50.4219,152.2969 50.4219,152.2969 50.2344,152.3906 C49.8125,152.6563 49.125,152.7813 48.3594,152.7813 C46.3125,152.7813 45.0156,151.6875 45.0156,149.9844 L45.0156,148.8906 C45.0156,147.1094 46.2656,145.7969 48,145.7969 C48.5781,145.7969 49.1875,145.9531 49.6563,146.2031 C50.1406,146.4844 50.3125,146.7031 50.4063,147.1094 C50.4688,147.5156 50.5,147.6406 50.6406,147.7656 C50.7813,147.9063 51.0156,148.0156 51.2344,148.0156 C51.5,148.0156 51.7656,147.875 51.9375,147.6563 C52.0469,147.5 52.0781,147.3125 52.0781,146.8906 L52.0781,145.4688 C52.0781,145.0313 52.0625,144.9063 51.9688,144.75 C51.8125,144.4844 51.5313,144.3438 51.2344,144.3438 C50.9375,144.3438 50.7344,144.4375 50.5156,144.75 L50.3438,144.6719 Z " fill="#000000"/><text fill="#000000" font-family="sans-serif" font-size="14" lengthAdjust="spacing" textLength="58" x="62" y="153.8467">Student</text></g><!--reverse link Car to Engine--><g id="link_Car_Engine"><path codeLine="11" d="M196,177.267 C196,193.917 196,208.3974 196,224.9582 " fill="none" id="Car-backto-Engine" style="stroke:#181818;stroke-width:1.0;"/><polygon fill="#181818" points="196,165.267,192,171.267,196,177.267,200,171.267,196,165.267" style="stroke:#181818;stroke-width:1.0;"/></g><!--link StudentCar to Student--><g id="link_StudentCar_Student"><path codeLine="12" d="M176.249,73.064 C154.467,89.677 124.3938,112.6153 102.5858,129.2483 " fill="none" id="StudentCar-to-Student" style="stroke:#181818;stroke-width:1.0;"/><polygon fill="#181818" points="97.815,132.887,107.3969,130.6095,101.7906,129.8548,102.5454,124.2485,97.815,132.887" style="stroke:#181818;stroke-width:1.0;"/></g><!--reverse link StudentCar to Car--><g id="link_StudentCar_Car"><path codeLine="13" d="M196,85.267 C196,101.917 196,116.397 196,132.958 " fill="none" id="StudentCar-backto-Car" style="stroke:#181818;stroke-width:1.0;"/><polygon fill="none" points="196,73.267,192,79.267,196,85.267,200,79.267,196,73.267" style="stroke:#181818;stroke-width:1.0;"/></g><!--reverse link Person to Student--><g id="link_Person_Student"><path d="M68.5038,91.0221 C71.2789,107.6721 72.7329,116.397 75.493,132.958 " fill="none" id="Person-backto-Student" style="stroke:#181818;stroke-width:1.0;"/><polygon fill="none" points="65.5445,73.267,62.5854,92.0085,74.4221,90.0356,65.5445,73.267" style="stroke:#181818;stroke-width:1.0;"/></g><!--SRC=[XP112i8m44NtdcBMGbnu046A2tUYNY2sdtImcOHC2XRnxXPnfKsxVk_F_9cM6n1yp0Dv-1kIhlJE4csodbmAVJnAYyJPIWtQ_iAzSmdEPWxo3wlWOr3-mhgpgdGT8ixeFWbjEUhc88u5prTHg6oQePVSDv0yBvt6ku8iJncDwGAqDgROVJLRYupPbOM5R9XSEvAbImYF36dAptW3]--></g></svg>