<?xml version="1.0" encoding="us-ascii" standalone="no"?><svg xmlns="http://www.w3.org/2000/svg" xmlns:xlink="http://www.w3.org/1999/xlink" contentStyleType="text/css" height="188px" preserveAspectRatio="none" style="width:367px;height:188px;background:#FFFFFF;" version="1.1" viewBox="0 0 367 188" width="367px" zoomAndPan="magnify"><defs/><g><!--cluster TypeRelationships--><g id="cluster_TypeRelationships"><path d="M8.5,6 L159.5,6 A3.75,3.75 0 0 1 162,8.5 L169,28.2969 L357.5,28.2969 A2.5,2.5 0 0 1 360,30.7969 L360,178.5 A2.5,2.5 0 0 1 357.5,181 L8.5,181 A2.5,2.5 0 0 1 6,178.5 L6,8.5 A2.5,2.5 0 0 1 8.5,6 " fill="none" style="stroke:#000000;stroke-width:1.5;"/><line style="stroke:#000000;stroke-width:1.5;" x1="6" x2="169" y1="28.2969" y2="28.2969"/><text fill="#000000" font-family="sans-serif" font-size="14" font-weight="bold" lengthAdjust="spacing" textLength="150" x="10" y="20.9951">TypeRelationships</text></g><!--class Engine--><g id="elem_Engine"><rect codeLine="6" fill="#F1F1F1" height="32" id="Engine" rx="2.5" ry="2.5" style="stroke:#181818;stroke-width:0.5;" width="81" x="262.5" y="133"/><ellipse cx="277.5" cy="149" fill="#ADD1B2" rx="11" ry="11" style="stroke:#181818;stroke-width:1.0;"/><path d="M279.8438,144.6719 C278.9063,144.2344 278.3125,144.0938 277.4375,144.0938 C274.8125,144.0938 272.8125,146.1719 272.8125,148.8906 L272.8125,150.0156 C272.8125,152.5938 274.9219,154.4844 277.8125,154.4844 C279.0313,154.4844 280.1875,154.1875 280.9375,153.6406 C281.5156,153.2344 281.8438,152.7813 281.8438,152.3906 C281.8438,151.9375 281.4531,151.5469 280.9844,151.5469 C280.7656,151.5469 280.5625,151.625 280.375,151.8125 C279.9219,152.2969 279.9219,152.2969 279.7344,152.3906 C279.3125,152.6563 278.625,152.7813 277.8594,152.7813 C275.8125,152.7813 274.5156,151.6875 274.5156,149.9844 L274.5156,148.8906 C274.5156,147.1094 275.7656,145.7969 277.5,145.7969 C278.0781,145.7969 278.6875,145.9531 279.1563,146.2031 C279.6406,146.4844 279.8125,146.7031 279.9063,147.1094 C279.9688,147.5156 280,147.6406 280.1406,147.7656 C280.2813,147.9063 280.5156,148.0156 280.7344,148.0156 C281,148.0156 281.2656,147.875 281.4375,147.6563 C281.5469,147.5 281.5781,147.3125 281.5781,146.8906 L281.5781,145.4688 C281.5781,145.0313 281.5625,144.9063 281.4688,144.75 C281.3125,144.4844 281.0313,144.3438 280.7344,144.3438 C280.4375,144.3438 280.2344,144.4375 280.0156,144.75 L279.8438,144.6719 Z " fill="#000000"/><text fill="#000000" font-family="sans-serif" font-size="14" lengthAdjust="spacing" textLength="49" x="291.5" y="153.8467">Engine</text></g><!--class Car--><g id="elem_Car"><rect codeLine="7" fill="#F1F1F1" height="32" id="Car" rx="2.5" ry="2.5" style="stroke:#181818;stroke-width:0.5;" width="56" x="288" y="41"/><ellipse cx="303" cy="57" fill="#ADD1B2" rx="11" ry="11" style="stroke:#181818;stroke-width:1.0;"/><path d="M305.3438,52.6719 C304.4063,52.2344 303.8125,52.0938 302.9375,52.0938 C300.3125,52.0938 298.3125,54.1719 298.3125,56.8906 L298.3125,58.0156 C298.3125,60.5938 300.4219,62.4844 303.3125,62.4844 C304.5313,62.4844 305.6875,62.1875 306.4375,61.6406 C307.0156,61.2344 307.3438,60.7813 307.3438,60.3906 C307.3438,59.9375 306.9531,59.5469 306.4844,59.5469 C306.2656,59.5469 306.0625,59.625 305.875,59.8125 C305.4219,60.2969 305.4219,60.2969 305.2344,60.3906 C304.8125,60.6563 304.125,60.7813 303.3594,60.7813 C301.3125,60.7813 300.0156,59.6875 300.0156,57.9844 L300.0156,56.8906 C300.0156,55.1094 301.2656,53.7969 303,53.7969 C303.5781,53.7969 304.1875,53.9531 304.6563,54.2031 C305.1406,54.4844 305.3125,54.7031 305.4063,55.1094 C305.4688,55.5156 305.5,55.6406 305.6406,55.7656 C305.7813,55.9063 306.0156,56.0156 306.2344,56.0156 C306.5,56.0156 306.7656,55.875 306.9375,55.6563 C307.0469,55.5 307.0781,55.3125 307.0781,54.8906 L307.0781,53.4688 C307.0781,53.0313 307.0625,52.9063 306.9688,52.75 C306.8125,52.4844 306.5313,52.3438 306.2344,52.3438 C305.9375,52.3438 305.7344,52.4375 305.5156,52.75 L305.3438,52.6719 Z " fill="#000000"/><text fill="#000000" font-family="sans-serif" font-size="14" lengthAdjust="spacing" textLength="24" x="317" y="61.8467">Car</text></g><!--class StudentCar--><g id="elem_StudentCar"><rect codeLine="8" fill="#F1F1F1" height="32" id="StudentCar" rx="2.5" ry="2.5" style="stroke:#181818;stroke-width:0.5;" width="114" x="139" y="41"/><ellipse cx="154" cy="57" fill="#ADD1B2" rx="11" ry="11" style="stroke:#181818;stroke-width:1.0;"/><path d="M156.3438,52.6719 C155.4063,52.2344 154.8125,52.0938 153.9375,52.0938 C151.3125,52.0938 149.3125,54.1719 149.3125,56.8906 L149.3125,58.0156 C149.3125,60.5938 151.4219,62.4844 154.3125,62.4844 C155.5313,62.4844 156.6875,62.1875 157.4375,61.6406 C158.0156,61.2344 158.3438,60.7813 158.3438,60.3906 C158.3438,59.9375 157.9531,59.5469 157.4844,59.5469 C157.2656,59.5469 157.0625,59.625 156.875,59.8125 C156.4219,60.2969 156.4219,60.2969 156.2344,60.3906 C155.8125,60.6563 155.125,60.7813 154.3594,60.7813 C152.3125,60.7813 151.0156,59.6875 151.0156,57.9844 L151.0156,56.8906 C151.0156,55.1094 152.2656,53.7969 154,53.7969 C154.5781,53.7969 155.1875,53.9531 155.6563,54.2031 C156.1406,54.4844 156.3125,54.7031 156.4063,55.1094 C156.4688,55.5156 156.5,55.6406 156.6406,55.7656 C156.7813,55.9063 157.0156,56.0156 157.2344,56.0156 C157.5,56.0156 157.7656,55.875 157.9375,55.6563 C158.0469,55.5 158.0781,55.3125 158.0781,54.8906 L158.0781,53.4688 C158.0781,53.0313 158.0625,52.9063 157.9688,52.75 C157.8125,52.4844 157.5313,52.3438 157.2344,52.3438 C156.9375,52.3438 156.7344,52.4375 156.5156,52.75 L156.3438,52.6719 Z " fill="#000000"/><text fill="#000000" font-family="sans-serif" font-size="14" lengthAdjust="spacing" textLength="82" x="168" y="61.8467">StudentCar</text></g><!--class Person--><g id="elem_Person"><rect codeLine="9" fill="#F1F1F1" height="32" id="Person" rx="2.5" ry="2.5" style="stroke:#181818;stroke-width:0.5;" width="81" x="22.5" y="41"/><ellipse cx="37.5" cy="57" fill="#ADD1B2" rx="11" ry="11" style="stroke:#181818;stroke-width:1.0;"/><path d="M39.8438,52.6719 C38.9063,52.2344 38.3125,52.0938 37.4375,52.0938 C34.8125,52.0938 32.8125,54.1719 32.8125,56.8906 L32.8125,58.0156 C32.8125,60.5938 34.9219,62.4844 37.8125,62.4844 C39.0313,62.4844 40.1875,62.1875 40.9375,61.6406 C41.5156,61.2344 41.8438,60.7813 41.8438,60.3906 C41.8438,59.9375 41.4531,59.5469 40.9844,59.5469 C40.7656,59.5469 40.5625,59.625 40.375,59.8125 C39.9219,60.2969 39.9219,60.2969 39.7344,60.3906 C39.3125,60.6563 38.625,60.7813 37.8594,60.7813 C35.8125,60.7813 34.5156,59.6875 34.5156,57.9844 L34.5156,56.8906 C34.5156,55.1094 35.7656,53.7969 37.5,53.7969 C38.0781,53.7969 38.6875,53.9531 39.1563,54.2031 C39.6406,54.4844 39.8125,54.7031 39.9063,55.1094 C39.9688,55.5156 40,55.6406 40.1406,55.7656 C40.2813,55.9063 40.5156,56.0156 40.7344,56.0156 C41,56.0156 41.2656,55.875 41.4375,55.6563 C41.5469,55.5 41.5781,55.3125 41.5781,54.8906 L41.5781,53.4688 C41.5781,53.0313 41.5625,52.9063 41.4688,52.75 C41.3125,52.4844 41.0313,52.3438 40.7344,52.3438 C40.4375,52.3438 40.2344,52.4375 40.0156,52.75 L39.8438,52.6719 Z " fill="#000000"/><text fill="#000000" font-family="sans-serif" font-size="14" lengthAdjust="spacing" textLength="49" x="51.5" y="61.8467">Person</text></g><!--class Student--><g id="elem_Student"><rect codeLine="14" fill="#F1F1F1" height="32" id="Student" rx="2.5" ry="2.5" style="stroke:#181818;stroke-width:0.5;" width="90" x="80" y="133"/><ellipse cx="95" cy="149" fill="#ADD1B2" rx="11" ry="11" style="stroke:#181818;stroke-width:1.0;"/><path d="M97.3438,144.6719 C96.4063,144.2344 95.8125,144.0938 94.9375,144.0938 C92.3125,144.0938 90.3125,146.1719 90.3125,148.8906 L90.3125,150.0156 C90.3125,152.5938 92.4219,154.4844 95.3125,154.4844 C96.5313,154.4844 97.6875,154.1875 98.4375,153.6406 C99.0156,153.2344 99.3438,152.7813 99.3438,152.3906 C99.3438,151.9375 98.9531,151.5469 98.4844,151.5469 C98.2656,151.5469 98.0625,151.625 97.875,151.8125 C97.4219,152.2969 97.4219,152.2969 97.2344,152.3906 C96.8125,152.6563 96.125,152.7813 95.3594,152.7813 C93.3125,152.7813 92.0156,151.6875 92.0156,149.9844 L92.0156,148.8906 C92.0156,147.1094 93.2656,145.7969 95,145.7969 C95.5781,145.7969 96.1875,145.9531 96.6563,146.2031 C97.1406,146.4844 97.3125,146.7031 97.4063,147.1094 C97.4688,147.5156 97.5,147.6406 97.6406,147.7656 C97.7813,147.9063 98.0156,148.0156 98.2344,148.0156 C98.5,148.0156 98.7656,147.875 98.9375,147.6563 C99.0469,147.5 99.0781,147.3125 99.0781,146.8906 L99.0781,145.4688 C99.0781,145.0313 99.0625,144.9063 98.9688,144.75 C98.8125,144.4844 98.5313,144.3438 98.2344,144.3438 C97.9375,144.3438 97.7344,144.4375 97.5156,144.75 L97.3438,144.6719 Z " fill="#000000"/><text fill="#000000" font-family="sans-serif" font-size="14" lengthAdjust="spacing" textLength="58" x="109" y="153.8467">Student</text></g><!--reverse link Car to Engine--><g id="link_Car_Engine"><path codeLine="11" d="M312.0795,85.1437 C309.6745,101.7937 307.565,116.3974 305.173,132.9582 " fill="none" id="Car-backto-Engine" style="stroke:#181818;stroke-width:1.0;"/><polygon fill="#181818" points="313.795,73.267,308.9783,78.6335,312.0795,85.1437,316.8961,79.7772,313.795,73.267" style="stroke:#181818;stroke-width:1.0;"/></g><!--link StudentCar to Student--><g id="link_StudentCar_Student"><path codeLine="12" d="M183.956,73.267 C170.821,89.917 153.6472,111.6868 140.5822,128.2476 " fill="none" id="StudentCar-to-Student" style="stroke:#181818;stroke-width:1.0;"/><polygon fill="#181818" points="136.866,132.9582,145.5807,128.3698,139.9629,129.0327,139.3,123.4148,136.866,132.9582" style="stroke:#181818;stroke-width:1.0;"/></g><!--reverse link StudentCar to Car--><g id="link_StudentCar_Car"><path codeLine="13" d="M265.188,57 C276.638,57 276.088,57 287.538,57 " fill="none" id="StudentCar-backto-Car" style="stroke:#181818;stroke-width:1.0;"/><polygon fill="none" points="253.188,57,259.188,61,265.188,57,259.188,53,253.188,57" style="stroke:#181818;stroke-width:1.0;"/></g><!--reverse link Person to Student--><g id="link_Person_Student"><path d="M83.7291,88.0901 C95.1992,104.7401 103.229,116.3974 114.638,132.9582 " fill="none" id="Person-backto-Student" style="stroke:#181818;stroke-width:1.0;"/><polygon fill="none" points="73.5175,73.267,78.788,91.4939,88.6701,84.6862,73.5175,73.267" style="stroke:#181818;stroke-width:1.0;"/></g><!--SRC=[XP112i8m44NtdcBMGbnu046A2tUYNY2sdtImcOHC2XRnxXPnfKsxVkyF_q_B3GW-ve4y_0r9LtfdYJPPJow5FXwbHU9ifGPjV-7UkGHdCmVvXrNmCIX_OTrPLReE4MTqduIs77Lp4CU2vwieL3RDq4lk6qYUbqxZhY3BLqPZkW2jZIbsNytM8cDsPM4X6ynqdwKXX4U6DELVl040]--></g></svg>